<?xml version="1.0" standalone="no"?>
<!DOCTYPE svg PUBLIC "-//W3C//DTD SVG 20010904//EN"
 "http://www.w3.org/TR/2001/REC-SVG-20010904/DTD/svg10.dtd">
<svg version="1.0" xmlns="http://www.w3.org/2000/svg"
 width="512.000000pt" height="512.000000pt" viewBox="0 0 512.000000 512.000000"
 preserveAspectRatio="xMidYMid meet">
<metadata>
Created by potrace 1.11, written by Peter Selinger 2001-2013
</metadata>
<g transform="translate(0.000000,512.000000) scale(0.100000,-0.100000)"
fill="#000000" stroke="none">
<path d="M2345 4830 c-80 -9 -153 -19 -175 -25 -8 -2 -33 -6 -54 -10 -161 -23
-444 -124 -626 -222 -78 -42 -278 -168 -290 -183 -3 -3 -15 -13 -27 -21 -86
-59 -284 -252 -379 -369 -284 -351 -462 -780 -501 -1204 -10 -103 -10 -368 -1
-466 41 -422 208 -835 477 -1180 92 -118 257 -282 381 -379 58 -45 110 -85
116 -90 76 -60 446 -251 488 -251 8 0 17 -4 20 -9 3 -5 16 -11 28 -14 13 -3
55 -15 93 -27 39 -11 77 -23 85 -24 8 -2 33 -9 55 -15 61 -16 211 -41 295 -49
97 -9 375 -9 465 1 815 85 1524 603 1854 1354 50 115 83 211 120 353 30 117
33 134 56 300 12 90 13 466 2 516 -3 12 -8 45 -12 75 -11 91 -55 277 -92 388
-92 273 -254 559 -436 770 -100 114 -290 288 -397 361 -19 13 -37 27 -40 30
-9 10 -132 85 -210 127 -171 93 -423 187 -585 219 -11 2 -31 6 -45 9 -49 10
-136 24 -180 30 -73 10 -409 13 -485 5z"/>
</g>
</svg>
