<svg width="50" height="59" viewBox="0 0 50 59" fill="none" xmlns="http://www.w3.org/2000/svg">
<g clip-path="url(#clip0_1813:685)">
<path d="M41.6865 56.4011C38.468 59.4913 34.9169 59.0096 31.5321 57.5526C27.9335 56.0662 24.6437 55.9722 20.8433 57.5526C16.1105 59.5736 13.5986 58.9861 10.7482 56.4011C-5.34439 40.0098 -2.9691 15.0411 15.3207 14.1011C19.7566 14.3361 22.8623 16.5274 25.4751 16.7096C29.3587 15.9282 33.076 13.6898 37.2328 13.9836C42.2269 14.3831 45.962 16.3336 48.4561 19.8409C38.1829 25.9509 40.6176 39.346 50.0535 43.106C48.1651 48.0116 45.7423 52.8585 41.6805 56.4422L41.6865 56.4011ZM25.1188 13.9248C24.6378 6.63982 30.6057 0.647315 37.4703 0.0598145C38.4145 8.46107 29.7506 14.7473 25.1188 13.9248Z" fill="black"/>
</g>
<defs>
<clipPath id="clip0_1813:685">
<rect width="50" height="58.75" fill="white"/>
</clipPath>
</defs>
</svg>
