<svg width="90" height="28" viewBox="0 0 90 28" fill="none" xmlns="http://www.w3.org/2000/svg">
<path d="M13.4832 0.291016H0V27.5767H13.4832C20.2265 27.5767 26.9661 21.4683 26.9661 13.9358C26.9661 6.40328 20.2265 0.291016 13.4832 0.291016ZM13.4832 20.1331C12.2637 20.1327 11.0716 19.7686 10.0579 19.087C9.04413 18.4055 8.25417 17.4369 7.78789 16.304C7.32161 15.171 7.19996 13.9245 7.43832 12.722C7.67669 11.5195 8.26436 10.4151 9.12702 9.54846C9.98968 8.68178 11.0886 8.09174 12.2848 7.85296C13.481 7.61418 14.7207 7.73739 15.8473 8.207C16.9739 8.67661 17.9366 9.47153 18.6138 10.4912C19.291 11.511 19.6522 12.7097 19.6518 13.9358C19.6519 14.75 19.4923 15.5563 19.1823 16.3085C18.8722 17.0607 18.4178 17.7441 17.8449 18.3197C17.272 18.8952 16.592 19.3516 15.8436 19.6628C15.0951 19.9739 14.2931 20.1338 13.4832 20.1331Z" fill="url(#paint0_linear_1813:715)"/>
<path d="M40.7996 0.295622C44.8579 0.295622 46.9394 2.76913 46.9394 6.17291V9.21698C46.9394 12.6204 44.8579 15.0939 40.7996 15.0939H34.3654V0.295622H40.7996ZM43.3229 6.15293C43.3229 4.2717 42.3346 3.27802 40.1478 3.27802H37.961V12.1129H40.1478C42.3346 12.1129 43.3229 11.1192 43.3229 9.238V6.15293ZM58.1416 12.3469H52.8219L52.0018 15.0953H48.3853L53.6416 0.295622H57.3428L62.5995 15.0939H58.9826L58.1416 12.3469ZM53.705 9.42957H57.2585L55.4922 3.57399L53.705 9.42957ZM74.0344 0.295622V3.36209H70.059V15.0939H66.4435V3.36106H62.4682V0.295622H74.0344ZM82.7886 15.3899C78.3311 15.3899 76.0392 12.5146 76.0392 8.64607V6.74348C76.0392 2.8749 78.3311 0 82.7886 0C87.2462 0 89.5399 2.8749 89.5399 6.74348V8.64607C89.5385 12.5146 87.2465 15.3899 82.7886 15.3899ZM82.7886 3.02271C80.6862 3.02271 79.6557 4.43949 79.6557 6.55329V8.83626C79.6557 10.9504 80.6862 12.3668 82.7886 12.3668C84.8911 12.3668 85.9216 10.9504 85.9216 8.83626V6.55329C85.9216 4.43949 84.8915 3.02271 82.7886 3.02271ZM37.5906 25.9251C37.8196 25.9437 38.0501 25.914 38.2671 25.8378C38.484 25.7616 38.6828 25.6407 38.8506 25.4828C39.0184 25.3249 39.1515 25.1335 39.2414 24.9208C39.3313 24.7081 39.376 24.4789 39.3726 24.2479H41.413C41.3873 26.1573 39.9888 27.7574 37.6145 27.7574C34.8428 27.7574 33.5083 26.0026 33.5083 23.6546V22.4676C33.5083 20.1195 34.8428 18.3651 37.6145 18.3651C39.9888 18.3651 41.3873 19.9644 41.413 21.8739H39.3726C39.376 21.6429 39.3313 21.4137 39.2414 21.201C39.1515 20.9883 39.0184 20.7969 38.8506 20.639C38.6828 20.4811 38.484 20.3601 38.2671 20.284C38.0501 20.2078 37.8196 20.1781 37.5906 20.1967C36.2557 20.1967 35.7167 21.087 35.7167 22.3642V23.7576C35.7167 25.0348 36.2574 25.9251 37.5906 25.9251ZM50.2893 18.5453H52.3171V27.5765H50.1999V22.8032L48.7879 25.5637H47.0429L45.6444 22.8032V27.5765H43.5268V18.5453H45.5542L47.9154 23.4609L50.2893 18.5453ZM58.0909 27.7574C55.935 27.7574 54.485 26.7238 54.485 24.9059V24.6606H56.6022V24.8419C56.6022 25.603 57.0899 26.0674 58.1036 26.0674C59.0148 26.0674 59.618 25.6932 59.618 24.9966C59.6351 24.8095 59.581 24.6228 59.4664 24.4744C59.3519 24.3259 59.1856 24.2267 59.0011 24.1969L56.7554 23.6291C55.3565 23.2807 54.6379 22.6616 54.6379 21.1907C54.6379 19.3973 55.9082 18.3654 58.0385 18.3654C60.0532 18.3654 61.3366 19.4618 61.3366 21.1132V21.3326H59.2972V21.1779C59.2972 20.5712 58.9634 20.0682 58.0395 20.0682C57.2694 20.0682 56.7821 20.339 56.7821 20.984C56.7679 21.1573 56.8196 21.3296 56.9267 21.4661C57.0339 21.6026 57.1886 21.6932 57.3596 21.7196L59.7461 22.3646C61.1834 22.7515 61.7609 23.5515 61.7609 24.8029C61.7609 26.609 60.1697 27.7574 58.0909 27.7574Z" fill="#FF7751"/>
<defs>
<linearGradient id="paint0_linear_1813:715" x1="0" y1="13.9337" x2="26.9661" y2="13.9337" gradientUnits="userSpaceOnUse">
<stop stop-color="#FF593D"/>
<stop offset="1" stop-color="#FF7751"/>
</linearGradient>
</defs>
</svg>
