<svg width="147" height="251" viewBox="0 0 147 251" fill="none" xmlns="http://www.w3.org/2000/svg">
<path opacity="0.1" d="M60.6471 250.37C27.5061 250.37 0.639923 243.76 0.639923 235.606C0.639923 227.452 27.5061 220.842 60.6471 220.842C93.7882 220.842 120.654 227.452 120.654 235.606C120.654 243.76 93.7882 250.37 60.6471 250.37Z" fill="black"/>
<path d="M8.86941 111.464L95.8234 130.951C98.3362 131.511 100.955 130.989 103.106 129.498C105.257 128.008 106.764 125.671 107.296 123L122.218 47.7355C122.744 45.0638 122.253 42.2791 120.851 39.9922C119.449 37.7054 117.251 36.1032 114.739 35.5372L27.7852 16.0501C25.2724 15.4901 22.6532 16.0127 20.5023 17.5033C18.3514 18.994 16.8445 21.3309 16.3122 24.0013L1.391 99.266C0.864281 101.938 1.35585 104.722 2.75784 107.009C4.15984 109.296 6.35775 110.898 8.86941 111.464ZM114.504 36.7224C116.72 37.2219 118.66 38.6356 119.897 40.6534C121.134 42.6712 121.568 45.1283 121.103 47.4857L106.182 122.75C105.712 125.107 104.382 127.169 102.484 128.484C100.587 129.799 98.2756 130.26 96.0583 129.766L9.10441 110.279C6.88824 109.78 4.94891 108.366 3.71185 106.348C2.4748 104.33 2.04104 101.873 2.50578 99.5158L17.4269 24.2511C17.8967 21.8949 19.2263 19.8329 21.1242 18.5177C23.022 17.2024 25.333 16.7412 27.5503 17.2354L114.504 36.7224Z" fill="white"/>
<path d="M33.1884 40.8672L77.0729 50.7021C77.4569 50.7969 77.8605 50.7331 78.2019 50.5236C78.5434 50.3141 78.7974 49.9746 78.9124 49.5737C78.9651 49.3646 78.9771 49.1464 78.9477 48.9322C78.9184 48.718 78.8483 48.5124 78.7418 48.328C78.6352 48.1436 78.4945 47.9842 78.3281 47.8595C78.1617 47.7348 77.9732 47.6475 77.774 47.6029L33.1022 37.5916C31.358 38.6367 31.9093 40.5806 33.1889 40.8674L33.1884 40.8672Z" fill="#FFFC00"/>
<path d="M31.5653 49.0516L75.4498 58.8864C75.8339 58.9812 76.2374 58.9174 76.5789 58.7079C76.9204 58.4985 77.1743 58.159 77.2894 57.7581C77.342 57.549 77.354 57.3307 77.3247 57.1165C77.2953 56.9024 77.2253 56.6968 77.1187 56.5123C77.0122 56.3279 76.8714 56.1685 76.705 56.0438C76.5386 55.9192 76.3501 55.8318 76.1509 55.7872L31.4792 45.7759C29.7349 46.821 30.2862 48.7649 31.5658 49.0517L31.5653 49.0516Z" fill="#FFFC00"/>
<path d="M84.013 65.6723L97.4062 68.6738C97.8436 68.7713 98.2995 68.6804 98.6739 68.4209C99.0483 68.1614 99.3105 67.7546 99.4032 67.2898L102.735 50.4856C102.826 50.0206 102.741 49.5358 102.497 49.1378C102.253 48.7397 101.87 48.4608 101.433 48.3624L88.0397 45.3608C87.6024 45.2635 87.1465 45.3545 86.7722 45.6139C86.3978 45.8734 86.1355 46.2801 86.0428 46.7448L82.7113 63.549C82.6196 64.0141 82.7052 64.4988 82.9492 64.8969C83.1932 65.2949 83.5758 65.5738 84.013 65.6723V65.6723Z" fill="#FFFC00"/>
<path d="M28.371 65.8376L95.3468 80.8474C95.7309 80.9421 96.1344 80.8783 96.4759 80.6689C96.8174 80.4594 97.0713 80.1199 97.1864 79.719C97.239 79.5099 97.251 79.2916 97.2217 79.0775C97.1923 78.8633 97.1222 78.6577 97.0157 78.4733C96.9092 78.2889 96.7684 78.1294 96.602 78.0048C96.4356 77.8801 96.2471 77.7928 96.0479 77.7481L28.2843 62.5618C26.5401 63.6069 27.0914 65.5508 28.371 65.8376Z" fill="#CCCCCC"/>
<path d="M26.748 74.0241L93.7238 89.0339C94.1078 89.1287 94.5113 89.0649 94.8528 88.8554C95.1943 88.646 95.4482 88.3065 95.5633 87.9056C95.6159 87.6965 95.628 87.4782 95.5986 87.264C95.5693 87.0499 95.4992 86.8443 95.3927 86.6598C95.2861 86.4754 95.1454 86.316 94.979 86.1913C94.8126 86.0667 94.624 85.9793 94.4248 85.9347L26.6613 70.7483C24.917 71.7934 25.4683 73.7373 26.748 74.0241Z" fill="#CCCCCC"/>
<path d="M25.1254 82.2057L92.1012 97.2156C92.4852 97.3103 92.8888 97.2465 93.2303 97.037C93.5717 96.8276 93.8257 96.4881 93.9408 96.0872C93.9934 95.8781 94.0054 95.6598 93.9761 95.4456C93.9467 95.2314 93.8766 95.0259 93.7701 94.8415C93.6636 94.657 93.5228 94.4976 93.3564 94.3729C93.19 94.2483 93.0015 94.1609 92.8023 94.1163L25.0387 78.9299C23.2945 79.975 23.8458 81.9189 25.1254 82.2057H25.1254Z" fill="#CCCCCC"/>
<path d="M23.5023 90.3915L90.4782 105.401C90.8622 105.496 91.2657 105.432 91.6072 105.223C91.9487 105.013 92.2026 104.674 92.3177 104.273C92.3703 104.064 92.3823 103.846 92.353 103.631C92.3237 103.417 92.2536 103.212 92.1471 103.027C92.0405 102.843 91.8998 102.683 91.7334 102.559C91.567 102.434 91.3784 102.347 91.1792 102.302L23.4156 87.1157C21.6714 88.1608 22.2227 90.1048 23.5023 90.3915Z" fill="#CCCCCC"/>
<path d="M21.8817 98.5734L88.8575 113.583C89.2416 113.678 89.6451 113.614 89.9866 113.405C90.3281 113.195 90.582 112.856 90.6971 112.455C90.7497 112.246 90.7617 112.028 90.7324 111.813C90.7031 111.599 90.633 111.394 90.5264 111.209C90.4199 111.025 90.2792 110.865 90.1128 110.741C89.9464 110.616 89.7578 110.529 89.5586 110.484L21.795 95.2976C20.0508 96.3427 20.6021 98.2866 21.8817 98.5734Z" fill="#CCCCCC"/>
<path d="M11.197 61.1035C11.3492 61.397 11.4793 61.7029 11.5863 62.0181L39.0052 69.2523L43.7751 64.0058L52.1631 70.6246L44.5679 80.785C43.9543 81.6059 43.1068 82.1929 42.1527 82.4581C41.1986 82.7233 40.1893 82.6522 39.2765 82.2556L9.5243 69.3295C8.54638 70.0949 7.37249 70.5255 6.15875 70.5642C4.94501 70.6029 3.74895 70.2478 2.72966 69.5461C1.71037 68.8445 0.91618 67.8295 0.452675 66.6362C-0.0108261 65.4429 -0.121635 64.1279 0.134964 62.866C0.391563 61.6041 1.0034 60.4551 1.88913 59.572C2.77487 58.6888 3.89251 58.1133 5.09338 57.922C6.29426 57.7307 7.52146 57.9326 8.61177 58.5009C9.70207 59.0692 10.6038 59.977 11.197 61.1035L11.197 61.1035Z" fill="#A0616A"/>
<path d="M104.789 125.48C103.934 125.2 103.147 124.723 102.485 124.084C101.822 123.446 101.299 122.66 100.952 121.783C100.606 120.906 100.445 119.959 100.48 119.008C100.515 118.058 100.745 117.127 101.155 116.282L82.2864 60.5206L95.3903 58.0515L109.817 113.639C111.108 114.466 112.068 115.767 112.516 117.296C112.964 118.825 112.87 120.475 112.25 121.935C111.63 123.394 110.528 124.561 109.153 125.215C107.778 125.868 106.225 125.963 104.789 125.48Z" fill="#A0616A"/>
<path d="M84.6826 70.4184L97.6207 65.139C97.9888 64.9888 98.3221 64.756 98.598 64.4564C98.8739 64.1569 99.0858 63.7976 99.2193 63.4032C99.3528 63.0087 99.4048 62.5883 99.3717 62.1705C99.3386 61.7528 99.2212 61.3475 99.0275 60.9823L92.2402 48.1874C91.5062 46.19 90.0573 44.5835 88.2111 43.7199C86.365 42.8563 84.2721 42.8062 82.3912 43.5804C80.5103 44.3547 78.9948 45.8902 78.1768 47.8504C77.3589 49.8106 77.3052 52.0356 78.0276 54.0378L81.0214 68.3298C81.1072 68.739 81.275 69.1237 81.5133 69.4577C81.7515 69.7918 82.0547 70.0673 82.4022 70.2655C82.7496 70.4637 83.1332 70.5799 83.5267 70.6063C83.9202 70.6327 84.3145 70.5687 84.6826 70.4184V70.4184Z" fill="white"/>
<path d="M55.4793 230.17H48.4961L45.1733 201.53L55.4805 201.53L55.4793 230.17Z" fill="#A0616A"/>
<path d="M57.7197 227.059L43.9663 227.058H43.9658C42.8147 227.058 41.675 227.299 40.6116 227.767C39.5482 228.236 38.582 228.922 37.7681 229.787C36.9542 230.653 36.3086 231.68 35.8681 232.811C35.4276 233.941 35.2009 235.153 35.2009 236.377V236.68L57.7193 236.681L57.7197 227.059Z" fill="#2F2E41"/>
<path d="M94.7855 230.17H87.8022L84.4795 201.53L94.7866 201.53L94.7855 230.17Z" fill="#A0616A"/>
<path d="M96.5664 227.745L82.813 227.745H82.8125C81.6614 227.745 80.5217 227.986 79.4583 228.454C78.3949 228.922 77.4287 229.609 76.6148 230.474C75.8009 231.34 75.1553 232.367 74.7148 233.497C74.2743 234.628 74.0476 235.84 74.0476 237.064V237.366L96.566 237.367L96.5664 227.745Z" fill="#2F2E41"/>
<path d="M87.464 218.642H96.3019C96.6487 218.642 96.992 218.567 97.3109 218.422C97.6297 218.277 97.9176 218.064 98.1569 217.798C98.3963 217.531 98.5823 217.215 98.7035 216.869C98.8248 216.524 98.8788 216.156 98.8623 215.787L94.6644 119.892L94.3999 119.885L51.7226 118.702L43.3713 214.652C43.3392 215.011 43.3747 215.374 43.4757 215.719C43.5767 216.064 43.7412 216.384 43.9596 216.661C44.178 216.938 44.4461 217.166 44.7481 217.331C45.0501 217.497 45.38 217.597 45.7188 217.626L55.6456 218.47C56.2692 218.523 56.8894 218.331 57.3895 217.932C57.8897 217.532 58.2352 216.952 58.3611 216.301L71.0586 147.997C71.0933 147.789 71.1968 147.602 71.3503 147.469C71.5039 147.335 71.6973 147.265 71.8955 147.27H71.8989C72.0978 147.266 72.2916 147.337 72.4449 147.472C72.5983 147.607 72.701 147.795 72.7342 148.004L84.9489 216.443C85.0646 217.062 85.3783 217.62 85.8369 218.021C86.2954 218.421 86.8704 218.641 87.464 218.642Z" fill="#2F2E41"/>
<path opacity="0.1" d="M131.942 216.574C126.085 216.574 121.336 214.784 121.336 212.575C121.336 210.366 126.085 208.576 131.942 208.576C137.799 208.576 142.547 210.366 142.547 212.575C142.547 214.784 137.799 216.574 131.942 216.574Z" fill="black"/>
<path d="M131.933 212.608C131.933 212.608 125.883 190.824 133.069 174.788C136.083 168.058 137.085 160.503 135.692 153.201C135.026 149.737 134.062 146.345 132.811 143.068" stroke="#535461" stroke-width="2" stroke-miterlimit="10"/>
<path d="M137.281 132.932C137.281 135.602 132.723 143.347 132.723 143.347C132.723 143.347 128.165 135.605 128.165 132.932C128.165 131.65 128.645 130.42 129.5 129.514C130.355 128.607 131.514 128.098 132.723 128.098C133.932 128.098 135.091 128.607 135.946 129.514C136.801 130.42 137.281 131.65 137.281 132.932Z" fill="#F8E71C"/>
<path d="M144.819 147.721C143.444 149.962 135.658 153.834 135.658 153.834C135.658 153.834 135.799 144.707 137.168 142.466C137.493 141.933 137.914 141.472 138.407 141.112C138.9 140.751 139.456 140.497 140.041 140.364C140.627 140.23 141.232 140.221 141.821 140.336C142.41 140.45 142.972 140.687 143.475 141.032C143.978 141.377 144.412 141.824 144.752 142.347C145.092 142.87 145.332 143.458 145.457 144.079C145.583 144.701 145.592 145.342 145.484 145.967C145.376 146.592 145.152 147.188 144.827 147.721H144.819Z" fill="#F8E71C"/>
<path d="M144.494 172.994C142.245 174.196 133.675 173.365 133.675 173.365C133.675 173.365 138.141 165.563 140.389 164.361C140.924 164.075 141.506 163.904 142.103 163.856C142.7 163.809 143.3 163.887 143.869 164.086C144.437 164.285 144.963 164.6 145.417 165.015C145.87 165.429 146.242 165.934 146.512 166.501C146.781 167.068 146.943 167.685 146.987 168.319C147.032 168.952 146.958 169.588 146.771 170.191C146.584 170.794 146.286 171.352 145.895 171.833C145.505 172.314 145.028 172.708 144.494 172.994Z" fill="#F8E71C"/>
<path d="M140.172 192.057C138.147 193.644 129.567 194.362 129.567 194.362C129.567 194.362 132.725 185.871 134.75 184.283C135.231 183.906 135.778 183.632 136.359 183.479C136.939 183.325 137.543 183.295 138.135 183.389C138.727 183.483 139.296 183.699 139.809 184.026C140.322 184.353 140.77 184.784 141.126 185.295C141.482 185.805 141.739 186.385 141.884 187.001C142.029 187.617 142.058 188.257 141.969 188.885C141.881 189.513 141.677 190.116 141.368 190.661C141.06 191.205 140.653 191.679 140.172 192.057Z" fill="#F8E71C"/>
<path d="M126.082 154.35C127.887 156.21 136.294 158.137 136.294 158.137C136.294 158.137 134.234 149.274 132.429 147.414C132.001 146.969 131.493 146.617 130.936 146.38C130.379 146.142 129.783 146.024 129.182 146.032C128.582 146.04 127.989 146.173 127.437 146.425C126.886 146.677 126.386 147.041 125.968 147.498C125.55 147.955 125.22 148.495 124.999 149.087C124.778 149.679 124.67 150.312 124.68 150.949C124.69 151.585 124.819 152.214 125.059 152.797C125.299 153.381 125.645 153.909 126.078 154.35H126.082Z" fill="#F8E71C"/>
<path d="M121.319 176.712C123.568 177.914 132.139 177.083 132.139 177.083C132.139 177.083 127.673 169.281 125.424 168.079C124.889 167.793 124.307 167.622 123.71 167.575C123.113 167.527 122.513 167.606 121.945 167.804C121.376 168.003 120.85 168.319 120.397 168.733C119.943 169.147 119.571 169.652 119.301 170.219C119.032 170.786 118.87 171.404 118.826 172.037C118.781 172.67 118.855 173.306 119.042 173.909C119.23 174.512 119.527 175.07 119.918 175.551C120.309 176.032 120.785 176.427 121.319 176.712Z" fill="#F8E71C"/>
<path d="M119.484 199.122C121.509 200.709 130.089 201.427 130.089 201.427C130.089 201.427 126.931 192.935 124.907 191.348C124.426 190.962 123.878 190.681 123.294 190.521C122.71 190.362 122.102 190.326 121.505 190.417C120.909 190.509 120.335 190.724 119.817 191.052C119.3 191.38 118.849 191.814 118.49 192.328C118.132 192.842 117.873 193.427 117.729 194.047C117.585 194.668 117.558 195.313 117.651 195.945C117.743 196.577 117.953 197.183 118.268 197.728C118.583 198.274 118.997 198.747 119.486 199.122H119.484Z" fill="#F8E71C"/>
<path d="M71.2741 34.3661C63.547 34.3661 57.283 27.7061 57.283 19.4906C57.283 11.275 63.547 4.61499 71.2741 4.61499C79.0011 4.61499 85.2651 11.275 85.2651 19.4906C85.2651 27.7061 79.0011 34.3661 71.2741 34.3661Z" fill="#A0616A"/>
<path d="M65.0377 42.2487C65.0377 42.2487 82.711 46.2902 81.0236 42.2487C80.4126 40.7869 80.2439 36.4557 80.2776 31.5216C80.2883 30.0229 80.3167 28.4702 80.3576 26.9243C80.5529 19.5148 81.0236 12.2736 81.0236 12.2736C81.0236 12.2736 65.5706 -1.53508 67.3468 9.41085C68.0573 13.833 67.8246 20.0436 67.2846 25.8735C67.1265 27.5744 66.9436 29.2415 66.7518 30.8245C66.2836 34.6855 65.7115 38.4985 65.0377 42.2487Z" fill="#A0616A"/>
<path d="M75.9659 131.13C82.6343 131.13 89.4837 129.267 95.1618 123.756C95.464 123.465 95.6972 123.102 95.8427 122.697C95.9881 122.292 96.0417 121.856 95.9989 121.425C95.3911 115.619 92.4431 85.6421 94.1033 65.6175C94.4273 61.8772 93.9293 58.108 92.6485 54.6074C91.3677 51.1068 89.3393 47.9706 86.7232 45.4462C84.153 42.9276 81.0674 41.0786 77.71 40.0449C74.3526 39.0113 70.8152 38.8214 67.3769 39.4902H67.3767C67.2025 39.5233 67.0284 39.5582 66.854 39.5937C55.6527 41.8986 47.87 52.9205 48.7507 65.2318C50.0357 83.1957 51.1876 107.494 49.3788 121.236C49.3039 121.798 49.3962 122.371 49.6429 122.874C49.8896 123.378 50.2782 123.787 50.7544 124.044C54.87 126.255 65.1813 131.13 75.9659 131.13Z" fill="white"/>
<path d="M57.7096 71.4892C58.0379 71.2569 58.3151 70.9522 58.5225 70.5956C58.7299 70.239 58.8625 69.8391 58.9112 69.423L60.6158 54.8934C61.1569 52.8271 60.9053 50.617 59.9161 48.7477C58.927 46.8783 57.281 45.5022 55.3391 44.9212C53.3972 44.3401 51.3178 44.6014 49.5568 45.6479C47.7958 46.6943 46.497 48.4405 45.9451 50.5036L40.3305 63.9256C40.1703 64.3087 40.0896 64.724 40.0939 65.1432C40.0983 65.5624 40.1876 65.9757 40.3557 66.3549C40.5238 66.7341 40.7668 67.0703 41.0682 67.3407C41.3695 67.611 41.7222 67.8092 42.102 67.9216L55.4529 71.8717C55.8328 71.9843 56.2311 72.0084 56.6205 71.9424C57.01 71.8764 57.3815 71.7218 57.7096 71.4892Z" fill="white"/>
<path d="M76.1602 34.1563C77.4844 34.1824 78.8005 33.9292 80.0322 33.4114C80.5741 33.1894 81.1367 33.0069 81.6776 32.7846C86.455 30.8222 89.6021 25.4126 89.7148 19.9686C89.8275 14.5246 87.1759 9.2407 83.2384 5.75847C79.301 2.27624 74.201 0.488436 69.0943 0.0750142C63.5934 -0.370308 57.3993 1.11286 54.3255 5.98356C53.5073 7.28006 52.9351 8.85307 53.4199 10.4185C53.5651 10.8909 53.8245 11.3144 54.172 11.6467C55.5447 12.9453 56.9132 11.9689 58.3126 11.8826C60.236 11.7641 61.9636 13.4194 62.5845 15.3586C63.2054 17.2977 62.9321 19.4326 62.4308 21.4104C62.0488 22.6006 61.8081 23.8368 61.714 25.0904C61.6736 25.7189 61.7847 26.3481 62.0371 26.9182C62.2894 27.4883 62.6744 27.9804 63.1557 28.3479C64.3576 29.1203 65.9361 28.6733 67.1387 27.9021C68.3413 27.1309 69.3804 26.0586 70.6794 25.4912C71.9785 24.9237 73.7237 25.0495 74.4798 26.3079C74.7201 26.7657 74.8828 27.265 74.9603 27.7828C75.6381 31.0662 75.4823 30.8728 76.1602 34.1562V34.1563Z" fill="#2F2E41"/>
</svg>
