<svg width="220" height="217" viewBox="0 0 220 217" fill="none" xmlns="http://www.w3.org/2000/svg">
<path opacity="0.1" d="M110 216.81C49.2487 216.81 0 206.894 0 194.662C0 182.429 49.2487 172.513 110 172.513C170.751 172.513 220 182.429 220 194.662C220 206.894 170.751 216.81 110 216.81Z" fill="#3F3D56"/>
<path d="M185.648 165.531C190.204 159.034 192.182 151.185 191.224 143.408C190.265 135.632 186.434 128.442 180.425 123.143C174.415 117.844 166.626 114.787 158.468 114.526C150.311 114.265 142.326 116.817 135.962 121.719C129.598 126.622 125.275 133.551 123.779 141.249C122.282 148.947 123.711 156.905 127.805 163.679C131.899 170.453 138.388 175.596 146.095 178.173C153.802 180.751 162.216 180.594 169.813 177.73C170.305 179.416 171.226 180.959 172.492 182.221C173.759 183.482 175.331 184.423 177.07 184.958C178.808 185.493 180.657 185.606 182.452 185.288C184.247 184.969 185.932 184.228 187.355 183.132C188.779 182.035 189.897 180.617 190.609 179.004C191.321 177.392 191.605 175.635 191.436 173.891C191.267 172.147 190.65 170.47 189.639 169.012C188.629 167.553 187.258 166.357 185.648 165.531Z" fill="#F8E71C"/>
<path d="M170.733 150.295C168.552 150.295 166.784 148.598 166.784 146.505C166.784 144.412 168.552 142.716 170.733 142.716C172.915 142.716 174.683 144.412 174.683 146.505C174.683 148.598 172.915 150.295 170.733 150.295Z" fill="white"/>
<path d="M157.258 150.295C155.077 150.295 153.309 148.598 153.309 146.505C153.309 144.412 155.077 142.716 157.258 142.716C159.44 142.716 161.208 144.412 161.208 146.505C161.208 148.598 159.44 150.295 157.258 150.295Z" fill="white"/>
<path d="M143.784 150.295C141.603 150.295 139.835 148.598 139.835 146.505C139.835 144.412 141.603 142.716 143.784 142.716C145.966 142.716 147.734 144.412 147.734 146.505C147.734 148.598 145.966 150.295 143.784 150.295Z" fill="white"/>
<path d="M153.101 29.04C153.101 29.04 135.478 29.4997 132.568 30.5157C129.657 31.5316 128.356 38.7965 128.356 38.7965L142.038 42.9227L152.272 42.3665L159.975 42.8887L155.674 32.0822L153.101 29.04Z" fill="#349ADF"/>
<path d="M152.544 23.3975C152.544 23.3975 151.384 27.6939 153.958 30.7361C156.531 33.7783 142.895 44.6188 142.895 44.6188L135.702 43.4325C135.702 43.4325 137.287 30.2309 135.158 26.888C133.028 23.545 152.544 23.3975 152.544 23.3975Z" fill="#9F616A"/>
<path opacity="0.1" d="M152.544 23.3975C152.544 23.3975 151.384 27.6939 153.958 30.7361C156.531 33.7783 142.895 44.6188 142.895 44.6188L135.702 43.4325C135.702 43.4325 137.287 30.2309 135.158 26.888C133.028 23.545 152.544 23.3975 152.544 23.3975Z" fill="black"/>
<path d="M104.703 149.017L120.574 169.211L109.743 175.279L94.8351 151.877L104.703 149.017Z" fill="#9F616A"/>
<path d="M115.837 169.552C115.837 169.552 121.682 163.036 121.422 164.489C121.161 165.942 125.58 178.264 121.469 179.456C117.357 180.648 82.1003 183.809 81.6152 179.989C81.1302 176.17 92.1332 173.496 92.1332 173.496C92.1332 173.496 98.67 167.469 100.119 168.082C101.569 168.695 115.837 169.552 115.837 169.552Z" fill="#2F2E41"/>
<path d="M108.264 168.304L95.5869 189.026L86.0158 183.708L98.7992 166.743L108.264 168.304Z" fill="#9F616A"/>
<path d="M88.2518 119.004L92.0141 124.112C92.0141 124.112 109.95 148.012 108.045 149.942C106.141 151.872 98.2077 159.165 94.1732 157.752C90.1388 156.339 75.8053 131.911 75.8053 131.911L79.5441 117.568L88.2518 119.004Z" fill="#2F2E41"/>
<path d="M165.516 114.169C165.516 114.169 161.499 121.36 151.318 123.795C141.138 126.23 130.501 131.207 130.123 131.145C129.744 131.082 128.673 130.532 128.413 131.985C128.153 133.438 125.361 135.969 125.361 135.969C125.361 135.969 114.115 172.634 109.82 172.673C105.525 172.713 96.6993 169.762 96.516 168.61C96.3326 167.457 109.667 130.015 109.797 129.289L111.358 120.571C111.358 120.571 93.724 123.272 92.0794 123.749C90.4349 124.226 75.8056 131.911 75.8056 131.911C75.8056 131.911 60.8923 121.598 74.8414 111.183C88.7904 100.768 112.766 93.129 112.766 93.129L121.368 90.8077L128.864 90.3784L129.968 86.3174L147.722 87.3002L166.25 94.8432L165.516 114.169Z" fill="#2F2E41"/>
<path d="M142.083 31.9498C134.445 31.9498 128.254 26.0093 128.254 18.6813C128.254 11.3534 134.445 5.41284 142.083 5.41284C149.721 5.41284 155.913 11.3534 155.913 18.6813C155.913 26.0093 149.721 31.9498 142.083 31.9498Z" fill="#9F616A"/>
<path d="M154.596 29.3461L152.933 29.0718C152.933 29.0718 149.929 40.1695 140.635 42.0028C140.635 42.0028 136.05 36.7322 136.246 35.8429C136.441 34.9536 132.614 30.2087 130.579 32.8649C128.544 35.5211 131.076 82.3113 129.366 83.1513C127.656 83.9913 123.989 84.8824 126.941 87.987C129.893 91.0916 141.617 95.2689 144.214 93.8273C146.811 92.3857 152.118 80.1716 154.413 76.0625C156.708 71.9533 160.382 57.9741 160.382 57.9741C160.382 57.9741 165.073 42.6669 162.186 39.199C159.299 35.7312 154.596 29.3461 154.596 29.3461Z" fill="white"/>
<path d="M141.36 86.9499C141.669 90.2093 142.198 93.4459 142.944 96.6395C143.622 99.238 144.412 100.807 145.313 100.74C147.612 100.575 148.658 103.811 149.196 107.542C149.773 111.499 149.773 116.014 150.088 117.61C150.506 119.718 153.182 121.327 158.529 120.855C161.714 120.507 164.839 119.772 167.83 118.666C175.049 116.148 174.835 95.7259 173.627 80.5719C172.888 71.2834 171.778 63.9694 171.778 63.9694C171.778 63.9694 173.971 57.6938 174.672 53.3928C174.812 52.608 174.882 51.8133 174.881 51.0172C174.775 47.2599 167.625 37.1067 163.305 30.7822C158.98 24.4576 153.08 29.0974 153.08 29.0974L155.133 35.0431C155.133 35.0431 151.951 39.7542 151.928 44.238C151.905 48.7218 144.309 51.9576 141.583 54.1282C139.868 55.4921 139.91 73.6991 141.36 86.9499Z" fill="#349ADF"/>
<path d="M135.355 31.2219C135.355 31.2219 134.857 31.7871 132.575 31.5114C129.838 31.1807 126.075 32.0892 125.201 34.5961C123.598 39.1934 119.078 57.8947 119.078 57.8947C119.078 57.8947 117.197 79.2749 116.351 83.9971C115.505 88.7192 115.925 92.9022 115.091 95.3825C114.257 97.8627 123.325 90.7568 126.668 91.682C130.01 92.6071 132.157 80.6201 131.737 76.4371C131.317 72.2542 130.963 67.708 132.122 63.4115C133.282 59.115 131.226 47.7438 131.303 45.1387C131.38 42.5335 138.673 35.9677 135.355 31.2219Z" fill="#349ADF"/>
<path d="M125.57 97.6711C125.57 97.6711 110.927 105.336 109.526 116.244C108.124 127.153 129.111 105.682 129.111 105.682L125.57 97.6711Z" fill="#9F616A"/>
<path d="M117.212 89.9354C117.212 89.9354 112.725 111.634 105.736 110.481C98.7461 109.329 109.64 88.6868 109.64 88.6868L117.212 89.9354Z" fill="#9F616A"/>
<path d="M93.2752 184.53C93.2752 184.53 96.8541 188.486 97.7414 187.884C98.6288 187.283 100.67 195.473 98.8299 197.039C96.9901 198.606 89.9032 201.177 89.8263 203.782C89.7494 206.387 70.7425 205.871 70.0622 203.141C69.382 200.411 72.4463 194.184 74.5995 193.044C76.7528 191.903 84.7147 181.403 84.7147 181.403C84.7147 181.403 90.9503 182.277 93.2752 184.53Z" fill="#2F2E41"/>
<path opacity="0.1" d="M127.901 110.942C131.297 108.642 140.778 108.072 149.196 107.541C152.889 107.314 156.378 107.091 159.058 106.73C161.641 106.387 163.964 104.123 166.026 100.749C169.153 95.6367 171.68 87.9705 173.626 80.5719C172.888 71.2834 171.777 63.9694 171.777 63.9694C171.777 63.9694 173.97 57.6939 174.671 53.3928C174.177 52.7325 173.54 52.1822 172.804 51.7793C163.875 48.1023 155.351 84.289 154.268 89.9673C154.25 90.0609 154.236 90.15 154.222 90.2258C153.697 93.1496 148.025 95.6501 142.943 96.6395C139.812 97.2501 136.899 97.2902 135.556 96.4969C132.031 94.4199 121.188 102.732 120.366 102.969C119.544 103.209 123.023 114.254 127.901 110.942Z" fill="black"/>
<path d="M172.803 50.3294C172.803 50.3294 179.292 53.2694 176.441 67.0102C173.59 80.751 167.845 104.112 159.061 105.281C150.276 106.45 132.784 106.184 127.903 109.492C123.023 112.801 119.544 101.756 120.367 101.518C121.189 101.28 132.032 92.9706 135.558 95.0478C139.084 97.1251 153.376 93.4984 154.222 88.7763C155.068 84.0541 163.728 46.5891 172.803 50.3294Z" fill="#349ADF"/>
<path d="M126.04 42.9619L118.908 58.8399C118.908 58.8399 118.19 58.4962 117.356 60.9764C116.522 63.4567 116.131 65.6362 114.67 67.2651C113.209 68.894 106.708 92.1301 106.513 93.2199C106.317 94.3096 115.492 98.0664 117.542 95.0387C119.592 92.011 126.04 42.9619 126.04 42.9619Z" fill="#349ADF"/>
<path d="M149.952 18.4964C149.422 18.3607 149.345 17.6855 149.327 17.1595C149.232 14.3424 147.464 11.4518 144.653 10.6318C143.575 10.348 142.445 10.2884 141.341 10.4569C139.765 10.6583 138.242 11.1456 136.856 11.8926C136.124 12.2874 135.406 12.763 134.575 12.8836C134.027 12.9633 131.653 13.6256 131.107 13.7188C129.906 13.9237 128.79 14.9542 127.639 14.5708C126.536 14.2039 126.292 12.8348 126.266 11.7158C126.205 9.16664 128.222 5.63846 129.999 3.74205C131.347 2.30294 133.377 1.63863 135.361 1.2932C137.679 0.935835 140.028 0.798716 142.375 0.883845C145.55 0.938186 148.814 1.17337 151.678 2.49172C154.541 3.81008 156.947 6.43396 157.084 9.47852C157.113 10.1127 157.044 10.7496 157.1 11.3821C157.235 12.9253 158.09 14.3191 158.49 15.8192C158.777 16.9199 158.819 18.066 158.616 19.1835C158.412 20.3011 157.967 21.3653 157.308 22.3075C156.246 23.8081 154.575 25.1653 154.637 26.9786L152.332 24.688C151.988 24.4359 151.744 24.0781 151.642 23.6744C151.54 23.2707 151.585 22.8455 151.769 22.4698L152.585 19.4173C152.795 18.8723 152.82 18.2777 152.656 17.7185C151.781 15.6454 150.836 18.7228 149.952 18.4964Z" fill="#2F2E41"/>
<path d="M45.2237 171.154C45.3192 171.005 47.571 167.397 48.3517 159.906C49.0678 153.033 48.6074 141.449 42.3455 125.29C30.4827 94.677 45.0794 69.9769 45.2285 69.7309L44.5084 69.3301C44.4706 69.3925 40.7041 75.69 38.4791 85.7179C35.5391 99.0127 36.6096 112.836 41.5653 125.568C53.4078 156.129 44.6035 170.596 44.5133 170.738L45.2237 171.154Z" fill="#FFFC00"/>
<path d="M49.8625 67.9332C46.8746 67.9332 44.4524 65.6093 44.4524 62.7426C44.4524 59.8759 46.8746 57.552 49.8625 57.552C52.8503 57.552 55.2725 59.8759 55.2725 62.7426C55.2725 65.6093 52.8503 67.9332 49.8625 67.9332Z" fill="#F8E71C"/>
<path d="M32.7999 87.0987C29.8121 87.0987 27.3899 84.7748 27.3899 81.9081C27.3899 79.0414 29.8121 76.7175 32.7999 76.7175C35.7878 76.7175 38.21 79.0414 38.21 81.9081C38.21 84.7748 35.7878 87.0987 32.7999 87.0987Z" fill="#FFFC00"/>
<path d="M44.4523 99.8755C41.4644 99.8755 39.0423 97.5516 39.0423 94.6849C39.0423 91.8183 41.4644 89.4944 44.4523 89.4944C47.4402 89.4944 49.8623 91.8183 49.8623 94.6849C49.8623 97.5516 47.4402 99.8755 44.4523 99.8755Z" fill="#F8E71C"/>
<path d="M30.3029 110.656C27.315 110.656 24.8929 108.332 24.8929 105.465C24.8929 102.598 27.315 100.274 30.3029 100.274C33.2907 100.274 35.7129 102.598 35.7129 105.465C35.7129 108.332 33.2907 110.656 30.3029 110.656Z" fill="#F8E71C"/>
<path d="M48.6144 127.425C45.6266 127.425 43.2044 125.101 43.2044 122.235C43.2044 119.368 45.6266 117.044 48.6144 117.044C51.6023 117.044 54.0244 119.368 54.0244 122.235C54.0244 125.101 51.6023 127.425 48.6144 127.425Z" fill="#FFFC00"/>
<path d="M41.9547 171.346C41.9547 171.346 47.3647 158.569 31.1348 148.987L41.9547 171.346Z" fill="#F8E71C"/>
<path d="M48.6092 171.114C48.6092 171.114 51.0713 157.527 70.1279 157.643L48.6092 171.114Z" fill="#F8E71C"/>
</svg>
