<svg width="462" height="162" viewBox="0 0 462 162" fill="none" xmlns="http://www.w3.org/2000/svg">
<path d="M461 117.869C461 120.631 458.761 122.869 456 122.869H310.991C308.229 122.869 305.991 120.631 305.991 117.869V24.3079C305.991 21.5464 308.229 19.3079 310.991 19.3079H456C458.761 19.3079 461 21.5464 461 24.3079V117.869ZM306.829 117.031C306.829 119.792 309.067 122.031 311.829 122.031H455.162C457.923 122.031 460.162 119.792 460.162 117.031V25.1464C460.162 22.385 457.923 20.1464 455.162 20.1464H311.829C309.067 20.1464 306.829 22.385 306.829 25.1464V117.031Z" stroke="white"/>
<path d="M461 117.869C461 120.631 458.761 122.869 456 122.869H310.991C308.229 122.869 305.991 120.631 305.991 117.869V24.3079C305.991 21.5464 308.229 19.3079 310.991 19.3079H456C458.761 19.3079 461 21.5464 461 24.3079V117.869ZM306.829 117.031C306.829 119.792 309.067 122.031 311.829 122.031H455.162C457.923 122.031 460.162 119.792 460.162 117.031V25.1464C460.162 22.385 457.923 20.1464 455.162 20.1464H311.829C309.067 20.1464 306.829 22.385 306.829 25.1464V117.031Z" stroke="url(#paint0_linear_1813:443)"/>
<path d="M358.777 62.9128H340.343V111.549H358.777V62.9128Z" fill="#F8E71C"/>
<path d="M392.712 81.7798H374.278V111.549H392.712V81.7798Z" fill="#F8E71C"/>
<path d="M426.645 42.7869H408.212V111.548H426.645V42.7869Z" fill="#F8E71C"/>
<path d="M383.495 72.1367C388.585 72.1367 392.712 68.0069 392.712 62.9126C392.712 57.8183 388.585 53.6885 383.495 53.6885C378.405 53.6885 374.278 57.8183 374.278 62.9126C374.278 68.0069 378.405 72.1367 383.495 72.1367Z" fill="#F8E71C"/>
<path d="M116.209 39.4643C116.209 42.2257 113.971 44.4643 111.209 44.4643H6C3.23857 44.4643 1 42.2257 1 39.4643V5.85938C1 3.09795 3.23858 0.859375 6 0.859375H111.209C113.971 0.859375 116.209 3.09795 116.209 5.85938V39.4643ZM1.83789 38.6257C1.83789 41.3871 4.07646 43.6257 6.83789 43.6257H110.371C113.133 43.6257 115.371 41.3871 115.371 38.6257V6.69794C115.371 3.93651 113.133 1.69793 110.371 1.69793H6.83788C4.07646 1.69793 1.83789 3.93651 1.83789 6.69793V38.6257Z" stroke="white"/>
<path d="M243.987 112.419C243.987 115.18 241.748 117.419 238.987 117.419H186.145C183.384 117.419 181.145 115.18 181.145 112.419V91.8113C181.145 89.0499 183.384 86.8113 186.145 86.8113H238.987C241.748 86.8113 243.987 89.0499 243.987 91.8113V112.419ZM181.983 111.58C181.983 114.341 184.221 116.58 186.983 116.58H238.149C240.91 116.58 243.149 114.341 243.149 111.58V92.6498C243.149 89.8884 240.91 87.6498 238.149 87.6498H186.983C184.221 87.6498 181.983 89.8884 181.983 92.6498V111.58Z" fill="white"/>
<path d="M47.7114 13.228L69.4965 22.8714L47.7114 32.0955V13.228Z" fill="#F8E71C"/>
<path d="M198.322 106.727C200.867 106.727 202.931 104.662 202.931 102.115C202.931 99.5681 200.867 97.5032 198.322 97.5032C195.777 97.5032 193.714 99.5681 193.714 102.115C193.714 104.662 195.777 106.727 198.322 106.727Z" fill="#F8E71C"/>
<path d="M212.567 106.727C215.112 106.727 217.175 104.662 217.175 102.115C217.175 99.5681 215.112 97.5032 212.567 97.5032C210.022 97.5032 207.958 99.5681 207.958 102.115C207.958 104.662 210.022 106.727 212.567 106.727Z" fill="#F8E71C"/>
<path d="M226.811 106.727C229.356 106.727 231.419 104.662 231.419 102.115C231.419 99.5681 229.356 97.5032 226.811 97.5032C224.266 97.5032 222.203 99.5681 222.203 102.115C222.203 104.662 224.266 106.727 226.811 106.727Z" fill="#F8E71C"/>
<path d="M211.836 53.6304L207.563 59.0992C200.751 49.4267 192.595 41.5857 183.295 35.79C175.484 30.9357 166.886 27.4864 157.887 25.5979C142.372 22.3034 130.406 24.5256 130.287 24.5482L130.574 26.051C130.69 26.0286 142.353 23.8635 157.57 27.0945C171.353 30.021 190.867 38.1067 206.256 59.9021L199.518 61.3608C203.758 62.6439 208.948 65.7496 212.619 68.574C211.676 64.0375 211.143 58.0092 211.836 53.6304Z" fill="white"/>
<path d="M328.089 145.199C327.996 145.273 318.635 152.649 303.649 156.872C290.103 160.689 269.094 162.611 245.362 150.506L250.645 146.077C246.296 146.917 240.258 146.587 235.696 145.797C238.64 149.373 241.916 154.46 243.341 158.658L244.578 151.826C255.107 157.212 265.973 160.351 276.9 161.146C278.774 161.283 280.651 161.351 282.53 161.351C289.834 161.342 297.101 160.325 304.127 158.327C319.391 154.013 328.947 146.47 329.042 146.395L328.089 145.199Z" fill="white"/>
<path d="M96.6272 134.717C96.72 134.791 106.08 142.167 121.066 146.39C134.613 150.207 155.622 152.129 179.354 140.024L174.07 135.595C178.42 136.435 184.458 136.105 189.02 135.315C186.076 138.891 182.799 143.978 181.375 148.176L180.138 141.344C169.609 146.73 158.743 149.868 147.816 150.664C145.942 150.801 144.065 150.869 142.186 150.869C134.882 150.86 127.614 149.843 120.589 147.845C105.325 143.53 95.7686 135.988 95.6738 135.913L96.6272 134.717Z" fill="white"/>
<path d="M75.362 149.195C75.362 151.956 73.1234 154.195 70.362 154.195H15.8447C13.0833 154.195 10.8447 151.956 10.8447 149.195V94.6257C10.8447 91.8643 13.0833 89.6257 15.8447 89.6257H70.362C73.1234 89.6257 75.362 91.8643 75.362 94.6257V149.195ZM11.7408 148.298C11.7408 151.059 13.9794 153.298 16.7408 153.298H69.4659C72.2273 153.298 74.4659 151.059 74.4659 148.298V95.5225C74.4659 92.7611 72.2273 90.5225 69.4659 90.5225H16.7408C13.9794 90.5225 11.7408 92.7611 11.7408 95.5225V148.298Z" stroke="white"/>
<path d="M62.8178 110.047H23.3906V113.647H62.8178V110.047Z" fill="#F8E71C"/>
<path d="M62.8178 120.11H23.3906V123.709H62.8178V120.11Z" fill="#F8E71C"/>
<path d="M62.8178 130.173H23.3906V133.772H62.8178V130.173Z" fill="#F8E71C"/>
<path d="M267.403 29.0076C267.403 28.0125 267.698 27.0398 268.251 26.2124C268.803 25.385 269.588 24.7401 270.507 24.3593C271.425 23.9785 272.436 23.8789 273.411 24.073C274.387 24.2671 275.282 24.7463 275.985 25.45C276.689 26.1536 277.167 27.0501 277.361 28.0261C277.555 29.0021 277.456 30.0137 277.075 30.9331C276.695 31.8524 276.05 32.6382 275.224 33.191C274.397 33.7439 273.425 34.039 272.431 34.039C271.098 34.0375 269.82 33.5069 268.877 32.5637C267.935 31.6205 267.405 30.3416 267.403 29.0076ZM268.241 29.0076C268.241 29.8369 268.487 30.6475 268.947 31.337C269.408 32.0265 270.062 32.5639 270.827 32.8813C271.593 33.1986 272.435 33.2816 273.248 33.1199C274.061 32.9581 274.807 32.5588 275.393 31.9724C275.979 31.386 276.378 30.6389 276.54 29.8256C276.701 29.0123 276.618 28.1693 276.301 27.4031C275.984 26.637 275.447 25.9822 274.758 25.5215C274.069 25.0608 273.259 24.8149 272.431 24.8149C271.32 24.8161 270.255 25.2583 269.47 26.0443C268.684 26.8303 268.242 27.896 268.241 29.0076Z" fill="white"/>
<path d="M129.859 89.6146L122.459 81.6744L130.393 74.2683L137.793 82.2085L129.859 89.6146ZM123.639 81.7155L129.9 88.4341L136.613 82.1674L130.352 75.4488L123.639 81.7155Z" fill="white"/>
<path d="M397.983 151.192L390.583 143.252L398.517 135.846L405.917 143.786L397.983 151.192ZM391.763 143.293L398.024 150.012L404.738 143.745L398.476 137.027L391.763 143.293Z" fill="white"/>
<defs>
<linearGradient id="paint0_linear_1813:443" x1="383.495" y1="19.3079" x2="383.495" y2="122.869" gradientUnits="userSpaceOnUse">
<stop stop-color="white"/>
<stop offset="1" stop-color="white" stop-opacity="0"/>
</linearGradient>
</defs>
</svg>
