<svg width="72" height="72" viewBox="0 0 72 72" fill="none" xmlns="http://www.w3.org/2000/svg">
<path d="M15.2437 0H18.478V3.20625H21.4593V0H24.6937V9.70312H21.4593V6.46875H18.5062V9.70312H15.2437V0ZM28.9687 3.23438H26.114V0H35.0718V3.23438H32.203V9.70312H28.9687V3.23438ZM36.4921 0H39.8812L41.9624 3.41719L44.0437 0H47.4327V9.70312H44.1983V4.89375L41.9343 8.38125L39.6702 4.89375V9.70312H36.4921V0ZM49.0358 0H52.2702V6.49688H56.8546V9.70312H49.0358" fill="white"/>
<path d="M15.1313 66.2342L10.4907 14.1467H61.5095L56.8689 66.2061L35.9579 71.9998" fill="#E44D26"/>
<path d="M36 67.5703V18.4219H56.8547L52.875 62.8594" fill="#F16529"/>
<path d="M19.9688 24.7922H36V31.1766H26.9719L27.5625 37.7157H36V44.086H21.7125L19.9688 24.7922ZM21.9937 47.2922H28.4062L28.8562 52.3969L36 54.3094V60.975L22.8938 57.3188" fill="#EBEBEB"/>
<path d="M51.9753 24.7922H35.9722V31.1766H51.3847L51.9753 24.7922ZM50.8081 37.7157H35.9722V44.1H43.8472L43.1019 52.3969L35.9722 54.3094V60.9469L49.0503 57.3188" fill="white"/>
</svg>
