<svg width="93" height="13" viewBox="0 0 93 13" fill="none" xmlns="http://www.w3.org/2000/svg">
<path d="M17.3135 1.4292H18.5684V7.8124C18.5684 9.50347 17.8301 10.6705 16.0999 10.6705C15.5883 10.6783 15.0791 10.5977 14.5947 10.4324V9.20971C15.0079 9.37025 15.4476 9.45107 15.8908 9.44789C16.9507 9.44789 17.3167 8.81275 17.3167 7.89655L17.3135 1.4292Z" fill="#253858"/>
<path d="M20.8542 0.938524C20.9661 0.930498 21.0784 0.946681 21.1836 0.985975C21.2887 1.02527 21.3842 1.08676 21.4635 1.16627C21.5428 1.24578 21.6042 1.34146 21.6434 1.44682C21.6826 1.55218 21.6988 1.66475 21.6907 1.77691C21.6907 1.99927 21.6026 2.21252 21.4457 2.36975C21.2888 2.52697 21.0761 2.6153 20.8542 2.6153C20.6323 2.6153 20.4195 2.52697 20.2626 2.36975C20.1058 2.21252 20.0176 1.99927 20.0176 1.77691C20.0096 1.66475 20.0258 1.55218 20.065 1.44682C20.1042 1.34146 20.1655 1.24578 20.2449 1.16627C20.3242 1.08676 20.4197 1.02527 20.5248 0.985975C20.6299 0.946681 20.7423 0.930498 20.8542 0.938524ZM20.241 3.62201H21.4404V10.6086H20.241V3.62201Z" fill="#253858"/>
<path d="M23.252 3.62038H24.4228V4.84939C24.8268 4.02529 25.5319 3.43778 26.8913 3.52193V4.69536C25.3576 4.53658 24.4228 5.00341 24.4228 6.4833V10.6117H23.252V3.62038Z" fill="#253858"/>
<path d="M32.5088 9.34969C32.062 10.2722 31.2254 10.747 30.1528 10.747C28.299 10.747 27.3643 9.16867 27.3643 7.11398C27.3643 5.14345 28.3402 3.48096 30.2922 3.48096C31.3094 3.48096 32.0905 3.94144 32.5104 4.84969V3.62069H33.7097V10.6073H32.5104L32.5088 9.34969ZM30.4728 9.62915C31.5471 9.62915 32.5088 8.94479 32.5088 7.39345V6.82817C32.5088 5.27683 31.631 4.59246 30.6075 4.59246C29.2544 4.59246 28.5573 5.48642 28.5573 7.10763C28.5636 8.79076 29.2323 9.62915 30.4744 9.62915H30.4728Z" fill="#253858"/>
<path d="M40.805 10.747C39.0337 10.747 38.2114 10.3976 37.5 10.034V8.74944C38.3508 9.19722 39.6611 9.51797 40.8732 9.51797C42.2532 9.51797 42.7744 8.97333 42.7744 8.16193C42.7744 7.35054 42.2722 6.91864 40.5294 6.49944C38.4696 5.99609 37.5459 5.28314 37.5459 3.77468C37.5459 2.3456 38.6328 1.28809 40.767 1.28809C42.0916 1.28809 42.9424 1.60566 43.5698 1.95816V3.21575C42.6976 2.73408 41.7135 2.49299 40.7179 2.51709C39.5185 2.51709 38.8071 2.93629 38.8071 3.77468C38.8071 4.52891 39.3933 4.90682 41.0094 5.31172C42.9471 5.80079 44.0356 6.42323 44.0356 8.07778C44.0261 9.6704 43.0786 10.747 40.805 10.747Z" fill="#253858"/>
<path d="M45.0859 7.09969C45.0859 5.00371 46.3123 3.48096 48.4037 3.48096C50.4951 3.48096 51.6944 5.00371 51.6944 7.09969C51.6944 9.19567 50.4808 10.7518 48.4037 10.7518C46.3265 10.7518 45.0859 9.19567 45.0859 7.09969ZM46.2568 7.09969C46.2568 8.42714 46.9127 9.62915 48.4037 9.62915C49.8946 9.62915 50.5236 8.42714 50.5236 7.09969C50.5236 5.77224 49.8819 4.60516 48.4037 4.60516C46.9254 4.60516 46.2631 5.77224 46.2631 7.09969H46.2568Z" fill="#253858"/>
<path d="M54.7477 3.62057H56.546V4.73207H54.7477V10.6072H53.5768V4.73207H52.4424V3.62057H53.5721V2.8584C53.5721 1.55953 54.2977 0.678268 55.7902 0.678268C56.0634 0.676741 56.3355 0.714166 56.5982 0.789418V1.90092C56.3502 1.85364 56.0982 1.83025 55.8457 1.83105C55.1073 1.83105 54.7366 2.26454 54.7366 2.89333L54.7477 3.62057Z" fill="#253858"/>
<path d="M60.6033 9.43355C60.8568 9.42597 61.109 9.39299 61.3559 9.3351V10.4942C61.0932 10.5696 60.8211 10.607 60.5479 10.6054C59.0554 10.6054 58.3297 9.72571 58.3297 8.42526V4.73824H57.1953V3.62674H58.325V2.13892H59.4958V3.62039H61.3496V4.73189H59.4958V8.39985C59.5022 9.01435 59.865 9.43355 60.6033 9.43355Z" fill="#253858"/>
<path d="M61.6924 3.62061H63.0169L65.0244 9.54491L67.0587 3.62061H68.2026L70.2386 9.54491L72.2476 3.62061H73.5722L71.007 10.6072H69.4733L68.2739 7.22664L67.6402 5.07509L67.0064 7.22664L65.7912 10.6072H64.2575L61.6924 3.62061Z" fill="#253858"/>
<path d="M79.0488 9.34969C78.602 10.2722 77.7655 10.747 76.6928 10.747C74.8391 10.747 73.9043 9.16867 73.9043 7.11398C73.9043 5.14345 74.8803 3.48096 76.8323 3.48096C77.8494 3.48096 78.6305 3.94144 79.0504 4.84969V3.62069H80.2498V10.6073H79.0504L79.0488 9.34969ZM77.0129 9.62915C78.0871 9.62915 79.0488 8.94479 79.0488 7.39345V6.82817C79.0488 5.27683 78.1711 4.59246 77.1475 4.59246C75.8008 4.60516 75.0989 5.49278 75.0989 7.11398C75.0989 8.79076 75.7723 9.62915 77.0145 9.62915H77.0129Z" fill="#253858"/>
<path d="M82.061 3.62038H83.2319V4.84939C83.6359 4.02529 84.341 3.43778 85.7004 3.52193V4.69536C84.1667 4.53658 83.2319 5.00341 83.2319 6.4833V10.6117H82.061V3.62038Z" fill="#253858"/>
<path d="M89.9246 10.7466C87.3167 10.7466 86.1743 9.23818 86.1743 7.09456C86.1743 4.9843 87.3452 3.47583 89.4651 3.47583C91.6119 3.47583 92.4754 4.97159 92.4754 7.09456V7.6392H87.388C87.5559 8.82692 88.3228 9.59544 89.9673 9.59544C90.6906 9.59478 91.4081 9.46687 92.0873 9.21753V10.329C91.5153 10.6387 90.636 10.7466 89.9246 10.7466ZM87.3737 6.61821H91.2602C91.1905 5.31934 90.6043 4.57781 89.4065 4.57781C88.1405 4.57145 87.4989 5.39873 87.3737 6.61027V6.61821Z" fill="#253858"/>
<path d="M11.4706 5.67819L6.30546 0.501764L5.80479 0L1.9167 3.89661L0.139008 5.67819C0.0499968 5.76751 0 5.88858 0 6.01482C0 6.14105 0.0499968 6.26212 0.139008 6.35144L3.69121 9.91142L5.80479 12.0296L9.69289 8.13302L9.7531 8.07268L11.4706 6.35144C11.5596 6.26212 11.6096 6.14105 11.6096 6.01482C11.6096 5.88858 11.5596 5.76751 11.4706 5.67819ZM5.80479 7.79322L4.03027 6.01482L5.80479 4.23641L7.57931 6.01482L5.80479 7.79322Z" fill="#2684FF"/>
<path d="M5.80471 4.23653C5.2466 3.67713 4.93201 2.91914 4.92964 2.12808C4.92726 1.33703 5.23729 0.577158 5.79204 0.0144043L1.90869 3.90466L4.02227 6.02287L5.80471 4.23653Z" fill="url(#paint0_linear_1813:621)"/>
<path d="M7.58396 6.0105L5.80469 7.79367C6.08235 8.07177 6.30262 8.40199 6.4529 8.76544C6.60318 9.12889 6.68053 9.51845 6.68053 9.91187C6.68053 10.3053 6.60318 10.6949 6.4529 11.0583C6.30262 11.4218 6.08235 11.752 5.80469 12.0301L9.69754 8.1287L7.58396 6.0105Z" fill="url(#paint1_linear_1813:621)"/>
<defs>
<linearGradient id="paint0_linear_1813:621" x1="5.48783" y1="2.43748" x2="3.00443" y2="4.91546" gradientUnits="userSpaceOnUse">
<stop offset="0.18" stop-color="#0052CC"/>
<stop offset="1" stop-color="#2684FF"/>
</linearGradient>
<linearGradient id="paint1_linear_1813:621" x1="156.769" y1="368.871" x2="242.465" y2="313.452" gradientUnits="userSpaceOnUse">
<stop offset="0.18" stop-color="#0052CC"/>
<stop offset="1" stop-color="#2684FF"/>
</linearGradient>
</defs>
</svg>
