<svg width="74" height="45" viewBox="0 0 74 45" fill="none" xmlns="http://www.w3.org/2000/svg">
<path d="M17.4424 11.5941H31.3847V12.6987H18.7204V21.0124H30.6295V22.117H18.7204V31.2446H31.5299V32.3492H17.4424V11.5941ZM32.6337 11.5941H34.1151L40.6796 20.7217L47.3893 11.5941L56.5157 0L41.5219 21.681L49.2483 32.3492H47.7089L40.6796 22.6402L33.6213 32.3492H32.1109L39.8953 21.681L32.6337 11.5941ZM49.8002 12.6987V11.5941H65.6887V12.6987H58.3689V32.3492H57.0909V12.6987H49.8002Z" fill="black"/>
<path d="M0 11.594H1.59756L23.627 44.4535L14.5233 32.3491L1.33614 13.1637L1.27805 32.3491H0V11.594Z" fill="black"/>
<path d="M65.5605 30.9111C65.8247 30.9111 66.0174 30.7094 66.0174 30.4488C66.0174 30.1882 65.8247 29.9865 65.5605 29.9865C65.2994 29.9865 65.1035 30.1882 65.1035 30.4488C65.1035 30.7094 65.2994 30.9111 65.5605 30.9111ZM66.8163 29.6949C66.8163 30.4643 67.3727 30.9669 68.184 30.9669C69.0482 30.9669 69.5704 30.4488 69.5704 29.549V26.3813H68.8741V29.5459C68.8741 30.0455 68.6223 30.3123 68.1778 30.3123C67.7799 30.3123 67.5095 30.0641 67.5002 29.6949H66.8163ZM70.4812 29.6545C70.531 30.455 71.1993 30.9669 72.194 30.9669C73.2571 30.9669 73.9223 30.4302 73.9223 29.5739C73.9223 28.9006 73.5431 28.5283 72.623 28.3142L72.1287 28.1932C71.5443 28.0567 71.3081 27.8736 71.3081 27.5541C71.3081 27.1507 71.6749 26.887 72.2251 26.887C72.7473 26.887 73.1079 27.1445 73.1732 27.5572H73.8508C73.8104 26.8032 73.1452 26.2727 72.2344 26.2727C71.2552 26.2727 70.6025 26.8032 70.6025 27.6006C70.6025 28.2584 70.9724 28.6493 71.7837 28.8386L72.3619 28.9782C72.9556 29.1178 73.2167 29.3226 73.2167 29.6638C73.2167 30.061 72.8064 30.3495 72.2469 30.3495C71.6469 30.3495 71.2304 30.0796 71.1713 29.6545H70.4812Z" fill="black"/>
</svg>
