<svg width="86" height="53" viewBox="0 0 86 53" fill="none" xmlns="http://www.w3.org/2000/svg">
<g clip-path="url(#clip0_1813:769)">
<path d="M42.5148 52.8471C42.2237 52.8471 41.952 52.7692 41.6995 52.6326L39.118 51.0916C38.7297 50.8769 38.9239 50.7989 39.0405 50.7599C39.5644 50.5844 39.6615 50.5452 40.205 50.2333C40.2633 50.1941 40.341 50.2137 40.3991 50.2527L42.3791 51.4426C42.4567 51.4816 42.5537 51.4816 42.6118 51.4426L50.3567 46.9363C50.4343 46.8973 50.4732 46.8192 50.4732 46.7218V37.7286C50.4732 37.6309 50.4343 37.5531 50.3567 37.5139L42.6118 33.0272C42.5342 32.988 42.4372 32.988 42.3791 33.0272L34.6342 37.5139C34.5566 37.5529 34.5177 37.6505 34.5177 37.7285V46.7216C34.5177 46.7997 34.5566 46.8971 34.6342 46.9363L36.75 48.1653C37.8952 48.7504 38.6134 48.0677 38.6134 47.3849V38.5088C38.6134 38.3918 38.7104 38.2747 38.8463 38.2747H39.8362C39.9527 38.2747 40.0691 38.3722 40.0691 38.5088V47.3849C40.0691 48.926 39.2344 49.8234 37.7787 49.8234C37.3323 49.8234 36.9829 49.8234 35.9929 49.3356L33.9549 48.1653C33.4502 47.8727 33.1396 47.3264 33.1396 46.7412V37.7481C33.1396 37.1629 33.4502 36.6165 33.9549 36.324L41.6995 31.8176C42.1849 31.5445 42.8449 31.5445 43.3301 31.8176L51.0748 36.324C51.5795 36.6165 51.8902 37.1629 51.8902 37.7481V46.7412C51.8902 47.3264 51.5795 47.8727 51.0748 48.1653L43.3301 52.6716C43.0777 52.7887 42.7867 52.8471 42.5149 52.8471H42.5148ZM44.9023 46.6632C41.5056 46.6632 40.8067 45.1026 40.8067 43.776C40.8067 43.6589 40.9038 43.5419 41.0397 43.5419H42.049C42.1654 43.5419 42.2625 43.6199 42.2625 43.7371C42.4179 44.7709 42.8643 45.2781 44.9218 45.2781C46.5522 45.2781 47.2512 44.9074 47.2512 44.0296C47.2512 43.5224 47.0569 43.1519 44.5142 42.8982C42.3984 42.6835 41.0785 42.2154 41.0785 40.5182C41.0785 38.938 42.3985 38.0016 44.6112 38.0016C47.0957 38.0016 48.3187 38.86 48.474 40.7326C48.474 40.7913 48.4545 40.8497 48.4157 40.9083C48.3768 40.9473 48.3187 40.9863 48.2604 40.9863H47.251C47.154 40.9863 47.0569 40.9083 47.0376 40.8107C46.8046 39.7379 46.2029 39.3867 44.6112 39.3867C42.8255 39.3867 42.6118 40.011 42.6118 40.4791C42.6118 41.0449 42.8643 41.2204 45.2711 41.5325C47.6586 41.8447 48.7845 42.2934 48.7845 43.971C48.7651 45.6878 47.3676 46.6632 44.9023 46.6632Z" fill="#539E43"/>
<path d="M18.4854 17.6744C18.4854 17.3233 18.2913 16.9914 17.9808 16.8159L9.7507 12.056C9.61467 11.9779 9.45948 11.9389 9.3043 11.9193H9.22654C9.07136 11.9193 8.91601 11.9779 8.78014 12.056L0.550089 16.8159C0.239388 16.9914 0.0454102 17.3231 0.0454102 17.6744L0.0648919 30.4715C0.0648919 30.647 0.161965 30.8226 0.317148 30.9007C0.472498 30.9983 0.666476 30.9983 0.802513 30.9007L5.69395 28.0916C6.00449 27.916 6.19863 27.5843 6.19863 27.2333V21.2443C6.19863 20.8932 6.39261 20.5615 6.70331 20.386L8.78014 19.1764C8.93549 19.0789 9.11016 19.0397 9.28482 19.0397C9.45948 19.0397 9.63415 19.0789 9.77018 19.1764L11.847 20.386C12.1577 20.5615 12.3517 20.893 12.3517 21.2443V27.2333C12.3517 27.5843 12.5458 27.916 12.8564 28.0916L17.7478 30.9007C17.9032 30.9983 18.0971 30.9983 18.2525 30.9007C18.4078 30.8226 18.5049 30.647 18.5049 30.4715L18.4854 17.6744ZM58.0441 0.0586123C57.8889 -0.0195374 57.6947 -0.0195374 57.5587 0.0586123C57.4035 0.156173 57.3064 0.312135 57.3064 0.487676V13.168C57.3064 13.285 57.2483 13.402 57.1318 13.4801C57.0154 13.5385 56.8988 13.5385 56.7824 13.4801L54.7249 12.2901C54.5741 12.2038 54.4035 12.1584 54.2299 12.1584C54.0563 12.1584 53.8857 12.2038 53.7349 12.2901L45.5048 17.0696C45.1943 17.2451 45.0002 17.5768 45.0002 17.9279V27.4672C45.0002 27.8183 45.1943 28.1501 45.5048 28.3257L53.7349 33.1051C53.8857 33.1914 54.0563 33.2368 54.2299 33.2368C54.4035 33.2368 54.5741 33.1914 54.7249 33.1051L62.955 28.3257C63.2655 28.1501 63.4597 27.8185 63.4597 27.4672V3.68709C63.4597 3.31642 63.2655 2.98492 62.955 2.80921L58.0442 0.0586123H58.0441ZM57.2871 24.3265C57.2871 24.4241 57.2483 24.5021 57.1706 24.5411L54.3561 26.1797C54.3168 26.1989 54.2736 26.209 54.2299 26.209C54.1862 26.209 54.143 26.1989 54.1037 26.1797L51.2892 24.5411C51.2115 24.5021 51.1727 24.4045 51.1727 24.3265V21.0491C51.1727 20.9516 51.2115 20.8736 51.2892 20.8346L54.1037 19.1958C54.143 19.1766 54.1862 19.1665 54.2299 19.1665C54.2736 19.1665 54.3168 19.1766 54.3561 19.1958L57.1706 20.8346C57.2483 20.8734 57.2871 20.9712 57.2871 21.0491V24.3265ZM85.4323 20.9712C85.743 20.7956 85.9176 20.4639 85.9176 20.1127V17.7913C85.9176 17.4402 85.7235 17.1086 85.4323 16.933L77.2605 12.1732C77.1097 12.0869 76.9391 12.0415 76.7656 12.0415C76.592 12.0415 76.4214 12.0869 76.2706 12.1732L68.0406 16.9524C67.7299 17.128 67.5359 17.4597 67.5359 17.8109V27.3502C67.5359 27.7013 67.7299 28.033 68.0406 28.2085L76.2123 32.8904C76.523 33.066 76.8917 33.066 77.1829 32.8904L82.1325 30.1206C82.2878 30.0424 82.3849 29.8669 82.3849 29.6913C82.3849 29.5158 82.2878 29.3403 82.1325 29.2621L73.8636 24.4827C73.7084 24.3853 73.6114 24.2291 73.6114 24.0536V21.0689C73.6114 20.8933 73.7084 20.7178 73.8636 20.6397L76.4453 19.157C76.5209 19.1092 76.6083 19.0839 76.6976 19.0839C76.7869 19.0839 76.8744 19.1092 76.95 19.157L79.5315 20.6397C79.6868 20.7372 79.7839 20.8932 79.7839 21.0689V23.4098C79.7839 23.5854 79.881 23.7609 80.0361 23.8389C80.1915 23.9365 80.3855 23.9365 80.5408 23.8389L85.4323 20.9712Z" fill="#333333"/>
<path d="M76.6386 20.5226C76.6674 20.5036 76.7011 20.4934 76.7356 20.4934C76.7701 20.4934 76.8038 20.5036 76.8326 20.5226L78.4049 21.4395C78.4632 21.4783 78.502 21.5369 78.502 21.615V23.4488C78.502 23.5267 78.4632 23.5853 78.4049 23.6243L76.8326 24.5412C76.8038 24.5602 76.7701 24.5704 76.7356 24.5704C76.7011 24.5704 76.6674 24.5602 76.6386 24.5412L75.0663 23.6243C75.008 23.5853 74.9692 23.5267 74.9692 23.4488V21.615C74.9692 21.5369 75.008 21.4783 75.0663 21.4395L76.6386 20.5226Z" fill="#539E43"/>
<mask id="mask0_1813:769" style="mask-type:alpha" maskUnits="userSpaceOnUse" x="22" y="12" width="19" height="22">
<path d="M32.2466 12.2122C32.0958 12.1259 31.9252 12.0806 31.7517 12.0806C31.5781 12.0806 31.4076 12.1259 31.2567 12.2122L23.085 16.9524C22.7743 17.1279 22.5996 17.4596 22.5996 17.8106V27.3112C22.5996 27.6622 22.7938 27.9939 23.085 28.1694L31.2567 32.9099C31.4076 32.9962 31.5781 33.0416 31.7517 33.0416C31.9252 33.0416 32.0958 32.9962 32.2466 32.9099L40.4186 28.1694C40.7291 27.9939 40.9039 27.6622 40.9039 27.3112V17.8108C40.9039 17.4597 40.7096 17.1281 40.4186 16.9525L32.2466 12.2122Z" fill="white"/>
</mask>
<g mask="url(#mask0_1813:769)">
<path d="M32.2466 12.2122C32.0958 12.1259 31.9252 12.0806 31.7517 12.0806C31.5781 12.0806 31.4076 12.1259 31.2567 12.2122L23.085 16.9524C22.7743 17.1279 22.5996 17.4596 22.5996 17.8106V27.3112C22.5996 27.6622 22.7938 27.9939 23.085 28.1694L31.2567 32.9099C31.4076 32.9962 31.5781 33.0416 31.7517 33.0416C31.9252 33.0416 32.0958 32.9962 32.2466 32.9099L40.4186 28.1694C40.7291 27.9939 40.9039 27.6622 40.9039 27.3112V17.8108C40.9039 17.4597 40.7096 17.1281 40.4186 16.9525L32.2466 12.2122Z" fill="url(#paint0_linear_1813:769)"/>
<path d="M40.438 16.9531L32.2274 12.2128C32.1468 12.1719 32.0622 12.1392 31.975 12.1152L22.7744 27.9558C22.8506 28.0493 22.9427 28.1286 23.0463 28.1899L31.2569 32.9304C31.4898 33.0669 31.7616 33.1059 32.0138 33.0278L40.6516 17.1484C40.5934 17.0704 40.5156 17.0117 40.438 16.9533V16.9531Z" fill="url(#paint1_linear_1813:769)"/>
<path fill-rule="evenodd" clip-rule="evenodd" d="M40.457 28.1694C40.69 28.0329 40.8646 27.7988 40.9424 27.5452L31.9356 12.0949C31.7027 12.0559 31.4502 12.0753 31.2369 12.2119L23.0845 16.9329L31.8773 33.0464C32.0052 33.0254 32.1294 32.986 32.2461 32.9295L40.4569 28.1696L40.457 28.1694Z" fill="url(#paint2_linear_1813:769)"/>
<path fill-rule="evenodd" clip-rule="evenodd" d="M40.457 28.1696L32.2658 32.9101C32.1501 32.9694 32.0255 33.0089 31.897 33.0271L32.0523 33.3198L41.1364 28.0333V27.9161L40.9034 27.5259C40.8646 27.799 40.69 28.0331 40.457 28.1696Z" fill="url(#paint3_linear_1813:769)"/>
<path fill-rule="evenodd" clip-rule="evenodd" d="M40.457 28.1696L32.2658 32.9101C32.1501 32.9694 32.0255 33.0089 31.897 33.0271L32.0523 33.3198L41.1364 28.0333V27.9161L40.9034 27.5259C40.8646 27.799 40.69 28.0331 40.457 28.1696Z" fill="url(#paint4_linear_1813:769)"/>
</g>
</g>
<defs>
<linearGradient id="paint0_linear_1813:769" x1="35.081" y1="15.746" x2="26.0599" y2="29.8499" gradientUnits="userSpaceOnUse">
<stop stop-color="#41873F"/>
<stop offset="0.3288" stop-color="#418B3D"/>
<stop offset="0.6352" stop-color="#419637"/>
<stop offset="0.9319" stop-color="#3FA92D"/>
<stop offset="1" stop-color="#3FAE2A"/>
</linearGradient>
<linearGradient id="paint1_linear_1813:769" x1="30.5111" y1="23.6745" x2="52.9947" y2="11.5201" gradientUnits="userSpaceOnUse">
<stop offset="0.1376" stop-color="#41873F"/>
<stop offset="0.4032" stop-color="#54A044"/>
<stop offset="0.7136" stop-color="#66B848"/>
<stop offset="0.9081" stop-color="#6CC04A"/>
</linearGradient>
<linearGradient id="paint2_linear_1813:769" x1="22.3007" y1="22.5612" x2="41.2101" y2="22.5612" gradientUnits="userSpaceOnUse">
<stop offset="0.09192" stop-color="#6CC04A"/>
<stop offset="0.2864" stop-color="#66B848"/>
<stop offset="0.5968" stop-color="#54A044"/>
<stop offset="0.8624" stop-color="#41873F"/>
</linearGradient>
<linearGradient id="paint3_linear_1813:769" x1="22.3008" y1="30.4388" x2="41.21" y2="30.4388" gradientUnits="userSpaceOnUse">
<stop offset="0.09192" stop-color="#6CC04A"/>
<stop offset="0.2864" stop-color="#66B848"/>
<stop offset="0.5968" stop-color="#54A044"/>
<stop offset="0.8624" stop-color="#41873F"/>
</linearGradient>
<linearGradient id="paint4_linear_1813:769" x1="43.9648" y1="15.2968" x2="39.1279" y2="40.5157" gradientUnits="userSpaceOnUse">
<stop stop-color="#41873F"/>
<stop offset="0.3288" stop-color="#418B3D"/>
<stop offset="0.6352" stop-color="#419637"/>
<stop offset="0.9319" stop-color="#3FA92D"/>
<stop offset="1" stop-color="#3FAE2A"/>
</linearGradient>
<clipPath id="clip0_1813:769">
<rect width="86" height="53" fill="white"/>
</clipPath>
</defs>
</svg>
