<svg width="50" height="59" viewBox="0 0 50 59" fill="none" xmlns="http://www.w3.org/2000/svg">
<g clip-path="url(#clip0_1813:687)">
<path d="M43.7882 11.268C43.7426 10.9851 43.5143 10.7965 43.286 10.7965C43.0576 10.7965 39.0394 10.7022 39.0394 10.7022C39.0394 10.7022 35.6604 7.30777 35.3407 6.97776C35.0211 6.64774 34.3362 6.74203 34.1079 6.83632C34.1079 6.83632 33.4686 7.0249 32.4184 7.35492C32.2357 6.74203 31.9618 6.03485 31.5965 5.28053C30.4092 2.92328 28.6284 1.65036 26.528 1.65036C26.391 1.65036 26.254 1.65036 26.0713 1.6975C26.0257 1.60321 25.9344 1.55607 25.8887 1.46178C24.9755 0.424586 23.7882 -0.0468648 22.3727 0.000280338C19.633 0.0945705 16.8933 2.12181 14.7015 5.75198C13.149 8.29782 11.9618 11.5037 11.5965 14.0024C8.44577 14.9924 6.25399 15.6996 6.20833 15.7467C4.61016 16.2653 4.56449 16.3125 4.38184 17.8683C4.24486 19.0469 0.0439453 52.2842 0.0439453 52.2842L34.9298 58.5074L50.0439 54.6415C49.9983 54.5943 43.8339 11.5508 43.7882 11.268ZM30.6832 7.92066C29.8613 8.15638 28.9481 8.4864 27.9892 8.76927C27.9892 7.35492 27.8065 5.32768 27.1672 3.63045C29.222 4.05476 30.2266 6.45916 30.6832 7.92066ZM26.117 9.38216C24.2905 9.9479 22.2814 10.6079 20.2723 11.2208C20.8202 9.005 21.9161 6.78918 23.1946 5.32768C23.6969 4.80908 24.3818 4.1962 25.1581 3.81903C25.98 5.46911 26.1627 7.77922 26.117 9.38216ZM22.4184 1.88608C23.0576 1.88608 23.6056 2.02752 24.0622 2.31039C23.3316 2.7347 22.601 3.30044 21.9161 4.05476C20.1809 5.98771 18.8567 9.005 18.3088 11.8808C16.6649 12.3994 15.0211 12.918 13.5143 13.3895C14.4732 8.86356 18.1718 2.02752 22.4184 1.88608Z" fill="#95BF47"/>
<path d="M43.2876 10.7964C43.0593 10.7964 39.041 10.7021 39.041 10.7021C39.041 10.7021 35.662 7.30768 35.3424 6.97767C35.2054 6.83623 35.0684 6.78909 34.8857 6.74194V58.4601L49.9999 54.5942C49.9999 54.5942 43.8355 11.5507 43.7899 11.2207C43.7442 10.985 43.5159 10.7964 43.2876 10.7964Z" fill="#5E8E3E"/>
<path d="M26.4841 18.811L24.749 25.5999C24.749 25.5999 22.7855 24.657 20.4567 24.8456C17.0321 25.0813 17.0321 27.2972 17.0321 27.8629C17.2147 30.8802 24.9316 31.5402 25.3883 38.6591C25.7079 44.2694 22.5115 48.0881 17.8997 48.371C12.3289 48.7482 9.26953 45.3537 9.26953 45.3537L10.4567 40.1678C10.4567 40.1678 13.5161 42.5722 15.9819 42.3836C17.58 42.2893 18.1736 40.9221 18.128 39.9792C17.8997 36.019 11.5983 36.2547 11.1873 29.7487C10.8677 24.2799 14.338 18.7167 22.0093 18.2453C24.9773 18.0096 26.4841 18.811 26.4841 18.811Z" fill="white"/>
</g>
<defs>
<clipPath id="clip0_1813:687">
<rect width="50" height="58.6956" fill="white"/>
</clipPath>
</defs>
</svg>
