<svg width="460" height="215" viewBox="0 0 460 215" fill="none" xmlns="http://www.w3.org/2000/svg">
<path d="M194.639 102.289H90.125C89.9696 102.289 89.8157 102.259 89.672 102.199C89.5284 102.14 89.3979 102.052 89.288 101.942C89.1781 101.832 89.0909 101.702 89.0314 101.558C88.972 101.414 88.9414 101.26 88.9414 101.105V59.2606C88.9414 59.105 88.972 58.951 89.0314 58.8072C89.0909 58.6635 89.1781 58.5328 89.288 58.4228C89.3979 58.3128 89.5284 58.2255 89.672 58.166C89.8157 58.1065 89.9696 58.0759 90.125 58.0759H194.639C194.795 58.0758 194.949 58.1064 195.092 58.1659C195.236 58.2254 195.366 58.3127 195.476 58.4227C195.586 58.5327 195.673 58.6634 195.733 58.8072C195.792 58.9509 195.823 59.105 195.823 59.2606V101.105C195.823 101.26 195.792 101.414 195.733 101.558C195.673 101.702 195.586 101.832 195.476 101.942C195.366 102.052 195.236 102.14 195.092 102.199C194.949 102.259 194.795 102.289 194.639 102.289ZM91.3086 99.9198H193.456V60.4453H91.3086V99.9198Z" fill="white"/>
<path d="M134.544 129.75H90.125C89.9696 129.75 89.8157 129.719 89.672 129.66C89.5284 129.6 89.3979 129.513 89.288 129.403C89.1781 129.293 89.0909 129.162 89.0314 129.019C88.972 128.875 88.9414 128.721 88.9414 128.565V110.781C88.9414 110.625 88.972 110.471 89.0314 110.327C89.0909 110.184 89.1781 110.053 89.288 109.943C89.3979 109.833 89.5284 109.746 89.672 109.686C89.8157 109.627 89.9696 109.596 90.125 109.596H134.544C134.699 109.596 134.853 109.627 134.997 109.686C135.14 109.746 135.271 109.833 135.381 109.943C135.491 110.053 135.578 110.184 135.637 110.327C135.697 110.471 135.727 110.625 135.727 110.781V128.565C135.727 128.721 135.697 128.875 135.637 129.019C135.578 129.163 135.491 129.293 135.381 129.403C135.271 129.513 135.14 129.6 134.997 129.66C134.853 129.719 134.699 129.75 134.544 129.75ZM91.3086 127.381H133.36V111.966H91.3086V127.381Z" fill="white"/>
<path d="M194.64 129.75H150.221C150.066 129.75 149.912 129.719 149.768 129.66C149.625 129.6 149.494 129.513 149.384 129.403C149.274 129.293 149.187 129.163 149.128 129.019C149.068 128.875 149.038 128.721 149.038 128.565V110.781C149.038 110.625 149.068 110.471 149.128 110.327C149.187 110.184 149.274 110.053 149.384 109.943C149.494 109.833 149.625 109.746 149.768 109.686C149.912 109.627 150.066 109.596 150.221 109.596H194.64C194.795 109.596 194.949 109.627 195.093 109.686C195.236 109.746 195.367 109.833 195.477 109.943C195.587 110.053 195.674 110.184 195.733 110.327C195.793 110.471 195.823 110.625 195.823 110.781V128.565C195.823 128.721 195.793 128.875 195.733 129.019C195.674 129.163 195.587 129.293 195.477 129.403C195.367 129.513 195.236 129.6 195.093 129.66C194.949 129.719 194.795 129.75 194.64 129.75ZM151.405 127.381H193.456V111.966H151.405V127.381Z" fill="white"/>
<path d="M193.334 100.982C193.186 100.981 193.04 100.954 192.902 100.899L89.6939 60.3629C89.5493 60.3061 89.4172 60.2213 89.3053 60.1134C89.1933 60.0055 89.1038 59.8766 89.0416 59.734C88.9795 59.5915 88.946 59.438 88.9431 59.2825C88.9402 59.127 88.9679 58.9725 89.0247 58.8277C89.0814 58.6829 89.1661 58.5507 89.274 58.4387C89.3818 58.3267 89.5105 58.237 89.653 58.1748C89.7954 58.1126 89.9487 58.079 90.1041 58.0761C90.2594 58.0732 90.4138 58.101 90.5585 58.1578L193.766 98.6944C194.023 98.7952 194.236 98.9826 194.37 99.2241C194.503 99.4656 194.548 99.7461 194.497 100.017C194.446 100.288 194.301 100.533 194.089 100.709C193.877 100.885 193.61 100.982 193.334 100.982Z" fill="white"/>
<path d="M90.1258 102.289C89.8506 102.289 89.584 102.193 89.3718 102.018C89.1596 101.843 89.015 101.599 88.9628 101.329C88.9107 101.058 88.9543 100.778 89.0862 100.536C89.2181 100.295 89.4299 100.106 89.6854 100.004L194.2 58.1601C194.491 58.0444 194.817 58.049 195.105 58.173C195.393 58.2971 195.62 58.5304 195.736 58.8217C195.852 59.1131 195.848 59.4388 195.725 59.7273C195.602 60.0158 195.369 60.2435 195.078 60.3606L90.565 102.205C90.4253 102.26 90.2763 102.289 90.1258 102.289Z" fill="white"/>
<path d="M133.892 129.096C133.743 129.096 133.596 129.068 133.458 129.014L90.3451 112.014C90.0535 111.899 89.8196 111.672 89.6949 111.384C89.5701 111.096 89.5646 110.77 89.6796 110.478C89.7946 110.186 90.0206 109.952 90.3081 109.826C90.5956 109.701 90.9211 109.695 91.2131 109.809L134.325 126.809C134.582 126.91 134.795 127.098 134.928 127.339C135.061 127.581 135.106 127.861 135.055 128.132C135.003 128.403 134.859 128.648 134.647 128.824C134.434 129 134.167 129.096 133.892 129.096Z" fill="white"/>
<path d="M90.7789 129.096C90.5007 129.097 90.2312 128.998 90.018 128.819C89.8048 128.64 89.6615 128.392 89.6132 128.118C89.5649 127.843 89.6147 127.561 89.754 127.319C89.8932 127.078 90.1128 126.894 90.3744 126.799L133.487 111.107C133.633 111.053 133.788 111.029 133.944 111.035C134.1 111.041 134.253 111.078 134.394 111.144C134.535 111.21 134.663 111.303 134.768 111.418C134.873 111.532 134.955 111.667 135.008 111.814C135.061 111.96 135.085 112.116 135.078 112.272C135.071 112.427 135.034 112.58 134.967 112.721C134.901 112.863 134.808 112.989 134.693 113.094C134.577 113.199 134.443 113.281 134.296 113.333L91.1835 129.025C91.0539 129.072 90.9169 129.096 90.7789 129.096Z" fill="white"/>
<path d="M193.987 129.096C193.845 129.096 193.704 129.07 193.571 129.021L151.765 113.329C151.471 113.219 151.233 112.996 151.104 112.71C150.974 112.424 150.963 112.098 151.073 111.803C151.183 111.509 151.406 111.271 151.692 111.141C151.978 111.011 152.304 111 152.598 111.11L194.403 126.802C194.663 126.899 194.88 127.085 195.017 127.326C195.154 127.568 195.201 127.85 195.152 128.123C195.102 128.396 194.959 128.643 194.746 128.821C194.533 128.999 194.264 129.096 193.987 129.096Z" fill="white"/>
<path d="M152.182 127.789C151.902 127.789 151.631 127.689 151.418 127.508C151.204 127.327 151.061 127.076 151.015 126.8C150.969 126.523 151.022 126.24 151.165 125.999C151.309 125.758 151.532 125.576 151.797 125.484L193.602 111.1C193.75 111.049 193.905 111.027 194.061 111.036C194.216 111.045 194.369 111.085 194.509 111.153C194.649 111.221 194.774 111.316 194.878 111.433C194.981 111.55 195.06 111.686 195.111 111.833C195.162 111.981 195.183 112.137 195.173 112.292C195.163 112.448 195.123 112.6 195.054 112.74C194.986 112.88 194.89 113.005 194.773 113.108C194.656 113.211 194.52 113.29 194.372 113.34L152.567 127.724C152.443 127.767 152.313 127.789 152.182 127.789Z" fill="white"/>
<path d="M25.6193 35.541C22.1078 35.541 18.6753 34.4988 15.7557 32.5461C12.836 30.5935 10.5604 27.8181 9.21668 24.571C7.87292 21.3238 7.52134 17.7508 8.20638 14.3036C8.89143 10.8565 10.5823 7.6901 13.0653 5.20486C15.5482 2.71961 18.7117 1.02714 22.1556 0.341461C25.5996 -0.344216 29.1693 0.00770438 32.4134 1.35271C35.6575 2.69772 38.4303 4.97541 40.3812 7.89775C42.332 10.8201 43.3733 14.2558 43.3733 17.7705C43.368 22.4819 41.4959 26.9989 38.1675 30.3303C34.8391 33.6618 30.3263 35.5357 25.6193 35.541ZM25.6193 2.36941C22.576 2.36941 19.6011 3.27267 17.0708 4.96496C14.5404 6.65726 12.5683 9.06257 11.4037 11.8768C10.2391 14.6909 9.93438 17.7876 10.5281 20.7751C11.1218 23.7626 12.5872 26.5068 14.7391 28.6607C16.891 30.8146 19.6327 32.2814 22.6174 32.8757C25.6022 33.4699 28.6959 33.1649 31.5075 31.9993C34.3191 30.8336 36.7222 28.8596 38.4129 26.3269C40.1036 23.7942 41.0061 20.8165 41.0061 17.7705C41.0015 13.6873 39.3789 9.77266 36.4943 6.8854C33.6097 3.99813 29.6987 2.37403 25.6193 2.36941Z" fill="white"/>
<path d="M142.796 35.541C139.285 35.541 135.852 34.4988 132.932 32.5461C130.013 30.5935 127.737 27.8181 126.393 24.571C125.05 21.3238 124.698 17.7508 125.383 14.3036C126.068 10.8565 127.759 7.6901 130.242 5.20486C132.725 2.71961 135.888 1.02714 139.332 0.341461C142.776 -0.344216 146.346 0.00770438 149.59 1.35271C152.834 2.69772 155.607 4.97541 157.558 7.89775C159.509 10.8201 160.55 14.2558 160.55 17.7705C160.545 22.4819 158.673 26.9989 155.344 30.3304C152.016 33.6619 147.503 35.5358 142.796 35.541ZM142.796 2.36941C139.753 2.3694 136.778 3.27266 134.248 4.96495C131.717 6.65724 129.745 9.06256 128.58 11.8767C127.416 14.6909 127.111 17.7876 127.705 20.7751C128.299 23.7626 129.764 26.5068 131.916 28.6607C134.068 30.8146 136.809 32.2814 139.794 32.8757C142.779 33.4699 145.873 33.1649 148.684 31.9993C151.496 30.8336 153.899 28.8596 155.59 26.3269C157.28 23.7942 158.183 20.8166 158.183 17.7705C158.178 13.6873 156.556 9.77275 153.671 6.88551C150.786 3.99827 146.875 2.37414 142.796 2.36941Z" fill="white"/>
<path d="M288.379 35.541C284.868 35.541 281.435 34.4988 278.515 32.5461C275.596 30.5935 273.32 27.8181 271.976 24.571C270.633 21.3238 270.281 17.7508 270.966 14.3036C271.651 10.8565 273.342 7.6901 275.825 5.20486C278.308 2.71961 281.471 1.02714 284.915 0.341461C288.359 -0.344216 291.929 0.00770438 295.173 1.35271C298.417 2.69772 301.19 4.97541 303.141 7.89775C305.092 10.8201 306.133 14.2558 306.133 17.7705C306.128 22.4819 304.256 26.999 300.927 30.3305C297.599 33.6619 293.086 35.5358 288.379 35.541ZM288.379 2.36941C285.336 2.3694 282.361 3.27266 279.831 4.96495C277.3 6.65724 275.328 9.06255 274.163 11.8767C272.999 14.6909 272.694 17.7876 273.288 20.7751C273.882 23.7626 275.347 26.5068 277.499 28.6607C279.651 30.8146 282.392 32.2814 285.377 32.8757C288.362 33.4699 291.456 33.1649 294.267 31.9993C297.079 30.8336 299.482 28.8596 301.173 26.3269C302.863 23.7942 303.766 20.8166 303.766 17.7705C303.761 13.6873 302.139 9.77276 299.254 6.88552C296.369 3.99828 292.458 2.37414 288.379 2.36941Z" fill="white"/>
<path d="M440.905 35.541C437.394 35.541 433.961 34.4988 431.042 32.5461C428.122 30.5935 425.847 27.8181 424.503 24.571C423.159 21.3238 422.807 17.7508 423.493 14.3036C424.178 10.8565 425.868 7.6901 428.351 5.20486C430.834 2.71961 433.998 1.02714 437.442 0.341461C440.886 -0.344216 444.455 0.00770438 447.7 1.35271C450.944 2.69772 453.717 4.97541 455.667 7.89775C457.618 10.8201 458.659 14.2558 458.659 17.7705C458.654 22.4819 456.782 26.999 453.454 30.3305C450.125 33.6619 445.612 35.5358 440.905 35.541ZM440.905 2.36941C437.862 2.36941 434.887 3.27267 432.357 4.96496C429.827 6.65726 427.854 9.06257 426.69 11.8768C425.525 14.6909 425.221 17.7876 425.814 20.7751C426.408 23.7626 427.873 26.5068 430.025 28.6607C432.177 30.8146 434.919 32.2814 437.904 32.8757C440.888 33.4699 443.982 33.1649 446.794 31.9993C449.605 30.8336 452.008 28.8596 453.699 26.3269C455.39 23.7942 456.292 20.8165 456.292 17.7705C456.288 13.6873 454.665 9.77274 451.78 6.8855C448.896 3.99826 444.985 2.37413 440.905 2.36941Z" fill="white"/>
<path d="M139.655 23.2551V22.3585L140.798 21.2467C143.552 18.6251 144.795 17.2298 144.812 15.6043C144.841 15.3175 144.806 15.0277 144.708 14.7564C144.611 14.485 144.453 14.2391 144.248 14.0368C144.043 13.8346 143.795 13.6811 143.522 13.5877C143.249 13.4944 142.959 13.4636 142.673 13.4976C141.828 13.5287 141.02 13.8507 140.385 14.4092L139.92 13.3807C140.777 12.6673 141.857 12.2793 142.971 12.2851C143.4 12.247 143.832 12.3006 144.238 12.4425C144.645 12.5843 145.016 12.8111 145.328 13.1078C145.64 13.4045 145.886 13.7642 146.048 14.1632C146.211 14.5621 146.286 14.9911 146.27 15.4215C146.27 17.4126 144.828 19.0231 142.556 21.2131L141.694 22.0103V22.0427H146.536V23.2551H139.655Z" fill="white"/>
<path d="M25.2271 13.7374H25.1942L23.3205 14.7497L23.0391 13.6379L25.393 12.3768H26.6367V23.1641H25.2271V13.7374Z" fill="white"/>
<path d="M441.966 23.1633V20.227H436.958V19.2644L441.767 12.3772H443.342V19.0816H444.851V20.227H443.342V23.1633H441.966ZM441.966 19.0816V15.4813C441.966 14.9167 441.983 14.3521 442.017 13.7875H441.966C441.635 14.4192 441.369 14.8831 441.071 15.3818L438.435 19.0481V19.0816L441.966 19.0816Z" fill="white"/>
<path d="M286.556 21.4875C287.28 21.9161 288.102 22.1504 288.943 22.1678C290.817 22.1678 291.398 20.9727 291.38 20.0772C291.364 18.5663 290.004 17.9195 288.596 17.9195H287.782V16.8239H288.596C289.657 16.8239 291 16.2767 291 14.9983C291 14.1352 290.452 13.3716 289.109 13.3716C288.336 13.3934 287.587 13.642 286.955 14.0866L286.573 13.0246C287.411 12.4778 288.391 12.189 289.391 12.1939C291.513 12.1939 292.475 13.455 292.475 14.7669C292.464 15.349 292.263 15.9117 291.904 16.3696C291.545 16.8276 291.047 17.1561 290.485 17.3052V17.3388C291.151 17.4353 291.76 17.7682 292.201 18.2769C292.643 18.7855 292.887 19.436 292.889 20.1096C292.889 21.8358 291.546 23.3467 288.96 23.3467C287.977 23.3594 287.01 23.1069 286.158 22.6156L286.556 21.4875Z" fill="white"/>
<path d="M343.773 128.565H239.259C239.103 128.565 238.949 128.535 238.806 128.475C238.662 128.416 238.532 128.329 238.422 128.219C238.312 128.109 238.225 127.978 238.165 127.834C238.106 127.69 238.075 127.536 238.075 127.381V60.4452C238.075 60.2896 238.106 60.1355 238.165 59.9917C238.225 59.848 238.312 59.7173 238.422 59.6073C238.532 59.4972 238.662 59.41 238.806 59.3505C238.949 59.291 239.103 59.2604 239.259 59.2605H343.773C343.928 59.2604 344.082 59.291 344.226 59.3505C344.37 59.41 344.5 59.4972 344.61 59.6073C344.72 59.7173 344.807 59.848 344.867 59.9917C344.926 60.1355 344.957 60.2896 344.957 60.4452V127.381C344.957 127.536 344.926 127.69 344.867 127.834C344.807 127.978 344.72 128.109 344.61 128.219C344.5 128.329 344.37 128.416 344.226 128.475C344.082 128.535 343.928 128.565 343.773 128.565ZM240.442 126.196H342.589V61.6299H240.442V126.196Z" fill="white"/>
<path d="M325.07 74.0689H261.156C260.842 74.0689 260.541 73.944 260.319 73.7219C260.097 73.4997 259.972 73.1984 259.972 72.8842C259.972 72.57 260.097 72.2686 260.319 72.0465C260.541 71.8243 260.842 71.6995 261.156 71.6995H325.07C325.384 71.6995 325.685 71.8243 325.907 72.0465C326.129 72.2686 326.254 72.57 326.254 72.8842C326.254 73.1984 326.129 73.4997 325.907 73.7219C325.685 73.944 325.384 74.0689 325.07 74.0689Z" fill="white"/>
<path d="M325.071 84.7313H261.156C261 84.7318 260.846 84.7014 260.702 84.6421C260.558 84.5827 260.427 84.4955 260.317 84.3855C260.207 84.2754 260.119 84.1447 260.06 84.0007C260 83.8568 259.969 83.7025 259.969 83.5466C259.969 83.3908 260 83.2365 260.06 83.0926C260.119 82.9486 260.207 82.8179 260.317 82.7078C260.427 82.5978 260.558 82.5106 260.702 82.4512C260.846 82.3919 261 82.3615 261.156 82.3619H325.071C325.384 82.3619 325.686 82.4867 325.907 82.7089C326.129 82.9311 326.254 83.2324 326.254 83.5466C326.254 83.8608 326.129 84.1622 325.907 84.3844C325.686 84.6065 325.384 84.7313 325.071 84.7313Z" fill="white"/>
<path d="M325.07 95.3931H261.156C260.842 95.3931 260.541 95.2683 260.319 95.0461C260.097 94.8239 259.972 94.5226 259.972 94.2084C259.972 93.8942 260.097 93.5929 260.319 93.3707C260.541 93.1485 260.842 93.0237 261.156 93.0237H325.07C325.384 93.0237 325.685 93.1485 325.907 93.3707C326.129 93.5929 326.254 93.8942 326.254 94.2084C326.254 94.5226 326.129 94.8239 325.907 95.0461C325.685 95.2683 325.384 95.3931 325.07 95.3931Z" fill="white"/>
<path d="M325.071 106.056H261.156C261 106.057 260.846 106.026 260.702 105.967C260.558 105.907 260.427 105.82 260.317 105.71C260.207 105.6 260.119 105.469 260.06 105.326C260 105.182 259.969 105.027 259.969 104.871C259.969 104.716 260 104.561 260.06 104.417C260.119 104.273 260.207 104.143 260.317 104.033C260.427 103.923 260.558 103.835 260.702 103.776C260.846 103.717 261 103.686 261.156 103.687H325.071C325.384 103.687 325.686 103.812 325.907 104.034C326.129 104.256 326.254 104.557 326.254 104.871C326.254 105.186 326.129 105.487 325.907 105.709C325.686 105.931 325.384 106.056 325.071 106.056Z" fill="white"/>
<path d="M325.07 116.718H261.156C260.842 116.718 260.541 116.593 260.319 116.371C260.097 116.149 259.972 115.847 259.972 115.533C259.972 115.219 260.097 114.918 260.319 114.695C260.541 114.473 260.842 114.349 261.156 114.349H325.07C325.226 114.348 325.38 114.378 325.524 114.438C325.668 114.497 325.799 114.584 325.909 114.694C326.019 114.804 326.107 114.935 326.166 115.079C326.226 115.223 326.257 115.377 326.257 115.533C326.257 115.689 326.226 115.843 326.166 115.987C326.107 116.131 326.019 116.262 325.909 116.372C325.799 116.482 325.668 116.569 325.524 116.629C325.38 116.688 325.226 116.718 325.07 116.718Z" fill="white"/>
<path d="M1.17427 62.5508C1.4894 62.5398 1.78799 62.4069 2.00706 62.1799C2.22612 61.9529 2.34857 61.6496 2.34857 61.334C2.34857 61.0184 2.22612 60.7151 2.00706 60.4881C1.78799 60.2611 1.4894 60.1281 1.17427 60.1172C0.859143 60.1281 0.560582 60.2611 0.341513 60.4881C0.122444 60.7151 0 61.0184 0 61.334C0 61.6496 0.122444 61.9529 0.341513 62.1799C0.560582 62.4069 0.859143 62.5398 1.17427 62.5508Z" fill="white"/>
<path d="M1.17427 75.5825C1.4894 75.5716 1.78799 75.4386 2.00706 75.2116C2.22612 74.9846 2.34857 74.6813 2.34857 74.3657C2.34857 74.0501 2.22612 73.7468 2.00706 73.5198C1.78799 73.2928 1.4894 73.1599 1.17427 73.1489C0.859143 73.1599 0.560582 73.2928 0.341513 73.5198C0.122444 73.7468 0 74.0501 0 74.3657C0 74.6813 0.122444 74.9846 0.341513 75.2116C0.560582 75.4386 0.859143 75.5716 1.17427 75.5825Z" fill="white"/>
<path d="M1.17427 88.6139C1.4894 88.603 1.78799 88.47 2.00706 88.243C2.22612 88.016 2.34857 87.7127 2.34857 87.3971C2.34857 87.0815 2.22612 86.7782 2.00706 86.5512C1.78799 86.3242 1.4894 86.1912 1.17427 86.1803C0.859143 86.1912 0.560582 86.3242 0.341513 86.5512C0.122444 86.7782 0 87.0815 0 87.3971C0 87.7127 0.122444 88.016 0.341513 88.243C0.560582 88.47 0.859143 88.603 1.17427 88.6139Z" fill="white"/>
<path d="M1.17427 101.645C1.4894 101.635 1.78799 101.502 2.00706 101.275C2.22612 101.048 2.34857 100.744 2.34857 100.429C2.34857 100.113 2.22612 99.8098 2.00706 99.5828C1.78799 99.3558 1.4894 99.2228 1.17427 99.2119C0.859143 99.2228 0.560582 99.3558 0.341513 99.5828C0.122444 99.8098 0 100.113 0 100.429C0 100.744 0.122444 101.048 0.341513 101.275C0.560582 101.502 0.859143 101.635 1.17427 101.645Z" fill="white"/>
<path d="M1.17427 114.677C1.4894 114.666 1.78799 114.533 2.00706 114.306C2.22612 114.079 2.34857 113.776 2.34857 113.461C2.34857 113.145 2.22612 112.842 2.00706 112.615C1.78799 112.388 1.4894 112.255 1.17427 112.244C0.859143 112.255 0.560582 112.388 0.341513 112.615C0.122444 112.842 0 113.145 0 113.461C0 113.776 0.122444 114.079 0.341513 114.306C0.560582 114.533 0.859143 114.666 1.17427 114.677Z" fill="white"/>
<path d="M1.17427 127.709C1.4894 127.698 1.78799 127.565 2.00706 127.338C2.22612 127.111 2.34857 126.808 2.34857 126.492C2.34857 126.177 2.22612 125.873 2.00706 125.646C1.78799 125.419 1.4894 125.286 1.17427 125.275C0.859143 125.286 0.560582 125.419 0.341513 125.646C0.122444 125.873 0 126.177 0 126.492C0 126.808 0.122444 127.111 0.341513 127.338C0.560582 127.565 0.859143 127.698 1.17427 127.709Z" fill="white"/>
<path d="M50.4754 62.5182H12.6001C12.2862 62.5182 11.9851 62.3934 11.7632 62.1712C11.5412 61.949 11.4165 61.6477 11.4165 61.3335C11.4165 61.0193 11.5412 60.718 11.7632 60.4958C11.9851 60.2736 12.2862 60.1488 12.6001 60.1488H50.4754C50.7893 60.1488 51.0903 60.2736 51.3123 60.4958C51.5343 60.718 51.659 61.0193 51.659 61.3335C51.659 61.6477 51.5343 61.949 51.3123 62.1712C51.0903 62.3934 50.7893 62.5182 50.4754 62.5182H50.4754Z" fill="white"/>
<path d="M50.4756 75.5502H12.6003C12.4446 75.5506 12.2904 75.5203 12.1464 75.4609C12.0024 75.4016 11.8716 75.3143 11.7613 75.2043C11.6511 75.0942 11.5636 74.9635 11.504 74.8196C11.4443 74.6756 11.4136 74.5213 11.4136 74.3655C11.4136 74.2097 11.4443 74.0553 11.504 73.9114C11.5636 73.7675 11.6511 73.6367 11.7613 73.5267C11.8716 73.4166 12.0024 73.3294 12.1464 73.2701C12.2904 73.2107 12.4446 73.1804 12.6003 73.1808H50.4755C50.6312 73.1804 50.7855 73.2107 50.9294 73.2701C51.0734 73.3294 51.2042 73.4166 51.3145 73.5267C51.4247 73.6367 51.5122 73.7675 51.5718 73.9114C51.6315 74.0553 51.6622 74.2097 51.6622 74.3655C51.6622 74.5213 51.6315 74.6756 51.5718 74.8196C51.5122 74.9635 51.4247 75.0942 51.3145 75.2043C51.2042 75.3143 51.0734 75.4016 50.9294 75.4609C50.7855 75.5203 50.6312 75.5506 50.4755 75.5502H50.4756Z" fill="white"/>
<path d="M50.4754 88.5818H12.6001C12.2862 88.5818 11.9851 88.457 11.7632 88.2348C11.5412 88.0126 11.4165 87.7113 11.4165 87.3971C11.4165 87.0829 11.5412 86.7816 11.7632 86.5594C11.9851 86.3372 12.2862 86.2124 12.6001 86.2124H50.4754C50.6311 86.212 50.7853 86.2423 50.9293 86.3017C51.0732 86.3611 51.2041 86.4483 51.3143 86.5583C51.4245 86.6684 51.512 86.7991 51.5717 86.943C51.6313 87.087 51.6621 87.2413 51.6621 87.3971C51.6621 87.5529 51.6313 87.7073 51.5717 87.8512C51.512 87.9951 51.4245 88.1259 51.3143 88.2359C51.2041 88.346 51.0732 88.4331 50.9293 88.4925C50.7853 88.5519 50.6311 88.5822 50.4754 88.5818H50.4754Z" fill="white"/>
<path d="M50.4754 101.613H12.6001C12.2862 101.613 11.9851 101.489 11.7632 101.266C11.5412 101.044 11.4165 100.743 11.4165 100.429C11.4165 100.114 11.5412 99.8132 11.7632 99.591C11.9851 99.3688 12.2862 99.244 12.6001 99.244H50.4754C50.6311 99.2436 50.7853 99.2739 50.9293 99.3333C51.0732 99.3926 51.2041 99.4799 51.3143 99.5899C51.4245 99.7 51.512 99.8307 51.5717 99.9746C51.6313 100.119 51.6621 100.273 51.6621 100.429C51.6621 100.585 51.6313 100.739 51.5717 100.883C51.512 101.027 51.4245 101.157 51.3143 101.268C51.2041 101.378 51.0732 101.465 50.9293 101.524C50.7853 101.583 50.6311 101.614 50.4754 101.613H50.4754Z" fill="white"/>
<path d="M50.4754 114.645H12.6001C12.2862 114.645 11.9851 114.52 11.7632 114.298C11.5412 114.076 11.4165 113.775 11.4165 113.46C11.4165 113.146 11.5412 112.845 11.7632 112.623C11.9851 112.4 12.2862 112.276 12.6001 112.276H50.4754C50.6311 112.275 50.7853 112.306 50.9293 112.365C51.0732 112.424 51.2041 112.511 51.3143 112.622C51.4245 112.732 51.512 112.862 51.5717 113.006C51.6313 113.15 51.6621 113.305 51.6621 113.46C51.6621 113.616 51.6313 113.77 51.5717 113.914C51.512 114.058 51.4245 114.189 51.3143 114.299C51.2041 114.409 51.0732 114.496 50.9293 114.556C50.7853 114.615 50.6311 114.645 50.4754 114.645H50.4754Z" fill="white"/>
<path d="M50.4756 127.677H12.6003C12.4446 127.677 12.2904 127.647 12.1464 127.587C12.0024 127.528 11.8716 127.441 11.7613 127.331C11.6511 127.221 11.5636 127.09 11.504 126.946C11.4443 126.802 11.4136 126.648 11.4136 126.492C11.4136 126.336 11.4443 126.182 11.504 126.038C11.5636 125.894 11.6511 125.763 11.7613 125.653C11.8716 125.543 12.0024 125.456 12.1464 125.397C12.2904 125.337 12.4446 125.307 12.6003 125.307H50.4755C50.6312 125.307 50.7855 125.337 50.9294 125.397C51.0734 125.456 51.2042 125.543 51.3145 125.653C51.4247 125.763 51.5122 125.894 51.5718 126.038C51.6315 126.182 51.6622 126.336 51.6622 126.492C51.6622 126.648 51.6315 126.802 51.5718 126.946C51.5122 127.09 51.4247 127.221 51.3145 127.331C51.2042 127.441 51.0734 127.528 50.9294 127.587C50.7855 127.647 50.6312 127.677 50.4755 127.677H50.4756Z" fill="white"/>
<path d="M453.644 133.086H428.165C426.48 133.085 424.864 132.414 423.672 131.221C422.481 130.028 421.81 128.411 421.808 126.724V61.0997C421.81 59.413 422.481 57.7959 423.672 56.6034C424.864 55.4109 426.48 54.7404 428.165 54.7389H431.256C431.45 54.7389 431.641 54.7864 431.812 54.8774C431.983 54.9683 432.129 55.1 432.237 55.2607C432.346 55.4214 432.413 55.6063 432.434 55.7991C432.454 55.992 432.427 56.1869 432.354 56.3667C432.275 56.5604 432.245 56.7706 432.266 56.9788C432.287 57.187 432.359 57.3868 432.475 57.5607C432.591 57.7346 432.749 57.8772 432.933 57.9761C433.117 58.0749 433.323 58.1269 433.532 58.1276H448.058C448.267 58.1272 448.472 58.0755 448.656 57.9771C448.841 57.8786 448.998 57.7364 449.114 57.5629C449.231 57.3893 449.303 57.1899 449.325 56.9819C449.346 56.774 449.316 56.5639 449.238 56.3702C449.165 56.1904 449.137 55.9953 449.156 55.8021C449.176 55.6089 449.243 55.4235 449.351 55.2624C449.46 55.1012 449.606 54.9692 449.777 54.8779C449.948 54.7866 450.14 54.7389 450.334 54.7389H453.644C455.329 54.7406 456.944 55.4113 458.136 56.6037C459.328 57.7962 459.998 59.4131 460 61.0997V126.724C459.998 128.411 459.328 130.028 458.136 131.221C456.945 132.413 455.329 133.084 453.644 133.086ZM428.165 57.1083C427.108 57.1094 426.094 57.5301 425.346 58.2784C424.598 59.0266 424.177 60.0412 424.175 61.0997V126.724C424.177 127.783 424.598 128.798 425.346 129.546C426.094 130.295 427.108 130.716 428.165 130.717H453.644C454.701 130.716 455.715 130.295 456.463 129.546C457.211 128.798 457.632 127.783 457.633 126.724V61.0997C457.631 60.0414 457.211 59.0268 456.463 58.2785C455.715 57.5302 454.701 57.1094 453.644 57.1083H451.689C451.624 58.0278 451.212 58.8883 450.539 59.5169C449.865 60.1455 448.979 60.4957 448.058 60.497H433.532C432.611 60.4956 431.725 60.1454 431.051 59.5168C430.378 58.8882 429.967 58.0277 429.901 57.1083H428.165Z" fill="white"/>
<path d="M403.188 95.3938H370.047C369.733 95.3938 369.432 95.269 369.21 95.0468C368.988 94.8246 368.864 94.5233 368.864 94.2091C368.864 93.8949 368.988 93.5936 369.21 93.3714C369.432 93.1492 369.733 93.0244 370.047 93.0244H400.331L393.474 86.1615C393.252 85.9393 393.128 85.638 393.128 85.3239C393.128 85.0097 393.252 84.7084 393.474 84.4863C393.696 84.2641 393.997 84.1393 394.311 84.1393C394.625 84.1393 394.926 84.2641 395.148 84.4863L404.025 93.3715C404.191 93.5371 404.303 93.7482 404.349 93.978C404.395 94.2078 404.371 94.446 404.282 94.6625C404.192 94.8789 404.04 95.064 403.846 95.1941C403.651 95.3243 403.422 95.3938 403.188 95.3938V95.3938Z" fill="white"/>
<path d="M394.903 103.686C394.669 103.686 394.44 103.617 394.246 103.487C394.051 103.357 393.899 103.172 393.81 102.955C393.72 102.739 393.697 102.5 393.742 102.271C393.788 102.041 393.901 101.83 394.066 101.664L402.351 93.3712C402.573 93.1491 402.874 93.0243 403.188 93.0243C403.502 93.0243 403.803 93.1491 404.025 93.3712C404.247 93.5934 404.372 93.8947 404.372 94.2089C404.372 94.523 404.247 94.8243 404.025 95.0465L395.74 103.339C395.63 103.45 395.5 103.537 395.356 103.597C395.213 103.656 395.059 103.687 394.903 103.686Z" fill="white"/>
<path d="M301.256 214.068H339.955C342.596 198.786 342.596 183.165 339.955 167.884H301.256C305.616 182.969 305.616 198.982 301.256 214.068Z" fill="#F8E71C"/>
<path d="M333.85 186.335H310.301C309.894 186.335 309.565 185.805 309.565 185.15C309.565 184.496 309.894 183.966 310.301 183.966H333.85C334.256 183.966 334.586 184.496 334.586 185.15C334.586 185.805 334.256 186.335 333.85 186.335Z" fill="white"/>
<path d="M333.85 197.325H310.301C309.894 197.325 309.565 196.795 309.565 196.141C309.565 195.486 309.894 194.956 310.301 194.956H333.85C334.256 194.956 334.586 195.486 334.586 196.141C334.586 196.795 334.256 197.325 333.85 197.325Z" fill="white"/>
<path d="M457.229 209.02H418.53C415.889 193.738 415.889 178.117 418.53 162.836H457.229C452.869 177.921 452.869 193.934 457.229 209.02Z" fill="#F8E71C"/>
<path d="M448.642 175.345H425.093C424.687 175.345 424.357 174.815 424.357 174.161C424.357 173.506 424.687 172.976 425.093 172.976H448.642C449.049 172.976 449.378 173.506 449.378 174.161C449.378 174.815 449.049 175.345 448.642 175.345Z" fill="white"/>
<path d="M448.642 186.335H425.093C424.687 186.335 424.357 185.805 424.357 185.15C424.357 184.495 424.687 183.966 425.093 183.966H448.642C449.049 183.966 449.378 184.495 449.378 185.15C449.378 185.805 449.049 186.335 448.642 186.335Z" fill="white"/>
<path d="M210.247 198.609H248.946C251.587 183.327 251.587 167.706 248.946 152.425H210.247C214.606 167.51 214.606 183.523 210.247 198.609Z" fill="#F8E71C"/>
<path d="M242.84 165.88H219.291C218.884 165.88 218.555 165.35 218.555 164.696C218.555 164.041 218.884 163.511 219.291 163.511H242.84C243.246 163.511 243.576 164.041 243.576 164.696C243.576 165.35 243.246 165.88 242.84 165.88Z" fill="white"/>
<path d="M242.84 176.871H219.291C218.884 176.871 218.555 176.341 218.555 175.686C218.555 175.031 218.884 174.502 219.291 174.502H242.84C243.246 174.502 243.576 175.031 243.576 175.686C243.576 176.341 243.246 176.871 242.84 176.871Z" fill="white"/>
<path d="M242.84 187.861H219.291C218.884 187.861 218.555 187.331 218.555 186.676C218.555 186.022 218.884 185.492 219.291 185.492H242.84C243.246 185.492 243.576 186.022 243.576 186.676C243.576 187.331 243.246 187.861 242.84 187.861Z" fill="white"/>
<path d="M47.7124 202.078H86.4115C89.0524 186.797 89.0524 171.176 86.4115 155.895H47.7124C52.0722 170.98 52.0722 186.993 47.7124 202.078Z" fill="#F8E71C"/>
<path d="M80.305 169.349H56.7559C56.3495 169.349 56.02 168.82 56.02 168.165C56.02 167.51 56.3495 166.98 56.7559 166.98H80.305C80.7114 166.98 81.0409 167.51 81.0409 168.165C81.0409 168.82 80.7114 169.349 80.305 169.349Z" fill="white"/>
<path d="M80.305 180.34H56.7559C56.3495 180.34 56.02 179.81 56.02 179.156C56.02 178.501 56.3495 177.971 56.7559 177.971H80.305C80.7114 177.971 81.0409 178.501 81.0409 179.156C81.0409 179.81 80.7114 180.34 80.305 180.34Z" fill="white"/>
<path d="M80.305 191.331H56.7559C56.3495 191.331 56.02 190.801 56.02 190.146C56.02 189.491 56.3495 188.961 56.7559 188.961H80.305C80.7114 188.961 81.0409 189.491 81.0409 190.146C81.0409 190.801 80.7114 191.331 80.305 191.331Z" fill="white"/>
</svg>
