<svg width="89" height="23" viewBox="0 0 89 23" fill="none" xmlns="http://www.w3.org/2000/svg">
<g clip-path="url(#clip0_1813:697)">
<path d="M56.514 3.77832V7.5928C56.514 8.40017 56.4867 9.1149 56.4411 9.75524C57.207 8.69714 58.3284 8.15889 59.7964 8.15889C61.2188 8.15889 62.331 8.66002 63.1152 9.65315C63.9084 10.6461 64.3006 12.0383 64.3006 13.8296C64.3006 15.6301 63.8993 17.0315 63.1061 18.0432C62.3128 19.0455 61.2005 19.5466 59.7964 19.5466C59.0944 19.5466 58.4469 19.4167 57.8635 19.1569H57.8543C57.2891 18.8877 56.8058 18.4794 56.4137 17.9504H56.3864L56.0399 19.3517H54.7634V3.77832H56.514ZM25.5322 4.70634L27.7933 13.7183C28.0668 14.8227 28.2676 15.8251 28.4134 16.7438C28.5867 15.6673 28.8146 14.6093 29.1245 13.579L31.6867 4.70634H33.5467L36.2454 13.6532C36.5189 14.5814 36.756 15.6209 36.9567 16.7624C37.0934 15.8901 37.294 14.8877 37.5949 13.6996L39.856 4.70634H41.7525L37.914 19.2962L37.9048 19.3519H36.1634L33.273 9.5882C33.1363 9.16131 32.9813 8.61377 32.8172 7.964C32.7351 7.62992 32.6622 7.37007 32.6257 7.17519L32.6166 7.13807C32.4707 7.9176 32.2793 8.74369 32.0058 9.65315L29.2066 19.3519H27.4651L23.6357 4.70634H25.5322ZM67.6193 4.70634L71.1113 10.3864L74.6398 4.70634H76.5728L72.1143 11.6393L76.8463 19.2405L76.9101 19.3519H74.8678L71.0749 13.0315L67.2181 19.3519H65.3034L70.0811 11.7042L65.6225 4.70634H67.6193ZM82.7455 4.70634C84.5052 4.70634 85.8091 5.04971 86.6569 5.74588C87.5141 6.4419 87.9426 7.49071 87.9426 8.87362C87.9426 10.7855 86.976 12.1034 85.1069 12.7995L89.0001 19.3519H86.8757L83.4292 13.3191H80.5664V19.3519H78.7702V4.70634H82.7455ZM80.5664 11.7321H82.7637C83.9217 11.7321 84.7605 11.5001 85.2892 11.0453C85.8182 10.5813 86.0826 9.89444 86.0826 8.96642C86.0826 8.01968 85.8182 7.36079 85.2801 6.9523C84.7422 6.54398 83.867 6.33053 82.6452 6.33053H80.5664V11.7321ZM50.9614 9.51395C51.7546 10.4234 52.1466 11.6207 52.1466 13.0964V14.2102H44.8069C44.8434 15.4352 45.1533 16.3634 45.7187 16.9944C46.3113 17.6442 47.1411 17.969 48.2169 17.969C49.3567 17.969 50.478 17.7277 51.5996 17.2357L51.6907 17.1986V18.8135L51.6543 18.8321C51.0799 19.0919 50.5329 19.2682 50.0131 19.3796C49.4934 19.4911 48.8826 19.5468 48.1531 19.5468C46.5666 19.5468 45.2992 19.0455 44.3693 18.0525C43.4392 17.0594 42.9834 15.6858 42.9834 13.9316C42.9834 12.1682 43.4119 10.7577 44.269 9.70884C45.126 8.6693 46.2931 8.14033 47.7337 8.14033C49.0923 8.14033 50.1681 8.59506 50.9614 9.51395ZM45.7096 10.4884C45.2354 11.0268 44.9437 11.7785 44.8434 12.7345H50.2775C50.2592 11.7414 50.0404 10.9897 49.6119 10.4698C49.1743 9.93156 48.5451 9.66243 47.7155 9.66243C46.8766 9.66243 46.2111 9.93156 45.7096 10.4884ZM57.2342 10.6276C56.7602 11.2402 56.514 12.3167 56.514 13.8296C56.514 15.3517 56.7693 16.4283 57.2525 17.0687C57.7358 17.7091 58.5108 18.0247 59.6049 18.0247C60.5804 18.0247 61.2917 17.6719 61.7658 16.9573C62.2399 16.2334 62.4862 15.1846 62.4862 13.811C62.4862 12.4095 62.2399 11.3701 61.7658 10.6925C61.2917 10.0151 60.5622 9.68099 59.5593 9.68099C58.4743 9.68099 57.6994 9.99652 57.2342 10.6276Z" fill="#3D3D3D"/>
<path d="M56.514 3.77832V7.5928C56.514 8.40017 56.4867 9.1149 56.4411 9.75524C57.207 8.69714 58.3284 8.15889 59.7964 8.15889C61.2188 8.15889 62.331 8.66002 63.1152 9.65315C63.9084 10.6461 64.3006 12.0383 64.3006 13.8296C64.3006 15.6301 63.8993 17.0315 63.1061 18.0432C62.3128 19.0455 61.2005 19.5466 59.7964 19.5466C59.0944 19.5466 58.4469 19.4167 57.8635 19.1569H57.8543C57.2891 18.8877 56.8058 18.4794 56.4137 17.9504H56.3864L56.0399 19.3517H54.7634V3.77832H56.514ZM25.5322 4.70634L27.7933 13.7183C28.0668 14.8227 28.2676 15.8251 28.4134 16.7438C28.5867 15.6673 28.8146 14.6093 29.1245 13.579L31.6867 4.70634H33.5467L36.2454 13.6532C36.5189 14.5814 36.756 15.6209 36.9567 16.7624C37.0934 15.8901 37.294 14.8877 37.5949 13.6996L39.856 4.70634H41.7525L37.914 19.2962L37.9048 19.3519H36.1634L33.273 9.5882C33.1363 9.16131 32.9813 8.61377 32.8172 7.964C32.7351 7.62992 32.6622 7.37007 32.6257 7.17519L32.6166 7.13807C32.4707 7.9176 32.2793 8.74369 32.0058 9.65315L29.2066 19.3519H27.4651L23.6357 4.70634H25.5322ZM67.6193 4.70634L71.1113 10.3864L74.6398 4.70634H76.5728L72.1143 11.6393L76.8463 19.2405L76.9101 19.3519H74.8678L71.0749 13.0315L67.2181 19.3519H65.3034L70.0811 11.7042L65.6225 4.70634H67.6193ZM82.7455 4.70634C84.5052 4.70634 85.8091 5.04971 86.6569 5.74588C87.5141 6.4419 87.9426 7.49071 87.9426 8.87362C87.9426 10.7855 86.976 12.1034 85.1069 12.7995L89.0001 19.3519H86.8757L83.4292 13.3191H80.5664V19.3519H78.7702V4.70634H82.7455ZM80.5664 11.7321H82.7637C83.9217 11.7321 84.7605 11.5001 85.2892 11.0453C85.8182 10.5813 86.0826 9.89444 86.0826 8.96642C86.0826 8.01968 85.8182 7.36079 85.2801 6.9523C84.7422 6.54398 83.867 6.33053 82.6452 6.33053H80.5664V11.7321ZM50.9614 9.51395C51.7546 10.4234 52.1466 11.6207 52.1466 13.0964V14.2102H44.8069C44.8434 15.4352 45.1533 16.3634 45.7187 16.9944C46.3113 17.6442 47.1411 17.969 48.2169 17.969C49.3567 17.969 50.478 17.7277 51.5996 17.2357L51.6907 17.1986V18.8135L51.6543 18.8321C51.0799 19.0919 50.5329 19.2682 50.0131 19.3796C49.4934 19.4911 48.8826 19.5468 48.1531 19.5468C46.5666 19.5468 45.2992 19.0455 44.3693 18.0525C43.4392 17.0594 42.9834 15.6858 42.9834 13.9316C42.9834 12.1682 43.4119 10.7577 44.269 9.70884C45.126 8.6693 46.2931 8.14033 47.7337 8.14033C49.0923 8.14033 50.1681 8.59506 50.9614 9.51395ZM45.7096 10.4884C45.2354 11.0268 44.9437 11.7785 44.8434 12.7345H50.2775C50.2592 11.7414 50.0404 10.9897 49.6119 10.4698C49.1743 9.93156 48.5451 9.66243 47.7155 9.66243C46.8766 9.66243 46.2111 9.93156 45.7096 10.4884ZM57.2342 10.6276C56.7602 11.2402 56.514 12.3167 56.514 13.8296C56.514 15.3517 56.7693 16.4283 57.2525 17.0687C57.7358 17.7091 58.5108 18.0247 59.6049 18.0247C60.5804 18.0247 61.2917 17.6719 61.7658 16.9573C62.2399 16.2334 62.4862 15.1846 62.4862 13.811C62.4862 12.4095 62.2399 11.3701 61.7658 10.6925C61.2917 10.0151 60.5622 9.68099 59.5593 9.68099C58.4743 9.68099 57.6994 9.99652 57.2342 10.6276Z" fill="#3D3D3D"/>
<path fill-rule="evenodd" clip-rule="evenodd" d="M4.52493 22.0383C4.17467 21.1882 0.120985 11.2702 0.120985 11.2702C0.120985 11.2702 -0.825459 8.98213 2.57594 7.35637C5.97726 5.73061 10.1181 3.68335 10.1181 3.68335V19.2257C10.1181 19.2257 7.66686 21.6999 6.69734 22.6917C5.81637 23.593 4.87657 22.892 4.52493 22.0383Z" fill="url(#paint0_linear_1813:697)"/>
<path fill-rule="evenodd" clip-rule="evenodd" d="M15.7114 22.0383C16.0617 21.1882 20.1153 11.2702 20.1153 11.2702C20.1153 11.2702 21.0618 8.98213 17.6604 7.35637C14.2591 5.73061 10.1183 3.68335 10.1183 3.68335V19.2257C10.1183 19.2257 12.5695 21.6999 13.539 22.6917C14.42 23.593 15.3598 22.892 15.7114 22.0383Z" fill="url(#paint1_linear_1813:697)"/>
<path fill-rule="evenodd" clip-rule="evenodd" d="M10.1182 3.68331L3.08849 0.212008C3.08849 0.212008 1.59087 -0.459818 1.96609 1.68867L2.9266 7.18852L10.1182 3.68331Z" fill="url(#paint2_linear_1813:697)"/>
<path fill-rule="evenodd" clip-rule="evenodd" d="M10.1182 3.68331L17.1478 0.212008C17.1478 0.212008 18.6455 -0.459818 18.2702 1.68867L17.3097 7.18852L10.1182 3.68331Z" fill="url(#paint3_linear_1813:697)"/>
</g>
<defs>
<linearGradient id="paint0_linear_1813:697" x1="-9435.52" y1="-1743.2" x2="-9440.76" y2="-1714.82" gradientUnits="userSpaceOnUse">
<stop stop-color="#FF0000"/>
<stop offset="1" stop-color="#990000"/>
</linearGradient>
<linearGradient id="paint1_linear_1813:697" x1="-7629.76" y1="4084.4" x2="-7641.89" y2="4061.58" gradientUnits="userSpaceOnUse">
<stop stop-color="#FF0000"/>
<stop offset="1" stop-color="#990000"/>
</linearGradient>
<linearGradient id="paint2_linear_1813:697" x1="-7050.28" y1="4174.44" x2="-7035.74" y2="4198.99" gradientUnits="userSpaceOnUse">
<stop stop-color="#990000" stop-opacity="0.65"/>
<stop offset="1" stop-color="#FE0000" stop-opacity="0.65"/>
</linearGradient>
<linearGradient id="paint3_linear_1813:697" x1="-8077.45" y1="-1492.72" x2="-8082.68" y2="-1464.33" gradientUnits="userSpaceOnUse">
<stop stop-color="#FF0000" stop-opacity="0.65"/>
<stop offset="1" stop-color="#990000" stop-opacity="0.65"/>
</linearGradient>
<clipPath id="clip0_1813:697">
<rect width="89" height="23" fill="white"/>
</clipPath>
</defs>
</svg>
