<svg width="41" height="58" viewBox="0 0 41 58" fill="none" xmlns="http://www.w3.org/2000/svg">
<path d="M41.0002 11.7236L37.306 52.6346L20.7004 57.1856L4.14049 52.641L0.450195 11.7236H41.0002Z" fill="#264DE4"/>
<path d="M34.1432 50.0299L37.3002 15.0696H20.7251V53.7074L34.1432 50.0299Z" fill="#2965F1"/>
<path d="M8.91016 30.2454L9.36514 35.2637H20.7252V30.2454H8.91016Z" fill="#EBEBEB"/>
<path d="M20.7249 20.0881H20.7073H7.99561L8.45707 25.1065H20.7249V20.0881Z" fill="#EBEBEB"/>
<path d="M20.7251 48.4991V43.2779L20.7028 43.2837L15.0492 41.7746L14.6877 37.7722H11.9405H9.5918L10.303 45.6517L20.7017 48.5055L20.7251 48.4991Z" fill="#EBEBEB"/>
<path d="M9.99365 0.604492H16.1421V3.14624H12.5648V5.68799H16.1421V8.22974H9.99365V0.604492Z" fill="white"/>
<path d="M17.3716 0.604492H23.52V2.81471H19.9427V3.25675H23.52V8.34025H17.3716V6.01952H20.9489V5.57748H17.3716V0.604492Z" fill="white"/>
<path d="M24.75 0.604492H30.8984V2.81471H27.3212V3.25675H30.8984V8.34025H24.75V6.01952H28.3273V5.57748H24.75V0.604492Z" fill="white"/>
<path d="M26.9591 35.2637L26.3698 41.7721L20.708 43.2828V48.5038L31.115 45.6525L31.1913 44.8047L32.3842 31.593L32.5081 30.2454L33.4246 20.0881H20.708V25.1065H27.8612L27.3993 30.2454H20.708V35.2637H26.9591Z" fill="white"/>
</svg>
