<svg width="52" height="72" viewBox="0 0 52 72" fill="none" xmlns="http://www.w3.org/2000/svg">
<path d="M51.45 14.1082L46.7628 66.0162L25.6935 71.7905L4.68226 66.0243L0 14.1082H51.45Z" fill="#264DE4"/>
<path d="M42.7496 62.7111L46.7551 18.3533H25.7246V67.3771L42.7496 62.7111Z" fill="#2965F1"/>
<path d="M10.7339 37.6084L11.3112 43.9756H25.7249V37.6084H10.7339Z" fill="#EBEBEB"/>
<path d="M25.7247 24.7209H25.7024H9.57373L10.1592 31.0883H25.7247V24.7209Z" fill="#EBEBEB"/>
<path d="M25.7251 60.769V54.1443L25.6968 54.1517L18.5234 52.2369L18.0649 47.1587H14.5792H11.5991L12.5015 57.1563L25.6954 60.7771L25.7251 60.769Z" fill="#EBEBEB"/>
<path d="M12.1089 0H19.9101V3.22498H15.3712V6.44996H19.9101V9.67494H12.1089V0Z" fill="white"/>
<path d="M21.4702 0H29.2714V2.80433H24.7325V3.3652H29.2714V9.81516H21.4702V6.87061H26.0091V6.30975H21.4702V0Z" fill="white"/>
<path d="M30.8315 0H38.6327V2.80433H34.0939V3.3652H38.6327V9.81516H30.8315V6.87061H35.3704V6.30975H30.8315V0Z" fill="white"/>
<path d="M33.6345 43.9758L32.8869 52.2337L25.7031 54.1504V60.7748L38.9075 57.1571L39.0044 56.0814L40.518 39.3183L40.6751 37.6085L41.8379 24.7209H25.7031V31.0883H34.7791L34.1931 37.6085H25.7031V43.9758H33.6345Z" fill="white"/>
</svg>
