<svg width="33" height="50" viewBox="0 0 33 50" fill="none" xmlns="http://www.w3.org/2000/svg">
<path d="M16.3003 24.6167C16.3003 20.085 19.9492 16.4111 24.4504 16.4111C28.9515 16.4111 32.6005 20.085 32.6005 24.6167C32.6005 29.1485 28.9515 32.8223 24.4504 32.8223C19.9492 32.8223 16.3003 29.1485 16.3003 24.6167Z" fill="#1ABCFE"/>
<path d="M0 41.0278C0 36.4961 3.64893 32.8223 8.15012 32.8223H16.3002V41.0278C16.3002 45.5597 12.6513 49.2334 8.15012 49.2334C3.64893 49.2334 0 45.5597 0 41.0278Z" fill="#0ACF83"/>
<path d="M16.3003 0V16.4111H24.4504C28.9516 16.4111 32.6005 12.7374 32.6005 8.20556C32.6005 3.67376 28.9516 0 24.4504 0H16.3003Z" fill="#FF7262"/>
<path d="M0 8.20581C0 12.7376 3.64893 16.4113 8.15012 16.4113H16.3002V0.000244141H8.15012C3.64893 0.000244141 0 3.674 0 8.20581Z" fill="#F24E1E"/>
<path d="M0 24.6167C0 29.1485 3.64893 32.8223 8.15012 32.8223H16.3002V16.4111H8.15012C3.64893 16.4111 0 20.085 0 24.6167Z" fill="#A259FF"/>
</svg>
