<svg width="50" height="49" viewBox="0 0 50 49" fill="none" xmlns="http://www.w3.org/2000/svg">
<path d="M43.8903 24.9789H31.8694V28.4106H40.1123C38.9102 33.5581 35.1322 37.8477 30.1521 39.5636L10.4035 19.8314C12.4643 13.826 18.303 9.53641 25.0003 9.53641C30.1521 9.53641 34.7888 12.1102 37.7081 16.0566L40.284 13.826C36.8495 9.19324 31.3542 6.10474 25.0003 6.10474C16.0705 6.10474 8.51453 12.4533 6.62553 20.8609L29.2935 43.51C37.5364 41.451 43.8903 33.9013 43.8903 24.9789ZM6.11035 25.1505C6.11035 29.9549 7.99935 34.5876 11.6056 38.1909C15.2119 41.7942 20.0202 43.6816 24.6569 43.6816L6.11035 25.1505Z" fill="white"/>
<path d="M24.9998 0.956543C11.7768 0.956543 0.958008 11.7663 0.958008 24.9783C0.958008 38.1902 11.7768 49 24.9998 49C38.2228 49 49.0416 38.1902 49.0416 24.9783C49.0416 11.7663 38.2228 0.956543 24.9998 0.956543ZM11.6051 38.3618C7.99882 34.7585 6.10982 29.9542 6.10982 25.3214L24.8281 43.8525C20.0197 43.6809 15.2114 41.965 11.6051 38.3618ZM29.1213 43.3377L6.625 20.8603C8.514 12.4527 16.07 6.10405 24.9998 6.10405C31.3537 6.10405 36.849 9.19256 40.2835 13.8253L37.7076 16.0559C34.7882 12.1095 30.1516 9.53573 24.9998 9.53573C18.3024 9.53573 12.6355 13.8253 10.403 19.8307L30.1516 39.5629C35.1317 37.847 38.9097 33.5574 40.1118 28.4099H31.8689V24.9783H43.8898C43.8898 33.9006 37.5359 41.4503 29.1213 43.3377Z" fill="#663399"/>
</svg>
