<svg width="47" height="46" viewBox="0 0 47 46" fill="none" xmlns="http://www.w3.org/2000/svg">
<g clip-path="url(#clip0_1813:737)">
<path d="M43.1979 0H34.6397C32.5696 0 30.8703 1.66447 30.8703 3.69211V14.5263H18.4809C16.4726 14.5263 14.8351 16.1303 14.8351 18.1276V30.2632H3.68154C1.64239 30.2632 0.00488281 31.8671 0.00488281 33.8645V42.3382C0.00488281 44.3355 1.64239 45.9395 3.68154 46H43.2288C45.2989 46 46.9982 44.3355 46.9982 42.3079V3.69211C46.9673 1.66447 45.268 0 43.1979 0Z" fill="url(#paint0_linear_1813:737)"/>
<path d="M43.1979 0H34.6397C32.5696 0 30.8703 1.66447 30.8703 3.69211V14.5263H18.4809C16.4726 14.5263 14.8351 16.1303 14.8351 18.1276V30.2632H3.68154C1.64239 30.2632 0.00488281 31.8671 0.00488281 33.8645V42.3382C0.00488281 44.3355 1.64239 45.9395 3.68154 46H43.2288C45.2989 46 46.9982 44.3355 46.9982 42.3079V3.69211C46.9673 1.66447 45.268 0 43.1979 0Z" fill="url(#paint1_linear_1813:737)"/>
<path d="M43.1965 0H34.7C32.63 0 30.9307 1.66447 30.9307 3.69211V46H43.1965C45.2666 46 46.9659 44.3355 46.9659 42.3079V3.69211C46.9659 1.66447 45.2666 0 43.1965 0Z" fill="#F57C00"/>
<path d="M14.8337 18.1579V30.2632H3.71098C1.67182 30.2632 0.00341797 31.8974 0.00341797 33.8948V42.3685C0.00341797 44.3659 1.67182 46.0001 3.71098 46.0001H30.8997V14.5264H18.5412C16.5021 14.5264 14.8337 16.1606 14.8337 18.1579Z" fill="#FFC107"/>
<path d="M30.8994 14.5264V46.0001H43.1653C45.2353 46.0001 46.9346 44.3356 46.9346 42.308V30.2632L30.8994 14.5264Z" fill="url(#paint2_linear_1813:737)"/>
<path opacity="0.2" d="M18.5411 14.829H30.8996V14.5264H18.5411C16.5019 14.5264 14.8335 16.1606 14.8335 18.158V18.4606C14.8335 16.4632 16.5019 14.829 18.5411 14.829Z" fill="white"/>
<path opacity="0.2" d="M3.71098 30.5658H14.8337V30.2632H3.71098C1.67182 30.2632 0.00341797 31.8974 0.00341797 33.8948V34.1974C0.00341797 32.2 1.67182 30.5658 3.71098 30.5658Z" fill="white"/>
<path opacity="0.2" d="M43.1965 0H34.7C32.63 0 30.9307 1.66447 30.9307 3.6921V3.99474C30.9307 1.96711 32.63 0.302632 34.7 0.302632H43.1965C45.2666 0.302632 46.9659 1.96711 46.9659 3.99474V3.6921C46.9659 1.66447 45.2666 0 43.1965 0Z" fill="white"/>
<path opacity="0.2" d="M43.1965 45.6975H3.71098C1.67182 45.6975 0.00341797 44.0633 0.00341797 42.0659V42.3685C0.00341797 44.3659 1.67182 46.0001 3.71098 46.0001H43.1656C45.2356 46.0001 46.9349 44.3356 46.9349 42.308V42.0054C46.9658 44.033 45.2665 45.6975 43.1965 45.6975V45.6975Z" fill="#BF360C"/>
<path d="M43.1979 0H34.7014C32.6314 0 30.9321 1.66447 30.9321 3.69211V14.5263H18.5736C16.5344 14.5263 14.866 16.1605 14.866 18.1579V30.2632H3.71244C1.67328 30.2632 0.00488281 31.8974 0.00488281 33.8947V42.3684C0.00488281 44.3658 1.67328 46 3.71244 46H43.1979C45.268 46 46.9673 44.3355 46.9673 42.3079V3.69211C46.9673 1.66447 45.268 0 43.1979 0Z" fill="url(#paint3_linear_1813:737)"/>
</g>
<defs>
<linearGradient id="paint0_linear_1813:737" x1="0.00488281" y1="23" x2="46.9982" y2="23" gradientUnits="userSpaceOnUse">
<stop stop-color="white" stop-opacity="0.1"/>
<stop offset="1" stop-color="white" stop-opacity="0"/>
</linearGradient>
<linearGradient id="paint1_linear_1813:737" x1="0.00488281" y1="23" x2="46.9982" y2="23" gradientUnits="userSpaceOnUse">
<stop stop-color="white" stop-opacity="0.1"/>
<stop offset="1" stop-color="white" stop-opacity="0"/>
</linearGradient>
<linearGradient id="paint2_linear_1813:737" x1="22.9436" y1="22.4705" x2="45.3668" y2="45.3628" gradientUnits="userSpaceOnUse">
<stop stop-color="#BF360C" stop-opacity="0.2"/>
<stop offset="1" stop-color="#BF360C" stop-opacity="0.02"/>
</linearGradient>
<linearGradient id="paint3_linear_1813:737" x1="15.7524" y1="15.4436" x2="45.5026" y2="45.8162" gradientUnits="userSpaceOnUse">
<stop stop-color="white" stop-opacity="0.1"/>
<stop offset="1" stop-color="white" stop-opacity="0"/>
</linearGradient>
<clipPath id="clip0_1813:737">
<rect width="47" height="46" fill="white"/>
</clipPath>
</defs>
</svg>
