<svg width="57" height="56" viewBox="0 0 57 56" fill="none" xmlns="http://www.w3.org/2000/svg">
<g clip-path="url(#clip0_1813:737)">
<path d="M52.3879 0H42.0088C39.4983 0 37.4374 2.02632 37.4374 4.49474V17.6842H22.4119C19.9764 17.6842 17.9905 19.6368 17.9905 22.0684V36.8421H4.46381C1.99079 36.8421 0.00488281 38.7947 0.00488281 41.2263V51.5421C0.00488281 53.9737 1.99079 55.9263 4.46381 56H52.4254C54.9359 56 56.9968 53.9737 56.9968 51.5053V4.49474C56.9593 2.02632 54.8984 0 52.3879 0Z" fill="url(#paint0_linear_1813:737)"/>
<path d="M52.3879 0H42.0088C39.4983 0 37.4374 2.02632 37.4374 4.49474V17.6842H22.4119C19.9764 17.6842 17.9905 19.6368 17.9905 22.0684V36.8421H4.46381C1.99079 36.8421 0.00488281 38.7947 0.00488281 41.2263V51.5421C0.00488281 53.9737 1.99079 55.9263 4.46381 56H52.4254C54.9359 56 56.9968 53.9737 56.9968 51.5053V4.49474C56.9593 2.02632 54.8984 0 52.3879 0Z" fill="url(#paint1_linear_1813:737)"/>
<path d="M52.3868 0H42.0826C39.5721 0 37.5112 2.02632 37.5112 4.49474V56H52.3868C54.8973 56 56.9582 53.9737 56.9582 51.5053V4.49474C56.9582 2.02632 54.8973 0 52.3868 0Z" fill="#F57C00"/>
<path d="M17.9895 22.1054V36.8422H4.50031C2.02729 36.8422 0.00390625 38.8317 0.00390625 41.2633V51.5791C0.00390625 54.0107 2.02729 56.0002 4.50031 56.0002H37.4739V17.6843H22.4859C20.0129 17.6843 17.9895 19.6738 17.9895 22.1054Z" fill="#FFC107"/>
<path d="M37.4741 17.6843V56.0002H52.3497C54.8602 56.0002 56.9211 53.9738 56.9211 51.5054V36.8422L37.4741 17.6843Z" fill="url(#paint2_linear_1813:737)"/>
<path opacity="0.2" d="M22.4861 18.0527H37.4741V17.6843H22.4861C20.0131 17.6843 17.9897 19.6738 17.9897 22.1054V22.4738C17.9897 20.0422 20.0131 18.0527 22.4861 18.0527Z" fill="white"/>
<path opacity="0.2" d="M4.50031 37.2105H17.9895V36.842H4.50031C2.02729 36.842 0.00390625 38.8315 0.00390625 41.2631V41.6315C0.00390625 39.1999 2.02729 37.2105 4.50031 37.2105Z" fill="white"/>
<path opacity="0.2" d="M52.3868 0H42.0826C39.5721 0 37.5112 2.02632 37.5112 4.49474V4.86316C37.5112 2.39474 39.5721 0.368421 42.0826 0.368421H52.3868C54.8973 0.368421 56.9582 2.39474 56.9582 4.86316V4.49474C56.9582 2.02632 54.8973 0 52.3868 0Z" fill="white"/>
<path opacity="0.2" d="M52.387 55.6315H4.50031C2.02729 55.6315 0.00390625 53.642 0.00390625 51.2104V51.5788C0.00390625 54.0104 2.02729 55.9999 4.50031 55.9999H52.3495C54.86 55.9999 56.9208 53.9736 56.9208 51.5051V51.1367C56.9583 53.6052 54.8975 55.6315 52.387 55.6315Z" fill="#BF360C"/>
<path d="M52.3879 0H42.0837C39.5732 0 37.5124 2.02632 37.5124 4.49474V17.6842H22.5244C20.0513 17.6842 18.028 19.6737 18.028 22.1053V36.8421H4.50128C2.02826 36.8421 0.00488281 38.8316 0.00488281 41.2632V51.5789C0.00488281 54.0105 2.02826 56 4.50128 56H52.3879C54.8984 56 56.9593 53.9737 56.9593 51.5053V4.49474C56.9593 2.02632 54.8984 0 52.3879 0Z" fill="url(#paint3_linear_1813:737)"/>
</g>
<defs>
<linearGradient id="paint0_linear_1813:737" x1="0.00488281" y1="28" x2="56.9968" y2="28" gradientUnits="userSpaceOnUse">
<stop stop-color="white" stop-opacity="0.1"/>
<stop offset="1" stop-color="white" stop-opacity="0"/>
</linearGradient>
<linearGradient id="paint1_linear_1813:737" x1="0.00488281" y1="28" x2="56.9968" y2="28" gradientUnits="userSpaceOnUse">
<stop stop-color="white" stop-opacity="0.1"/>
<stop offset="1" stop-color="white" stop-opacity="0"/>
</linearGradient>
<linearGradient id="paint2_linear_1813:737" x1="27.8256" y1="27.3554" x2="55.1254" y2="55.1205" gradientUnits="userSpaceOnUse">
<stop stop-color="#BF360C" stop-opacity="0.2"/>
<stop offset="1" stop-color="#BF360C" stop-opacity="0.02"/>
</linearGradient>
<linearGradient id="paint3_linear_1813:737" x1="19.103" y1="18.8009" x2="55.3232" y2="55.6384" gradientUnits="userSpaceOnUse">
<stop stop-color="white" stop-opacity="0.1"/>
<stop offset="1" stop-color="white" stop-opacity="0"/>
</linearGradient>
<clipPath id="clip0_1813:737">
<rect width="57" height="56" fill="white"/>
</clipPath>
</defs>
</svg>
