<svg width="59" height="59" viewBox="0 0 59 59" fill="none" xmlns="http://www.w3.org/2000/svg">
<path d="M12.4917 0H15.1421V2.62734H17.5851V0H20.2354V7.95117H17.5851V5.30078H15.1651V7.95117H12.4917V0ZM23.7386 2.65039H21.3993V0H28.7397V2.65039H26.389V7.95117H23.7386V2.65039ZM29.9036 0H32.6808L34.3862 2.8002L36.0917 0H38.8688V7.95117H36.2185V4.01016L34.3632 6.86797L32.5079 4.01016V7.95117H29.9036V0ZM40.1825 0H42.8329V5.32383H46.5895V7.95117H40.1825" fill="white"/>
<path d="M12.3989 54.2753L8.59619 11.5925H50.4032L46.6005 54.2523L29.4651 58.9999" fill="#E44D26"/>
<path d="M29.5 55.3701V15.0957H46.5893L43.3281 51.5098" fill="#F16529"/>
<path d="M16.3633 20.3157H29.5V25.5473H22.102L22.5859 30.9057H29.5V36.1258H17.7922L16.3633 20.3157ZM18.0227 38.7532H23.2773L23.6461 42.9362L29.5 44.5034V49.9655L18.7602 46.9694" fill="#EBEBEB"/>
<path d="M42.5907 20.3157H29.4771V25.5473H42.1067L42.5907 20.3157ZM41.6343 30.9057H29.4771V36.1373H35.9302L35.3194 42.9362L29.4771 44.5034V49.9424L40.1939 46.9694" fill="white"/>
</svg>
