<?xml version="1.0" encoding="UTF-8"?>
<svg width="93px" height="13px" viewBox="0 0 93 13" version="1.1" xmlns="http://www.w3.org/2000/svg" xmlns:xlink="http://www.w3.org/1999/xlink">
    <title>Group</title>
    <defs>
        <linearGradient x1="67.6028335%" y1="40.3276946%" x2="40.8024701%" y2="81.5691716%" id="linearGradient-1">
            <stop stop-color="#0052CC" offset="18%"></stop>
            <stop stop-color="#2684FF" offset="100%"></stop>
        </linearGradient>
        <linearGradient x1="1650.9243%" y1="6027.98359%" x2="2571.5709%" y2="5107.34102%" id="linearGradient-2">
            <stop stop-color="#0052CC" offset="18%"></stop>
            <stop stop-color="#2684FF" offset="100%"></stop>
        </linearGradient>
    </defs>
    <g id="Page-1" stroke="none" stroke-width="1" fill="none" fill-rule="evenodd">
        <g id="Group" fill-rule="nonzero">
            <path d="M17.3135,1.4292 L18.5684,1.4292 L18.5684,7.8124 C18.5684,9.50347 17.8301,10.6705 16.0999,10.6705 C15.5883,10.6783 15.0791,10.5977 14.5947,10.4324 L14.5947,9.20971 C15.0079,9.37025 15.4476,9.45107 15.8908,9.44789 C16.9507,9.44789 17.3167,8.81275 17.3167,7.89655 L17.3135,1.4292 Z" id="Path" fill="#FFFFFF"></path>
            <path d="M20.8542,0.938524 C20.9661,0.930498 21.0784,0.946681 21.1836,0.985975 C21.2887,1.02527 21.3842,1.08676 21.4635,1.16627 C21.5428,1.24578 21.6042,1.34146 21.6434,1.44682 C21.6826,1.55218 21.6988,1.66475 21.6907,1.77691 C21.6907,1.99927 21.6026,2.21252 21.4457,2.36975 C21.2888,2.52697 21.0761,2.6153 20.8542,2.6153 C20.6323,2.6153 20.4195,2.52697 20.2626,2.36975 C20.1058,2.21252 20.0176,1.99927 20.0176,1.77691 C20.0096,1.66475 20.0258,1.55218 20.065,1.44682 C20.1042,1.34146 20.1655,1.24578 20.2449,1.16627 C20.3242,1.08676 20.4197,1.02527 20.5248,0.985975 C20.6299,0.946681 20.7423,0.930498 20.8542,0.938524 Z M20.241,3.62201 L21.4404,3.62201 L21.4404,10.6086 L20.241,10.6086 L20.241,3.62201 Z" id="Shape" fill="#FFFFFF"></path>
            <path d="M23.252,3.62038 L24.4228,3.62038 L24.4228,4.84939 C24.8268,4.02529 25.5319,3.43778 26.8913,3.52193 L26.8913,4.69536 C25.3576,4.53658 24.4228,5.00341 24.4228,6.4833 L24.4228,10.6117 L23.252,10.6117 L23.252,3.62038 Z" id="Path" fill="#FFFFFF"></path>
            <path d="M32.5088,9.34969 C32.062,10.2722 31.2254,10.747 30.1528,10.747 C28.299,10.747 27.3643,9.16867 27.3643,7.11398 C27.3643,5.14345 28.3402,3.48096 30.2922,3.48096 C31.3094,3.48096 32.0905,3.94144 32.5104,4.84969 L32.5104,3.62069 L33.7097,3.62069 L33.7097,10.6073 L32.5104,10.6073 L32.5088,9.34969 Z M30.4728,9.62915 C31.5471,9.62915 32.5088,8.94479 32.5088,7.39345 L32.5088,6.82817 C32.5088,5.27683 31.631,4.59246 30.6075,4.59246 C29.2544,4.59246 28.5573,5.48642 28.5573,7.10763 C28.5636,8.79076 29.2323,9.62915 30.4744,9.62915 L30.4728,9.62915 Z" id="Shape" fill="#FFFFFF"></path>
            <path d="M40.805,10.747 C39.0337,10.747 38.2114,10.3976 37.5,10.034 L37.5,8.74944 C38.3508,9.19722 39.6611,9.51797 40.8732,9.51797 C42.2532,9.51797 42.7744,8.97333 42.7744,8.16193 C42.7744,7.35054 42.2722,6.91864 40.5294,6.49944 C38.4696,5.99609 37.5459,5.28314 37.5459,3.77468 C37.5459,2.3456 38.6328,1.28809 40.767,1.28809 C42.0916,1.28809 42.9424,1.60566 43.5698,1.95816 L43.5698,3.21575 C42.6976,2.73408 41.7135,2.49299 40.7179,2.51709 C39.5185,2.51709 38.8071,2.93629 38.8071,3.77468 C38.8071,4.52891 39.3933,4.90682 41.0094,5.31172 C42.9471,5.80079 44.0356,6.42323 44.0356,8.07778 C44.0261,9.6704 43.0786,10.747 40.805,10.747 Z" id="Path" fill="#FFFFFF"></path>
            <path d="M45.0859,7.09969 C45.0859,5.00371 46.3123,3.48096 48.4037,3.48096 C50.4951,3.48096 51.6944,5.00371 51.6944,7.09969 C51.6944,9.19567 50.4808,10.7518 48.4037,10.7518 C46.3265,10.7518 45.0859,9.19567 45.0859,7.09969 Z M46.2568,7.09969 C46.2568,8.42714 46.9127,9.62915 48.4037,9.62915 C49.8946,9.62915 50.5236,8.42714 50.5236,7.09969 C50.5236,5.77224 49.8819,4.60516 48.4037,4.60516 C46.9254,4.60516 46.2631,5.77224 46.2631,7.09969 L46.2568,7.09969 Z" id="Shape" fill="#FFFFFF"></path>
            <path d="M54.7477,3.62057 L56.546,3.62057 L56.546,4.73207 L54.7477,4.73207 L54.7477,10.6072 L53.5768,10.6072 L53.5768,4.73207 L52.4424,4.73207 L52.4424,3.62057 L53.5721,3.62057 L53.5721,2.8584 C53.5721,1.55953 54.2977,0.678223095 55.7902,0.678223095 C56.0634,0.676741 56.3355,0.714166 56.5982,0.789418 L56.5982,1.90092 C56.3502,1.85364 56.0982,1.83025 55.8457,1.83105 C55.1073,1.83105 54.7366,2.26454 54.7366,2.89333 L54.7477,3.62057 Z" id="Path" fill="#FFFFFF"></path>
            <path d="M60.6033,9.43355 C60.8568,9.42597 61.109,9.39299 61.3559,9.3351 L61.3559,10.4942 C61.0932,10.5696 60.8211,10.607 60.5479,10.6054492 C59.0554,10.6054492 58.3297,9.72571 58.3297,8.42526 L58.3297,4.73824 L57.1953,4.73824 L57.1953,3.62674 L58.325,3.62674 L58.325,2.13892 L59.4958,2.13892 L59.4958,3.62039 L61.3496,3.62039 L61.3496,4.73189 L59.4958,4.73189 L59.4958,8.39985 C59.5022,9.01435 59.865,9.43355 60.6033,9.43355 Z" id="Path" fill="#FFFFFF"></path>
            <polygon id="Path" fill="#FFFFFF" points="61.6924 3.62061 63.0169 3.62061 65.0244 9.54491 67.0587 3.62061 68.2026 3.62061 70.2386 9.54491 72.2476 3.62061 73.5722 3.62061 71.007 10.6072 69.4733 10.6072 68.2739 7.22664 67.6402 5.07509 67.0064 7.22664 65.7912 10.6072 64.2575 10.6072"></polygon>
            <path d="M79.0488,9.34969 C78.602,10.2722 77.7655,10.747 76.6928,10.747 C74.8391,10.747 73.9043,9.16867 73.9043,7.11398 C73.9043,5.14345 74.8803,3.48096 76.8323,3.48096 C77.8494,3.48096 78.6305,3.94144 79.0504,4.84969 L79.0504,3.62069 L80.2498,3.62069 L80.2498,10.6073 L79.0504,10.6073 L79.0488,9.34969 Z M77.0129,9.62915 C78.0871,9.62915 79.0488,8.94479 79.0488,7.39345 L79.0488,6.82817 C79.0488,5.27683 78.1711,4.59246 77.1475,4.59246 C75.8008,4.60516 75.0989,5.49278 75.0989,7.11398 C75.0989,8.79076 75.7723,9.62915 77.0145,9.62915 L77.0129,9.62915 Z" id="Shape" fill="#FFFFFF"></path>
            <path d="M82.061,3.62038 L83.2319,3.62038 L83.2319,4.84939 C83.6359,4.02529 84.341,3.43778 85.7004,3.52193 L85.7004,4.69536 C84.1667,4.53658 83.2319,5.00341 83.2319,6.4833 L83.2319,10.6117 L82.061,10.6117 L82.061,3.62038 Z" id="Path" fill="#FFFFFF"></path>
            <path d="M89.9246,10.7466 C87.3167,10.7466 86.1743,9.23818 86.1743,7.09456 C86.1743,4.9843 87.3452,3.47583 89.4651,3.47583 C91.6119,3.47583 92.4754,4.97159 92.4754,7.09456 L92.4754,7.6392 L87.388,7.6392 C87.5559,8.82692 88.3228,9.59544 89.9673,9.59544 C90.6906,9.59478 91.4081,9.46687 92.0873,9.21753 L92.0873,10.329 C91.5153,10.6387 90.636,10.7466 89.9246,10.7466 Z M87.3737,6.61821 L91.2602,6.61821 C91.1905,5.31934 90.6043,4.57781 89.4065,4.57781 C88.1405,4.57145 87.4989,5.39873 87.3737,6.61027 L87.3737,6.61821 Z" id="Shape" fill="#FFFFFF"></path>
            <path d="M11.4706,5.67819 L6.30546,0.501764 L5.80479,0 L1.9167,3.89661 L0.139008,5.67819 C0.0499968,5.76751 0,5.88858 0,6.01482 C0,6.14105 0.0499968,6.26212 0.139008,6.35144 L3.69121,9.91142 L5.80479,12.0296 L9.69289,8.13302 L9.7531,8.07268 L11.4706,6.35144 C11.5596,6.26212 11.6096,6.14105 11.6096,6.01482 C11.6096,5.88858 11.5596,5.76751 11.4706,5.67819 Z M5.80479,7.79322 L4.03027,6.01482 L5.80479,4.23641 L7.57931,6.01482 L5.80479,7.79322 Z" id="Shape" fill="#2684FF"></path>
            <path d="M5.80471,4.23653 C5.2466,3.67713 4.93201,2.91914 4.92964,2.12808 C4.92726,1.33703 5.23729,0.577158 5.79204,0.0144043 L1.90869,3.90466 L4.02227,6.02287 L5.80471,4.23653 Z" id="Path" fill="url(#linearGradient-1)"></path>
            <path d="M7.58396,6.0105 L5.80469,7.79367 C6.08235,8.07177 6.30262,8.40199 6.4529,8.76544 C6.60318,9.12889 6.68053,9.51845 6.68053,9.91187 C6.68053,10.3053 6.60318,10.6949 6.4529,11.0583 C6.30262,11.4218 6.08235,11.752 5.80469,12.0301 L9.69754,8.1287 L7.58396,6.0105 Z" id="Path" fill="url(#linearGradient-2)"></path>
        </g>
    </g>
</svg>