<?xml version="1.0" encoding="UTF-8"?>
<svg width="74px" height="45px" viewBox="0 0 74 45" version="1.1" xmlns="http://www.w3.org/2000/svg" xmlns:xlink="http://www.w3.org/1999/xlink">
    <title>nextjs</title>
    <g id="Page-1" stroke="none" stroke-width="1" fill="none" fill-rule="evenodd">
        <g id="nextjs" fill="#FFFFFF" fill-rule="nonzero">
            <path d="M17.4424,11.5941 L31.3847,11.5941 L31.3847,12.6987 L18.7204,12.6987 L18.7204,21.0124 L30.6295,21.0124 L30.6295,22.117 L18.7204,22.117 L18.7204,31.2446 L31.5299,31.2446 L31.5299,32.3492 L17.4424,32.3492 L17.4424,11.5941 Z M32.6337,11.5941 L34.1151,11.5941 L40.6796,20.7217 L47.3893,11.5941 L56.5157,0 L41.5219,21.681 L49.2483,32.3492 L47.7089,32.3492 L40.6796,22.6402 L33.6213,32.3492 L32.1109,32.3492 L39.8953,21.681 L32.6337,11.5941 Z M49.8002,12.6987 L49.8002,11.5941 L65.6887,11.5941 L65.6887,12.6987 L58.3689,12.6987 L58.3689,32.3492 L57.0909,32.3492 L57.0909,12.6987 L49.8002,12.6987 Z" id="Shape"></path>
            <polygon id="Path" points="0 11.594 1.59756 11.594 23.627 44.4535 14.5233 32.3491 1.33614 13.1637 1.27805 32.3491 0 32.3491"></polygon>
            <path d="M65.5605,30.9111 C65.8247,30.9111 66.0174,30.7094 66.0174,30.4488 C66.0174,30.1882 65.8247,29.9865 65.5605,29.9865 C65.2994,29.9865 65.1035,30.1882 65.1035,30.4488 C65.1035,30.7094 65.2994,30.9111 65.5605,30.9111 Z M66.8163,29.6949 C66.8163,30.4643 67.3727,30.9669 68.184,30.9669 C69.0482,30.9669 69.5704,30.4488 69.5704,29.549 L69.5704,26.3813 L68.8741,26.3813 L68.8741,29.5459 C68.8741,30.0455 68.6223,30.3123 68.1778,30.3123 C67.7799,30.3123 67.5095,30.0641 67.5002,29.6949 L66.8163,29.6949 Z M70.4812,29.6545 C70.531,30.455 71.1993,30.9669 72.194,30.9669 C73.2571,30.9669 73.9223,30.4302 73.9223,29.5739 C73.9223,28.9006 73.5431,28.5283 72.623,28.3142 L72.1287,28.1932 C71.5443,28.0567 71.3081,27.8736 71.3081,27.5541 C71.3081,27.1507 71.6749,26.887 72.2251,26.887 C72.7473,26.887 73.1079,27.1445 73.1732,27.5572 L73.8508,27.5572 C73.8104,26.8032 73.1452,26.2727 72.2344,26.2727 C71.2552,26.2727 70.6025,26.8032 70.6025,27.6006 C70.6025,28.2584 70.9724,28.6493 71.7837,28.8386 L72.3619,28.9782 C72.9556,29.1178 73.2167,29.3226 73.2167,29.6638 C73.2167,30.061 72.8064,30.3495 72.2469,30.3495 C71.6469,30.3495 71.2304,30.0796 71.1713,29.6545 L70.4812,29.6545 Z" id="Shape"></path>
        </g>
    </g>
</svg>