<svg width="55" height="27" viewBox="0 0 55 27" fill="none" xmlns="http://www.w3.org/2000/svg">
<g clip-path="url(#clip0_1813:788)">
<path d="M3.57604 6.40905V8.26419H3.65502C3.81232 8.00603 4.01802 7.74276 4.27212 7.47509C4.52578 7.20742 4.83686 6.96758 5.2047 6.75489C5.57232 6.54335 5.98812 6.36753 6.45232 6.22882C6.91586 6.09058 7.43726 6.021 8.01498 6.021C8.90818 6.021 9.73098 6.20122 10.484 6.56098C11.2369 6.92166 11.885 7.41548 12.428 8.0429C12.9705 8.67079 13.3907 9.40932 13.6886 10.2583C13.9862 11.1077 14.1352 12.0215 14.1352 12.9999C14.1352 13.9783 13.9906 14.8968 13.7015 15.7552C13.4129 16.6137 13.0008 17.3613 12.4671 17.9982C11.9327 18.6351 11.2853 19.1436 10.5234 19.5212C9.76156 19.8995 8.89894 20.0888 7.93622 20.0888C7.04302 20.0888 6.2244 19.8949 5.48036 19.5075C4.73566 19.1197 4.16256 18.5938 3.75996 17.9286H3.7076V26.3472H0.555664V6.40905H3.57604ZM10.9306 12.9997C10.9306 12.4827 10.8561 11.9703 10.7073 11.4625C10.5582 10.955 10.3351 10.4981 10.0374 10.0917C9.73956 9.68627 9.36336 9.35829 8.90796 9.10872C8.45256 8.8596 7.91862 8.73504 7.30592 8.73504C6.72798 8.73504 6.2112 8.86424 5.75624 9.12286C5.30084 9.38149 4.911 9.7141 4.58738 10.1196C4.2631 10.5259 4.01824 10.9875 3.85192 11.5045C3.68516 12.0215 3.60244 12.5388 3.60244 13.0553C3.60244 13.5724 3.68516 14.0847 3.85192 14.592C4.01824 15.1002 4.2631 15.5569 4.58738 15.9633C4.91122 16.3692 5.30084 16.6972 5.75624 16.9458C6.2112 17.1954 6.72798 17.3195 7.30592 17.3195C7.91862 17.3195 8.45256 17.1908 8.90796 16.9322C9.36314 16.6735 9.73956 16.3414 10.0374 15.935C10.3351 15.5291 10.5582 15.0675 10.7073 14.5505C10.8561 14.0335 10.9306 13.5165 10.9306 12.9997Z" fill="black"/>
<path d="M41.6534 5.77417V20.5044C41.6534 21.2981 41.592 22.0506 41.4695 22.7613C41.3465 23.472 41.1151 24.0903 40.7734 24.6169C40.4322 25.1434 39.9678 25.5628 39.3812 25.8768C38.7943 26.1909 38.0287 26.3475 37.0829 26.3475C36.8204 26.3475 36.5578 26.3289 36.2949 26.2922C36.0324 26.2551 35.8223 26.218 35.6646 26.1811L35.9275 23.3565C36.0676 23.3936 36.2161 23.4212 36.3738 23.4397C36.5316 23.4578 36.6713 23.4673 36.794 23.4673C37.1614 23.4673 37.4591 23.3936 37.687 23.2458C37.9143 23.0976 38.0896 22.8946 38.2126 22.6365C38.3347 22.3779 38.4137 22.0779 38.4489 21.7363C38.4836 21.3946 38.5012 21.0305 38.5012 20.6426V5.77417H41.6534Z" fill="black"/>
<path d="M52.396 9.95348C52.1155 9.56566 51.7305 9.2291 51.2402 8.94287C50.7498 8.65664 50.2158 8.5133 49.6379 8.5133C49.1299 8.5133 48.6664 8.6244 48.2462 8.84592C47.8255 9.06696 47.6159 9.43669 47.6159 9.95348C47.6159 10.4703 47.8475 10.8356 48.3115 11.0471C48.7755 11.2596 49.4544 11.4767 50.3474 11.6982C50.82 11.8093 51.2969 11.9568 51.7787 12.1412C52.2605 12.3256 52.6983 12.5703 53.0923 12.8751C53.4859 13.1794 53.8056 13.5582 54.0509 14.0105C54.2957 14.4631 54.4187 15.0121 54.4187 15.6583C54.4187 16.471 54.274 17.1588 53.9851 17.7215C53.6965 18.2847 53.311 18.7416 52.8292 19.0923C52.3474 19.443 51.7873 19.697 51.1482 19.8538C50.5089 20.0106 49.8484 20.089 49.1651 20.089C48.1841 20.089 47.2302 19.8997 46.302 19.5214C45.3739 19.1436 44.6034 18.6031 43.9907 17.9019L46.0658 15.8524C46.416 16.3326 46.871 16.7294 47.4317 17.043C47.9921 17.3571 48.6134 17.5137 49.2967 17.5137C49.5239 17.5137 49.756 17.4865 49.9928 17.4309C50.229 17.3756 50.4477 17.2882 50.6492 17.1681C50.8503 17.0479 51.0122 16.8867 51.1352 16.6833C51.2573 16.4799 51.3187 16.2312 51.3187 15.9352C51.3187 15.3811 51.078 14.9847 50.5969 14.7446C50.1149 14.5046 49.3924 14.2645 48.4299 14.0247C47.9569 13.9136 47.4971 13.7709 47.0505 13.5951C46.6041 13.4197 46.2057 13.1892 45.8554 12.903C45.5048 12.6167 45.2251 12.2618 45.015 11.8364C44.8049 11.412 44.6996 10.8859 44.6996 10.258C44.6996 9.5195 44.8439 8.88303 45.1332 8.34769C45.4218 7.81165 45.8031 7.37419 46.2756 7.0316C46.7482 6.6904 47.2824 6.43642 47.8779 6.27057C48.473 6.10427 49.0861 6.021 49.7164 6.021C50.6266 6.021 51.5156 6.1873 52.3822 6.51923C53.2488 6.85184 53.9358 7.36004 54.4442 8.04267L52.396 9.95348Z" fill="black"/>
<path d="M33.7832 16.8898L35.6605 16.2923L36.0292 17.4883L34.1596 18.1605L35.3201 19.8955L34.3418 20.6437L33.1201 18.9394L31.9304 20.5987L30.9802 19.8358L32.1407 18.1605L30.2568 17.4437L30.6258 16.2469L32.5176 16.8896V14.8264H33.7834V16.8898H33.7832Z" fill="black"/>
<path d="M27.2991 10.6318C26.975 9.86611 26.5245 9.21967 25.9465 8.69337C25.3688 8.16731 24.6901 7.76557 23.9111 7.48886C23.1316 7.21214 22.2866 7.07343 21.3765 7.07343C21.0436 7.07343 20.6716 7.09245 20.2602 7.12864C19.8486 7.16621 19.4941 7.23046 19.1965 7.32301L19.3802 3.08575H26.9711V0.0952148H16.386L16.0707 10.8115C16.3503 10.6643 16.6702 10.5258 17.0293 10.3961C17.3881 10.2674 17.7557 10.1519 18.1323 10.0505C18.5088 9.94892 18.8942 9.87075 19.2882 9.81485C19.6822 9.75965 20.054 9.73205 20.4045 9.73205C20.912 9.73205 21.4112 9.79189 21.9016 9.91181C22.3918 10.032 22.834 10.2444 23.228 10.5487C23.622 10.8531 23.9412 11.255 24.1867 11.7533C24.4316 12.2515 24.5544 12.8794 24.5544 13.6365C24.5544 14.2272 24.4624 14.7582 24.2785 15.2288C24.0948 15.699 23.8451 16.0919 23.5303 16.4052C23.2148 16.7195 22.8474 16.9594 22.4267 17.1252C22.0065 17.292 21.5602 17.3748 21.0872 17.3748C20.247 17.3748 19.5199 17.1391 18.9072 16.6685C18.294 16.1979 17.8567 15.5749 17.5938 14.7992L17.5588 14.8129L15.2778 17.0663C15.7392 17.8596 16.3338 18.5232 17.0686 19.0502C18.1365 19.8158 19.4497 20.1995 21.0086 20.1995C21.9366 20.1995 22.812 20.0422 23.635 19.7289C24.4578 19.4153 25.1759 18.9627 25.7888 18.3715C26.4015 17.7812 26.8875 17.0563 27.2467 16.1979C27.6053 15.3394 27.7848 14.3659 27.7848 13.2762C27.7851 12.2793 27.6231 11.3984 27.2991 10.6318Z" fill="black"/>
</g>
<defs>
<clipPath id="clip0_1813:788">
<rect width="55" height="26.4423" fill="white"/>
</clipPath>
</defs>
</svg>
