<?xml version="1.0" encoding="UTF-8"?>
<svg width="55px" height="27px" viewBox="0 0 55 27" version="1.1" xmlns="http://www.w3.org/2000/svg" xmlns:xlink="http://www.w3.org/1999/xlink">
    <title>p5js</title>
    <g id="Page-1" stroke="none" stroke-width="1" fill="none" fill-rule="evenodd">
        <g id="p5js" transform="translate(0.555664, 0.095215)" fill="#FFFFFF" fill-rule="nonzero">
            <path d="M3.020376,6.3138352 L3.020376,8.1689752 L3.099356,8.1689752 C3.256656,7.9108152 3.462356,7.6475452 3.716456,7.3798752 C3.970116,7.1122052 4.281196,6.8723652 4.649036,6.6596752 C5.016656,6.4481352 5.432456,6.2723152 5.896656,6.1336052 C6.360196,5.9953652 6.881596,5.9257852 7.459316,5.9257852 C8.352516,5.9257852 9.175316,6.1060052 9.928336,6.4657652 C10.681236,6.8264452 11.329336,7.3202652 11.872336,7.9476852 C12.414836,8.5755752 12.835036,9.3141052 13.132936,10.1630852 C13.430536,11.0124852 13.579536,11.9262852 13.579536,12.9046852 C13.579536,13.8830852 13.434936,14.8015852 13.145836,15.6599852 C12.857236,16.5184852 12.445136,17.2660852 11.911436,17.9029852 C11.377036,18.5398852 10.729636,19.0483852 9.967736,19.4259852 C9.205896,19.8042852 8.343276,19.9935852 7.380556,19.9935852 C6.487356,19.9935852 5.668736,19.7996852 4.924696,19.4122852 C4.179996,19.0244852 3.606896,18.4985852 3.204296,17.8333852 L3.151936,17.8333852 L3.151936,26.2519852 L0,26.2519852 L0,6.3138352 L3.020376,6.3138352 Z M10.374936,12.9044852 C10.374936,12.3874852 10.300436,11.8750852 10.151636,11.3672852 C10.002536,10.8597852 9.779436,10.4028852 9.481736,9.9964852 C9.183896,9.5910552 8.807696,9.2630752 8.352296,9.0135052 C7.896896,8.7643852 7.362956,8.6398252 6.750256,8.6398252 C6.172316,8.6398252 5.655536,8.7690252 5.200576,9.0276452 C4.745176,9.2862752 4.355336,9.6188852 4.031716,10.0243852 C3.707436,10.4306852 3.462576,10.8922852 3.296256,11.4092852 C3.129496,11.9262852 3.046776,12.4435852 3.046776,12.9600852 C3.046776,13.4771852 3.129496,13.9894852 3.296256,14.4967852 C3.462576,15.0049852 3.707436,15.4616852 4.031716,15.8680852 C4.355556,16.2739852 4.745176,16.6019852 5.200576,16.8505852 C5.655536,17.1001852 6.172316,17.2242852 6.750256,17.2242852 C7.362956,17.2242852 7.896896,17.0955852 8.352296,16.8369852 C8.807476,16.5782852 9.183896,16.2461852 9.481736,15.8397852 C9.779436,15.4338852 10.002536,14.9722852 10.151636,14.4552852 C10.300436,13.9382852 10.374936,13.4212852 10.374936,12.9044852 Z" id="Shape"></path>
            <path d="M41.097736,5.6789552 L41.097736,20.4091852 C41.097736,21.2028852 41.036336,21.9553852 40.913836,22.6660852 C40.790836,23.3767852 40.559436,23.9950852 40.217736,24.5216852 C39.876536,25.0481852 39.412136,25.4675852 38.825536,25.7815852 C38.238636,26.0956852 37.473036,26.2522852 36.527236,26.2522852 C36.264736,26.2522852 36.002136,26.2336852 35.739236,26.1969852 C35.476736,26.1598852 35.266636,26.1227852 35.108936,26.0858852 L35.371836,23.2612852 C35.511936,23.2983852 35.660436,23.3259852 35.818136,23.3444852 C35.975936,23.3625852 36.115636,23.3720852 36.238336,23.3720852 C36.605736,23.3720852 36.903436,23.2983852 37.131336,23.1505852 C37.358636,23.0023852 37.533936,22.7993852 37.656936,22.5412852 C37.779036,22.2826852 37.858036,21.9826852 37.893236,21.6410852 C37.927936,21.2993852 37.945536,20.9352852 37.945536,20.5473852 L37.945536,5.6789552 L41.097736,5.6789552 Z" id="Path"></path>
            <path d="M51.840336,9.8582652 C51.559836,9.4704452 51.174836,9.1338852 50.684536,8.8476552 C50.194136,8.5614252 49.660136,8.4180852 49.082236,8.4180852 C48.574236,8.4180852 48.110736,8.5291852 47.690536,8.7507052 C47.269836,8.9717452 47.060236,9.3414752 47.060236,9.8582652 C47.060236,10.3750852 47.291836,10.7403852 47.755836,10.9518852 C48.219836,11.1643852 48.898736,11.3814852 49.791736,11.6029852 C50.264336,11.7140852 50.741236,11.8615852 51.223036,12.0459852 C51.704836,12.2303852 52.142636,12.4750852 52.536636,12.7798852 C52.930236,13.0841852 53.249936,13.4629852 53.495236,13.9152852 C53.740036,14.3678852 53.863036,14.9168852 53.863036,15.5630852 C53.863036,16.3757852 53.718336,17.0635852 53.429436,17.6262852 C53.140836,18.1894852 52.755336,18.6463852 52.273536,18.9970852 C51.791736,19.3477852 51.231636,19.6017852 50.592536,19.7585852 C49.953236,19.9153852 49.292736,19.9937852 48.609436,19.9937852 C47.628436,19.9937852 46.674536,19.8044852 45.746336,19.4261852 C44.818236,19.0483852 44.047736,18.5078852 43.435036,17.8066852 L45.510136,15.7571852 C45.860336,16.2373852 46.315336,16.6341852 46.876036,16.9477852 C47.436436,17.2618852 48.057736,17.4184852 48.741036,17.4184852 C48.968236,17.4184852 49.200336,17.3912852 49.437136,17.3356852 C49.673336,17.2803852 49.892036,17.1929852 50.093536,17.0728852 C50.294636,16.9526852 50.456536,16.7914852 50.579536,16.5880852 C50.701636,16.3846852 50.763036,16.1359852 50.763036,15.8399852 C50.763036,15.2858852 50.522336,14.8894852 50.041236,14.6493852 C49.559236,14.4093852 48.836736,14.1692852 47.874236,13.9294852 C47.401236,13.8183852 46.941436,13.6756852 46.494836,13.4998852 C46.048436,13.3244852 45.650036,13.0939852 45.299736,12.8077852 C44.949136,12.5214852 44.669436,12.1665852 44.459336,11.7411852 C44.249236,11.3167852 44.143936,10.7906852 44.143936,10.1627852 C44.143936,9.4242852 44.288236,8.7878152 44.577536,8.2524752 C44.866136,7.7164352 45.247436,7.2789752 45.719936,6.9363852 C46.192536,6.5951852 46.726736,6.3412052 47.322236,6.1753552 C47.917336,6.0090552 48.530436,5.9257852 49.160736,5.9257852 C50.070936,5.9257852 50.959936,6.0920852 51.826536,6.4240152 C52.693136,6.7566252 53.380136,7.2648252 53.888536,7.9474552 L51.840336,9.8582652 Z" id="Path"></path>
            <polygon id="Path" points="33.227536 16.7945852 35.104836 16.1970852 35.473536 17.3930852 33.603936 18.0652852 34.764436 19.8002852 33.786136 20.5484852 32.564436 18.8441852 31.374736 20.5034852 30.424536 19.7405852 31.585036 18.0652852 29.701136 17.3484852 30.070136 16.1516852 31.961936 16.7943852 31.961936 14.7311852 33.227736 14.7311852 33.227736 16.7945852"></polygon>
            <path d="M26.743436,10.5365852 C26.419336,9.7708952 25.968836,9.1244552 25.390836,8.5981552 C24.813136,8.0720952 24.134436,7.6703552 23.355436,7.3936452 C22.575936,7.1169252 21.730936,6.9782152 20.820836,6.9782152 C20.487936,6.9782152 20.115936,6.9972352 19.704536,7.0334252 C19.292936,7.0709952 18.938436,7.1352452 18.640836,7.2277952 L18.824536,2.9905352 L26.415436,2.9905352 L26.415436,0 L15.830336,0 L15.515036,10.7162852 C15.794636,10.5690852 16.114536,10.4305852 16.473636,10.3008852 C16.832436,10.1721852 17.200036,10.0566852 17.576636,9.9552852 C17.953136,9.8537052 18.338536,9.7755352 18.732536,9.7196352 C19.126536,9.6644352 19.498336,9.6368352 19.848836,9.6368352 C20.356336,9.6368352 20.855536,9.6966752 21.345936,9.8165952 C21.836136,9.9367852 22.278336,10.1491852 22.672336,10.4534852 C23.066336,10.7578852 23.385536,11.1597852 23.631036,11.6580852 C23.875936,12.1562852 23.998736,12.7841852 23.998736,13.5412852 C23.998736,14.1319852 23.906736,14.6629852 23.722836,15.1335852 C23.539136,15.6037852 23.289436,15.9966852 22.974636,16.3099852 C22.659136,16.6242852 22.291736,16.8641852 21.871036,17.0299852 C21.450836,17.1967852 21.004536,17.2795852 20.531536,17.2795852 C19.691336,17.2795852 18.964236,17.0438852 18.351536,16.5732852 C17.738336,16.1026852 17.301036,15.4796852 17.038136,14.7039852 L17.003136,14.7176852 L14.722136,16.9710852 C15.183536,17.7643852 15.778136,18.4279852 16.512936,18.9549852 C17.580836,19.7205852 18.894036,20.1042852 20.452936,20.1042852 C21.380936,20.1042852 22.256336,19.9469852 23.079336,19.6336852 C23.902136,19.3200852 24.620236,18.8674852 25.233136,18.2762852 C25.845836,17.6859852 26.331836,16.9610852 26.691036,16.1026852 C27.049636,15.2441852 27.2291364,14.2706852 27.2291364,13.1809852 C27.229436,12.1840852 27.067436,11.3031852 26.743436,10.5365852 Z" id="Path"></path>
        </g>
    </g>
</svg>