<svg width="66" height="25" viewBox="0 0 66 25" fill="none" xmlns="http://www.w3.org/2000/svg">
<g clip-path="url(#clip0_1894:85)">
<path d="M48.5742 20.5223L50.4808 15.6716H55.986L53.3734 8.3133L56.6409 0L66 24.9999H59.098L57.4987 20.5223H48.5742Z" fill="#3D3D3D"/>
<path d="M42.6858 25L52.7048 0L46.0625 3.32196e-05L39.2089 16.1556L34.3353 6.64389e-05H29.2298L23.9968 16.1556L20.3065 8.79382L16.9668 19.1452L20.3575 25H26.8944L31.6231 10.5119L36.1317 25H42.6858Z" fill="#5A0FC8"/>
<path d="M6.30503 16.4183H10.3963C11.6356 16.4183 12.7392 16.2792 13.707 16.0009L14.7651 12.7214L17.7222 3.55575C17.4969 3.19645 17.2397 2.85674 16.9505 2.53665C15.4322 0.845855 13.2108 0.000488281 10.2862 0.000488281H0V25.0004H6.30503V16.4183ZM11.7205 5.75197C12.3135 6.35246 12.61 7.15603 12.61 8.16276C12.61 9.1772 12.3492 9.98176 11.8277 10.5764C11.2559 11.2372 10.2032 11.5676 8.6694 11.5676H6.30503V4.85117H8.68678C10.1162 4.85117 11.1275 5.15144 11.7205 5.75197Z" fill="#3D3D3D"/>
</g>
<defs>
<clipPath id="clip0_1894:85">
<rect width="66" height="25" fill="white"/>
</clipPath>
</defs>
</svg>
