<?xml version="1.0" encoding="UTF-8"?>
<svg width="66px" height="25px" viewBox="0 0 66 25" version="1.1" xmlns="http://www.w3.org/2000/svg" xmlns:xlink="http://www.w3.org/1999/xlink">
    <title>pwa</title>
    <g id="Page-1" stroke="none" stroke-width="1" fill="none" fill-rule="evenodd">
        <g id="pwa" fill-rule="nonzero">
            <polygon id="Path" fill="#FFFFFF" points="48.5742 20.5223 50.4808 15.6716 55.986 15.6716 53.3734 8.3133 56.6409 0 66 24.9999 59.098 24.9999 57.4987 20.5223"></polygon>
            <polygon id="Path" fill="#5A0FC8" points="42.6858 25 52.7048 0 46.0625 3.32196e-05 39.2089 16.1556 34.3353 6.64389e-05 29.2298 6.64389e-05 23.9968 16.1556 20.3065 8.79382 16.9668 19.1452 20.3575 25 26.8944 25 31.6231 10.5119 36.1317 25"></polygon>
            <path d="M6.30503,16.4183 L10.3963,16.4183 C11.6356,16.4183 12.7392,16.2792 13.707,16.0009 L14.7651,12.7214 L17.7222,3.55575 C17.4969,3.19645 17.2397,2.85674 16.9505,2.53665 C15.4322,0.845855 13.2108,0.000488281 10.2862,0.000488281 L0,0.000488281 L0,25.0004 L6.30503,25.0004 L6.30503,16.4183 Z M11.7205,5.75197 C12.3135,6.35246 12.61,7.15603 12.61,8.16276 C12.61,9.1772 12.3492,9.98176 11.8277,10.5764 C11.2559,11.2372 10.2032,11.5676 8.6694,11.5676 L6.30503,11.5676 L6.30503,4.85117 L8.68678,4.85117 C10.1162,4.85117 11.1275,5.15144 11.7205,5.75197 Z" id="Shape" fill="#FFFFFF"></path>
        </g>
    </g>
</svg>