<svg width="38" height="48" viewBox="0 0 38 48" fill="none" xmlns="http://www.w3.org/2000/svg">
<path d="M10.5585 0.110391C10.3172 0.117879 10.0573 0.207013 9.76262 0.439558C9.04083 0.161138 8.34082 0.0644118 7.71471 0.631224C6.74845 0.505841 6.43402 0.764607 6.19596 1.06664C5.98379 1.06225 4.60803 0.848503 3.97721 1.78956C2.39176 1.602 1.89075 2.72208 2.45846 3.76664C2.13466 4.2679 1.79916 4.76312 2.55637 5.71872C2.28851 6.25096 2.45454 6.82833 3.08554 7.52706C2.91902 8.27523 3.24634 8.80312 3.83346 9.21456C3.72365 10.2384 4.77236 10.8337 5.08554 11.0458C5.20578 11.6424 5.4564 12.2053 6.65429 12.5166C6.85184 13.4057 7.57176 13.5592 8.26887 13.7458C5.96474 15.0851 3.98883 16.8473 4.00221 21.1708L3.66471 21.7729C1.02265 23.3797 -1.35431 28.544 2.36262 32.7416C2.60541 34.0555 3.0126 34.9992 3.37512 36.0437C3.91738 40.2524 7.4563 42.2232 8.38971 42.4562C9.75747 43.4981 11.2143 44.4867 13.1855 45.1791C15.0439 47.0958 17.0571 47.8262 19.0814 47.825C19.111 47.825 19.1413 47.8253 19.171 47.825C21.1952 47.8262 23.2084 47.0958 25.0668 45.1791C27.0381 44.4867 28.4949 43.4981 29.8626 42.4562C30.796 42.2232 34.3349 40.2524 34.8772 36.0437C35.2397 34.9992 35.6469 34.0555 35.8897 32.7416C39.6066 28.544 37.2297 23.3797 34.5876 21.7729L34.2501 21.1708C34.2635 16.8473 32.2876 15.0851 29.9835 13.7458C30.6806 13.5592 31.4005 13.4057 31.598 12.5166C32.7959 12.2053 33.0465 11.6424 33.1668 11.0458C33.48 10.8337 34.5287 10.2384 34.4189 9.21456C35.006 8.80312 35.3333 8.27523 35.1668 7.52706C35.7978 6.82833 35.9638 6.25096 35.696 5.71872C36.4532 4.76312 36.1177 4.2679 35.7939 3.76664C36.3616 2.72208 35.8606 1.602 34.2751 1.78956C33.6443 0.848503 32.2685 1.06225 32.0564 1.06664C31.8183 0.764607 31.5039 0.505841 30.5376 0.631224C29.9115 0.0644118 29.2115 0.161138 28.4897 0.439558C27.6324 -0.236937 27.0649 0.305338 26.4168 0.510391C25.3785 0.171206 25.1413 0.635785 24.6314 0.824974C23.4997 0.585769 23.1557 1.10654 22.6126 1.65622L21.9814 1.64372C20.274 2.64993 19.4258 4.69876 19.1251 5.75206C18.8243 4.69859 17.978 2.64975 16.271 1.64372L15.6397 1.65622C15.0967 1.10654 14.7526 0.585769 13.621 0.824974C13.1111 0.635785 12.8738 0.171206 11.8355 0.510391C11.4102 0.375825 11.0191 0.0960959 10.5585 0.110391Z" fill="black"/>
<path d="M7.15948 4.53699C11.6893 6.87241 14.3226 8.76158 15.7653 10.3706C15.0265 13.3318 11.1722 13.4669 9.76292 13.3839C10.0515 13.2495 10.2922 13.0887 10.3776 12.8415C10.024 12.5902 8.77009 12.815 7.89471 12.3232C8.23098 12.2535 8.38828 12.1857 8.54557 11.9375C7.71852 11.6737 6.82766 11.4464 6.30372 11.0094C6.58647 11.0129 6.85046 11.0727 7.21974 10.8166C6.47896 10.4174 5.68847 10.101 5.07431 9.49075C5.45733 9.48138 5.87028 9.48697 5.99034 9.34612C5.31231 8.92607 4.74026 8.45893 4.26677 7.94797C4.80276 8.01267 5.02912 7.95696 5.15869 7.8636C4.64617 7.33866 3.99751 6.89539 3.68822 6.24851C4.0862 6.38567 4.45031 6.43818 4.71273 6.23645C4.53857 5.84356 3.79236 5.61181 3.36279 4.69368C3.78175 4.7343 4.2261 4.78508 4.31498 4.69368C4.12016 3.9011 3.78648 3.45567 3.45922 2.99421C4.35589 2.98089 5.7144 2.9977 5.65286 2.92189L5.09842 2.3554C5.97426 2.11959 6.87047 2.39328 7.52107 2.59646C7.81319 2.36595 7.51589 2.07446 7.15948 1.77686C7.90381 1.87624 8.5764 2.04735 9.18438 2.28308C9.5092 1.9898 8.97345 1.69651 8.71431 1.40322C9.86427 1.62139 10.3515 1.92793 10.8356 2.23487C11.1869 1.89815 10.8557 1.61199 10.6187 1.31885C11.4857 1.63998 11.9323 2.05455 12.4025 2.46388C12.5619 2.24874 12.8075 2.09105 12.511 1.57196C13.1266 1.92681 13.5903 2.34496 13.9332 2.81341C14.3141 2.57088 14.1602 2.23921 14.1623 1.93355C14.802 2.45398 15.208 3.00781 15.705 3.54864C15.8051 3.47575 15.8928 3.22853 15.9702 2.83752C17.4966 4.31831 19.6533 8.04807 16.5246 9.52691C13.8634 7.33043 10.6836 5.73441 7.15948 4.53699Z" fill="#75A928"/>
<path d="M31.1951 4.53699C26.6652 6.87241 24.032 8.76158 22.5893 10.3706C23.3281 13.3318 27.1824 13.4669 28.5917 13.3839C28.3031 13.2495 28.0623 13.0887 27.977 12.8415C28.3306 12.5902 29.5845 12.815 30.4599 12.3232C30.1236 12.2535 29.9663 12.1857 29.809 11.9375C30.636 11.6737 31.5269 11.4464 32.0509 11.0094C31.7681 11.0129 31.5041 11.0727 31.1348 10.8166C31.8756 10.4174 32.6661 10.101 33.2803 9.49075C32.8972 9.48138 32.4843 9.48697 32.3642 9.34612C33.0423 8.92607 33.6143 8.45893 34.0878 7.94797C33.5518 8.01267 33.3255 7.95696 33.1959 7.8636C33.7084 7.33866 34.3571 6.89539 34.6663 6.24851C34.2684 6.38567 33.9043 6.43818 33.6418 6.23645C33.816 5.84356 34.5622 5.61181 34.9918 4.69368C34.5728 4.7343 34.1285 4.78508 34.0396 4.69368C34.2344 3.9011 34.5681 3.45567 34.8953 2.99421C33.9987 2.98089 32.6402 2.9977 32.7017 2.92189L33.2561 2.3554C32.3803 2.11959 31.4841 2.39328 30.8335 2.59646C30.5414 2.36595 30.8387 2.07446 31.1951 1.77686C30.4508 1.87624 29.7782 2.04735 29.1702 2.28308C28.8454 1.9898 29.3811 1.69651 29.6403 1.40322C28.4903 1.62139 28.0031 1.92793 27.5189 2.23487C27.1677 1.89815 27.4988 1.61199 27.7359 1.31885C26.8688 1.63998 26.4222 2.05455 25.9521 2.46388C25.7926 2.24874 25.5471 2.09105 25.8436 1.57196C25.228 1.92681 24.7643 2.34496 24.4213 2.81341C24.0404 2.57088 24.1944 2.23921 24.1923 1.93355C23.5525 2.45398 23.1465 3.00781 22.6495 3.54864C22.5494 3.47575 22.4618 3.22853 22.3844 2.83752C20.858 4.31831 18.7013 8.04807 21.8299 9.52691C24.4912 7.33043 27.671 5.73441 31.1951 4.53699V4.53699Z" fill="#75A928"/>
<path d="M24.6631 34.6907C24.6631 36.0177 24.0914 37.2903 23.0738 38.2286C22.0562 39.167 20.6761 39.6941 19.2371 39.6941C17.798 39.6941 16.4179 39.167 15.4003 38.2286C14.3827 37.2903 13.811 36.0177 13.811 34.6907C13.811 33.3637 14.3827 32.0911 15.4003 31.1527C16.4179 30.2144 17.798 29.6873 19.2371 29.6873C20.6761 29.6873 22.0562 30.2144 23.0738 31.1527C24.0914 32.0911 24.6631 33.3637 24.6631 34.6907V34.6907Z" fill="#BC1142"/>
<path d="M16.0973 20.3973C17.177 21.1046 17.8789 22.2877 18.0487 23.6863C18.2184 25.0848 17.8422 26.5843 17.0026 27.8548C16.163 29.1253 14.9289 30.0627 13.5719 30.4609C12.2148 30.8591 10.8458 30.6855 9.76615 29.9781C8.6865 29.2708 7.98458 28.0877 7.81482 26.6891C7.64505 25.2906 8.02134 23.7911 8.86091 22.5206C9.70047 21.2501 10.9345 20.3127 12.2916 19.9145C13.6487 19.5163 15.0177 19.6899 16.0973 20.3973V20.3973Z" fill="#BC1142"/>
<path d="M22.1658 20.1307C21.0862 20.838 20.3843 22.0211 20.2145 23.4197C20.0447 24.8182 20.421 26.3177 21.2606 27.5882C22.1002 28.8587 23.3342 29.7961 24.6913 30.1943C26.0484 30.5925 27.4174 30.4189 28.497 29.7115C29.5767 29.0042 30.2786 27.8211 30.4484 26.4225C30.6181 25.024 30.2418 23.5245 29.4023 22.254C28.5627 20.9835 27.3286 20.0461 25.9715 19.6479C24.6144 19.2496 23.2455 19.4233 22.1658 20.1307V20.1307Z" fill="#BC1142"/>
<path d="M4.86061 22.8059C7.28823 22.1554 5.68005 32.8483 3.70505 31.971C1.5326 30.2234 0.832848 25.1059 4.86061 22.8059Z" fill="#BC1142"/>
<path d="M32.9119 22.6726C30.4843 22.0221 32.0924 32.715 34.0674 31.8376C36.2399 30.0901 36.9396 24.9726 32.9119 22.6726Z" fill="#BC1142"/>
<path d="M24.6648 14.7101C28.8538 14.0027 32.3392 16.4915 32.1989 21.0339C32.0611 22.7753 23.1217 14.9693 24.6648 14.7101V14.7101Z" fill="#BC1142"/>
<path d="M13.0904 14.5768C8.90144 13.8694 5.41604 16.3583 5.55634 20.9006C5.69413 22.6421 14.6336 14.836 13.0904 14.5768Z" fill="#BC1142"/>
<path d="M19.1076 13.5172C16.6074 13.4522 14.2079 15.3728 14.2022 16.4869C14.1952 17.8405 16.1789 19.2264 19.1246 19.2616C22.1328 19.2831 24.0523 18.1522 24.062 16.7553C24.073 15.1726 21.3261 13.4928 19.1076 13.5172V13.5172Z" fill="#BC1142"/>
<path d="M19.2603 41.2743C21.4401 41.1792 24.365 41.9764 24.3707 43.034C24.4069 44.0611 21.7181 46.3814 19.1157 46.3366C16.4205 46.4528 13.7777 44.1289 13.8124 43.3233C13.772 42.1423 17.0941 41.2201 19.2603 41.2743Z" fill="#BC1142"/>
<path d="M11.2092 35.007C12.7612 36.8767 13.4686 40.1616 12.1735 41.1299C10.9482 41.8691 7.97267 41.5647 5.85773 38.5265C4.4314 35.977 4.61523 33.3827 5.61668 32.6205C7.1143 31.7082 9.42824 32.9405 11.2092 35.007Z" fill="#BC1142"/>
<path d="M27.0013 34.4141C25.3222 36.3809 24.3871 39.9681 25.6121 41.1237C26.7833 42.0212 29.9274 41.8958 32.2498 38.6733C33.9362 36.509 33.3712 32.8944 32.4079 31.9349C30.9769 30.8281 28.9228 32.2446 27.0013 34.4141V34.4141Z" fill="#BC1142"/>
</svg>
