<svg width="50" height="50" viewBox="0 0 50 50" fill="none" xmlns="http://www.w3.org/2000/svg">
<circle cx="25" cy="25" r="24" transform="rotate(90 25 25)" stroke="#F8E71C" stroke-width="2"/>
<path d="M15 25C15 23.1867 15.4467 21.5133 16.34 19.98C17.2333 18.4467 18.4467 17.2333 19.98 16.34C21.5133 15.4467 23.1867 15 25 15C26.8133 15 28.4867 15.4467 30.02 16.34C31.5533 17.2333 32.7667 18.4467 33.66 19.98C34.5533 21.5133 35 23.1867 35 25C35 26.8133 34.5533 28.4867 33.66 30.02C32.7667 31.5533 31.5533 32.7667 30.02 33.66C28.4867 34.5533 26.8133 35 25 35C23.1867 35 21.5133 34.5533 19.98 33.66C18.4467 32.7667 17.2333 31.5533 16.34 30.02C15.4467 28.4867 15 26.8133 15 25ZM16.66 25C16.66 27.08 17.36 28.9133 18.76 30.5C19.4 29.2467 20.4133 28.0533 21.8 26.92C23.1867 25.7867 24.54 25.0733 25.86 24.78C25.66 24.3133 25.4667 23.8933 25.28 23.52C22.9867 24.2533 20.5067 24.62 17.84 24.62C17.32 24.62 16.9333 24.6133 16.68 24.6C16.68 24.6533 16.6767 24.72 16.67 24.8C16.6633 24.88 16.66 24.9467 16.66 25ZM16.92 22.94C17.2133 22.9667 17.6467 22.98 18.22 22.98C20.4467 22.98 22.56 22.68 24.56 22.08C23.5467 20.28 22.4333 18.78 21.22 17.58C20.1667 18.1133 19.2633 18.8533 18.51 19.8C17.7567 20.7467 17.2267 21.7933 16.92 22.94ZM19.9 31.58C21.4067 32.7533 23.1067 33.34 25 33.34C25.9867 33.34 26.9667 33.1533 27.94 32.78C27.6733 30.5 27.1533 28.2933 26.38 26.16C25.1533 26.4267 23.9167 27.1 22.67 28.18C21.4233 29.26 20.5 30.3933 19.9 31.58ZM22.96 16.94C24.1333 18.1533 25.22 19.6667 26.22 21.48C28.0333 20.72 29.4 19.7533 30.32 18.58C28.7733 17.3 27 16.66 25 16.66C24.32 16.66 23.64 16.7533 22.96 16.94ZM26.94 22.9C27.14 23.3267 27.3667 23.8667 27.62 24.52C28.6067 24.4267 29.68 24.38 30.84 24.38C31.6667 24.38 32.4867 24.4 33.3 24.44C33.1933 22.6267 32.54 21.0133 31.34 19.6C30.4733 20.8933 29.0067 21.9933 26.94 22.9ZM28.12 25.92C28.8 27.8933 29.26 29.92 29.5 32C30.5533 31.32 31.4133 30.4467 32.08 29.38C32.7467 28.3133 33.1467 27.16 33.28 25.92C32.3067 25.8533 31.42 25.82 30.62 25.82C29.8867 25.82 29.0533 25.8533 28.12 25.92Z" fill="#FFFC00"/>
</svg>
