<svg width="50" height="50" viewBox="0 0 50 50" fill="none" xmlns="http://www.w3.org/2000/svg">
<circle cx="25" cy="25" r="24" transform="rotate(90 25 25)" stroke="#F8E71C" stroke-width="2"/>
<path d="M25 15C19.4749 15 15 19.5429 15 25.1521C15 29.9231 18.2247 33.8828 22.5753 34.9991C22.5251 34.8721 22.5004 34.6941 22.5004 34.517V32.7907H21.2502C20.5753 32.7907 19.9498 32.4866 19.6749 31.9276C19.3498 31.3185 19.2996 30.3793 18.4749 29.7952C18.2247 29.5922 18.4247 29.3892 18.6996 29.4142C19.2247 29.5663 19.6494 29.9222 20.0494 30.4545C20.4494 30.9876 20.6247 31.1146 21.3745 31.1146C21.7243 31.1146 22.274 31.0895 22.7745 31.0126C23.0494 30.3015 23.5243 29.6674 24.0996 29.3632C20.7498 28.9571 19.1498 27.2818 19.1498 24.9974C19.1498 24.0073 19.5745 23.0681 20.2749 22.2559C20.0502 21.4688 19.7498 19.8445 20.3753 19.2103C21.8757 19.2103 22.7753 20.2005 23 20.4536C23.7498 20.1996 24.5753 20.0475 25.4247 20.0475C26.2996 20.0475 27.0996 20.1996 27.8494 20.4536C28.074 20.1996 28.9745 19.2103 30.474 19.2103C31.074 19.8194 30.7991 21.4688 30.5489 22.2559C31.2494 23.043 31.6494 24.0073 31.6494 24.9974C31.6494 27.2818 30.074 28.9571 26.7498 29.3123C27.6749 29.7944 28.3251 31.1647 28.3251 32.1799V34.492C28.3251 34.568 28.3004 34.644 28.3004 34.7201C32.2 33.3498 35 29.5939 35 25.1521C35 19.5429 30.5251 15 25 15Z" fill="#FFFC00"/>
</svg>
