<svg width="50" height="50" viewBox="0 0 50 50" fill="none" xmlns="http://www.w3.org/2000/svg">
<circle cx="25" cy="25" r="24" transform="rotate(90 25 25)" stroke="#F8E71C" stroke-width="2"/>
<path d="M21.6672 25C21.6672 23.1591 23.1591 21.6664 25 21.6664C26.8409 21.6664 28.3336 23.1591 28.3336 25C28.3336 26.8409 26.8409 28.3336 25 28.3336C23.1591 28.3336 21.6672 26.8409 21.6672 25ZM19.8651 25C19.8651 27.836 22.164 30.1349 25 30.1349C27.836 30.1349 30.1349 27.836 30.1349 25C30.1349 22.164 27.836 19.8651 25 19.8651C22.164 19.8651 19.8651 22.164 19.8651 25ZM29.1381 19.6616C29.1381 20.3239 29.6753 20.8619 30.3385 20.8619C31.0008 20.8619 31.5388 20.3239 31.5388 19.6616C31.5388 18.9992 31.0016 18.462 30.3385 18.462C29.6753 18.462 29.1381 18.9992 29.1381 19.6616ZM20.9596 33.1397C19.9847 33.0953 19.4548 32.933 19.1026 32.7956C18.6357 32.6139 18.3029 32.3974 17.9523 32.0477C17.6026 31.6979 17.3853 31.3651 17.2044 30.8982C17.067 30.546 16.9047 30.0162 16.8603 29.0412C16.8118 27.9871 16.8021 27.6704 16.8021 25C16.8021 22.3296 16.8126 22.0137 16.8603 20.9588C16.9047 19.9838 17.0679 19.4548 17.2044 19.1018C17.3861 18.6349 17.6026 18.3021 17.9523 17.9515C18.3021 17.6018 18.6349 17.3845 19.1026 17.2036C19.4548 17.0662 19.9847 16.9039 20.9596 16.8595C22.0137 16.811 22.3304 16.8013 25 16.8013C27.6704 16.8013 27.9863 16.8118 29.0412 16.8595C30.0162 16.9039 30.5452 17.067 30.8982 17.2036C31.3651 17.3845 31.6979 17.6018 32.0485 17.9515C32.3982 18.3013 32.6147 18.6349 32.7964 19.1018C32.9338 19.454 33.0961 19.9838 33.1406 20.9588C33.189 22.0137 33.1987 22.3296 33.1987 25C33.1987 27.6696 33.189 27.9863 33.1406 29.0412C33.0961 30.0162 32.933 30.546 32.7964 30.8982C32.6147 31.3651 32.3982 31.6979 32.0485 32.0477C31.6987 32.3974 31.3651 32.6139 30.8982 32.7956C30.546 32.933 30.0162 33.0953 29.0412 33.1397C27.9871 33.1882 27.6704 33.1979 25 33.1979C22.3304 33.1979 22.0137 33.1882 20.9596 33.1397V33.1397ZM20.8772 15.0606C19.8126 15.109 19.0856 15.2779 18.4499 15.525C17.7924 15.7803 17.2351 16.1228 16.6785 16.6785C16.1228 17.2342 15.7803 17.7916 15.525 18.4499C15.2779 19.0856 15.109 19.8126 15.0606 20.8772C15.0113 21.9435 15 22.2843 15 25C15 27.7157 15.0113 28.0565 15.0606 29.1228C15.109 30.1874 15.2779 30.9144 15.525 31.5501C15.7803 32.2076 16.122 32.7658 16.6785 33.3215C17.2342 33.8772 17.7916 34.2189 18.4499 34.475C19.0864 34.7221 19.8126 34.891 20.8772 34.9394C21.9443 34.9879 22.2843 35 25 35C27.7165 35 28.0565 34.9887 29.1228 34.9394C30.1874 34.891 30.9144 34.7221 31.5501 34.475C32.2076 34.2189 32.7649 33.8772 33.3215 33.3215C33.8772 32.7658 34.2189 32.2076 34.475 31.5501C34.7221 30.9144 34.8918 30.1874 34.9394 29.1228C34.9879 28.0557 34.9992 27.7157 34.9992 25C34.9992 22.2843 34.9879 21.9435 34.9394 20.8772C34.891 19.8126 34.7221 19.0856 34.475 18.4499C34.2189 17.7924 33.8772 17.2351 33.3215 16.6785C32.7658 16.1228 32.2076 15.7803 31.5509 15.525C30.9144 15.2779 30.1874 15.1082 29.1236 15.0606C28.0574 15.0121 27.7165 15 25.0008 15C22.2843 15 21.9443 15.0113 20.8772 15.0606" fill="#FFFC00"/>
</svg>
