<svg width="50" height="50" viewBox="0 0 50 50" fill="none" xmlns="http://www.w3.org/2000/svg">
<circle cx="25" cy="25" r="24" transform="rotate(90 25 25)" stroke="#F8E71C" stroke-width="2"/>
<mask id="mask0_252:32" style="mask-type:alpha" maskUnits="userSpaceOnUse" x="10" y="18" width="30" height="14">
<path d="M10 18.0172H39.9758V31.9981H10V18.0172Z" fill="white"/>
</mask>
<g mask="url(#mask0_252:32)">
<path fill-rule="evenodd" clip-rule="evenodd" d="M39.6477 29.2098C39.8488 29.0235 39.9758 28.7624 39.9758 28.4711C39.9758 28.1906 39.8386 27.9386 39.6507 27.754L31.1872 19.5204L28.6326 22.0056L35.2961 28.488H25.8554C25.3939 28.4746 25.0281 28.3239 24.7187 28.0322L20.4826 23.9112C20.0433 23.5071 19.4416 23.2514 18.7892 23.2514C18.7869 23.2514 18.7847 23.2517 18.7827 23.2517V23.2514H13.6128V21.5317H18.9672V21.5321C20.028 21.5326 20.9746 21.955 21.6684 22.6328L24.8281 25.7067L27.3827 23.2215L24.1615 20.0879C22.8151 18.798 20.9968 18.0172 18.958 18.0172C18.9559 18.0172 18.9536 18.0173 18.9514 18.0173V18.0172H10V26.7659H17.5763V26.7664C18.069 26.7699 18.5139 26.967 18.8351 27.2837L22.9838 31.3198C23.4058 31.723 23.976 31.9771 24.6082 32H36.0688C36.5513 31.9938 36.987 31.8017 37.305 31.4932L39.6495 29.2127L39.6477 29.2098Z" fill="#FFFC00"/>
</g>
<path fill-rule="evenodd" clip-rule="evenodd" d="M34.0852 19.0408C34.0852 19.5381 33.6823 19.9533 33.1594 19.9533C32.6303 19.9533 32.2336 19.5438 32.2336 19.0463V19.0408C32.2336 18.5436 32.6363 18.1284 33.1594 18.1284C33.6883 18.1284 34.0852 18.5377 34.0852 19.0349V19.0408ZM33.1594 18.0172C32.5764 18.0172 32.1129 18.4853 32.1129 19.0408V19.0463C32.1129 19.6023 32.5702 20.0644 33.1594 20.0644C33.7428 20.0644 34.2054 19.5964 34.2054 19.0408V19.0349C34.2054 18.4791 33.7489 18.0172 33.1594 18.0172Z" fill="#FFFC00"/>
<path fill-rule="evenodd" clip-rule="evenodd" d="M32.9571 18.9848H33.2626C33.3803 18.9848 33.4445 18.9282 33.4445 18.8196C33.4445 18.6877 33.3564 18.6615 33.2597 18.6615H32.9571V18.9848ZM32.7707 18.5137H33.2788C33.5115 18.5137 33.6306 18.6181 33.6306 18.7936C33.6306 18.9921 33.4891 19.0428 33.4547 19.0544V19.0573C33.5189 19.0661 33.6127 19.1124 33.6127 19.2763C33.6127 19.3967 33.6306 19.5069 33.6708 19.5487H33.4712C33.4429 19.5039 33.4429 19.4475 33.4429 19.3967C33.4429 19.2067 33.4026 19.1226 33.2311 19.1226H32.9571V19.5487H32.7707V18.5137Z" fill="#FFFC00"/>
</svg>
