<svg width="50" height="36" viewBox="0 0 50 36" fill="none" xmlns="http://www.w3.org/2000/svg">
<path d="M10.9088 1.17908L24.9993 0.000488281L39.0899 1.17908L49.9987 12.7652L24.9993 35.7977L0 12.7652L10.9088 1.17908Z" fill="#FDB300"/>
<path d="M10.1264 12.7651L24.9998 35.7979L0.000488281 12.7651H10.1264Z" fill="#EA6C00"/>
<path d="M39.8736 12.7646L25.0002 35.7971L49.9995 12.7646H39.8736Z" fill="#EA6C00"/>
<path d="M10.1265 12.7646H39.8732L24.9998 35.7971L10.1265 12.7646Z" fill="#FDAD00"/>
<path d="M25.0002 0L10.9097 1.17859L10.127 12.7649L25.0002 0Z" fill="#FDD231"/>
<path d="M25.0006 0L39.0912 1.17859L39.874 12.7649L25.0006 0Z" fill="#FDD231"/>
<path d="M50 12.7649L39.0911 1.17871L39.874 12.7649H50Z" fill="#FDAD00"/>
<path d="M0.00146484 12.7649L10.9103 1.17871L10.1275 12.7649H0.00146484Z" fill="#FDAD00"/>
<path d="M25.0003 0L10.127 12.7649H39.8737L25.0003 0Z" fill="#FEEEB7"/>
</svg>
