<svg width="50" height="48" viewBox="0 0 50 48" fill="none" xmlns="http://www.w3.org/2000/svg">
<g clip-path="url(#clip0_1813:800)">
<path d="M32.4148 2.95892C31.655 0.72174 29.1429 -0.502496 26.8044 0.22461C24.4655 0.951342 23.1857 3.35423 23.9458 5.59104L35.4589 39.4738C36.2495 41.5637 38.6097 42.7381 40.8753 42.1145C43.2386 41.4638 44.679 39.063 43.9249 36.843L32.4148 2.95892Z" fill="#DFA22F"/>
<path d="M14.5754 8.50336C13.8152 6.26637 11.3033 5.04213 8.96483 5.76887C6.62577 6.49578 5.34569 8.89848 6.10604 11.1357L17.6193 45.0186C18.4098 47.1084 20.7701 48.2829 23.0357 47.6587C25.3988 47.0084 26.8393 44.6076 26.0851 42.3872L14.5754 8.50336Z" fill="#3CB187"/>
<path d="M46.9065 31.0207C49.2453 30.294 50.5248 27.8915 49.7651 25.6541C49.0053 23.4173 46.4932 22.1929 44.1547 22.9198L8.73187 33.9327C6.54691 34.6886 5.31917 36.9461 5.97113 39.1132C6.6514 41.3736 9.16136 42.7515 11.4823 42.0302L46.9065 31.0209" fill="#CE1E5B"/>
<path d="M16.1146 40.5906L24.5808 37.9594L21.8296 29.8604L13.3628 32.4927L16.1146 40.5908" fill="#392538"/>
<path d="M33.9546 35.0459C37.1554 34.0515 40.1304 33.1267 42.421 32.4147L39.6694 24.3142L31.2026 26.9465L33.9546 35.0459Z" fill="#BB242A"/>
<path d="M41.1102 13.9566C43.4488 13.2299 44.7287 10.8272 43.969 8.58985C43.2092 6.35304 40.6971 5.1288 38.3582 5.85554L2.93515 16.8686C0.75038 17.6241 -0.47755 19.8819 0.174989 22.049C0.854873 24.3091 3.36483 25.6871 5.68612 24.9658L41.1102 13.9565" fill="#72C5CD"/>
<path d="M10.3169 23.527C12.6226 22.8104 15.5952 21.8863 18.7845 20.8954C17.7448 17.8334 16.778 14.9878 16.0337 12.7964L7.56494 15.4291L10.3169 23.527Z" fill="#248C73"/>
<path d="M28.1562 17.9827L36.6242 15.3508C35.7071 12.6506 34.7898 9.95039 33.8724 7.25024L25.4043 9.88293L28.1562 17.9827Z" fill="#62803A"/>
</g>
<defs>
<clipPath id="clip0_1813:800">
<rect width="50" height="47.8261" fill="white"/>
</clipPath>
</defs>
</svg>
