<?xml version="1.0" encoding="UTF-8"?>
<svg width="89px" height="24px" viewBox="0 0 89 24" version="1.1" xmlns="http://www.w3.org/2000/svg" xmlns:xlink="http://www.w3.org/1999/xlink">
    <title>webxr</title>
    <defs>
        <linearGradient x1="-25253.7557%" y1="-8990.99194%" x2="-25267.8005%" y2="-8844.9236%" id="linearGradient-1">
            <stop stop-color="#FF0000" offset="0%"></stop>
            <stop stop-color="#990000" offset="100%"></stop>
        </linearGradient>
        <linearGradient x1="-20440.6646%" y1="21002.9425%" x2="-20473.1765%" y2="20885.4908%" id="linearGradient-2">
            <stop stop-color="#FF0000" offset="0%"></stop>
            <stop stop-color="#990000" offset="100%"></stop>
        </linearGradient>
        <linearGradient x1="-85871.9651%" y1="43808.2224%" x2="-85694.9167%" y2="44065.791%" id="linearGradient-3">
            <stop stop-color="#990000" stop-opacity="0.65" offset="0%"></stop>
            <stop stop-color="#FE0000" stop-opacity="0.65" offset="100%"></stop>
        </linearGradient>
        <linearGradient x1="-98480.516%" y1="-15649.6494%" x2="-98544.2005%" y2="-15351.7866%" id="linearGradient-4">
            <stop stop-color="#FF0000" stop-opacity="0.65" offset="0%"></stop>
            <stop stop-color="#990000" stop-opacity="0.65" offset="100%"></stop>
        </linearGradient>
    </defs>
    <g id="Page-1" stroke="none" stroke-width="1" fill="none" fill-rule="evenodd">
        <g id="webxr" transform="translate(0.000000, 0.112548)">
            <path d="M56.5139995,3.66577169 L56.5139995,7.48025169 C56.5139995,8.28762169 56.4866995,9.00235169 56.4410995,9.64269169 C57.2069995,8.58459169 58.3283995,8.04634169 59.7963995,8.04634169 C61.2187995,8.04634169 62.3309995,8.54747169 63.1151995,9.54060169 C63.9083995,10.5335517 64.3005995,11.9257517 64.3005995,13.7170517 C64.3005995,15.5175517 63.8992995,16.9189517 63.1060995,17.9306517 C62.3127995,18.9329517 61.2004995,19.4340517 59.7963995,19.4340517 C59.0943995,19.4340517 58.4468995,19.3041517 57.8634995,19.0443517 L57.8542995,19.0443517 C57.2890995,18.7751517 56.8057995,18.3668517 56.4136995,17.8378517 L56.3863995,17.8378517 L56.0398995,19.2391517 L54.7633995,19.2391517 L54.7633995,3.66577169 L56.5139995,3.66577169 Z M25.5321995,4.59379169 L27.7932995,13.6057517 C28.0667995,14.7101517 28.2675995,15.7125517 28.4133995,16.6312517 C28.5866995,15.5547517 28.8145995,14.4967517 29.1244995,13.4664517 L31.6866995,4.59379169 L33.5466995,4.59379169 L36.2453995,13.5406517 C36.5188995,14.4688517 36.7559995,15.5083517 36.9566995,16.6498517 C37.0933995,15.7775517 37.2939995,14.7751517 37.5948995,13.5870517 L39.8559995,4.59379169 L41.7524995,4.59379169 L37.9139995,19.1836517 L37.9047995,19.2393517 L36.1633995,19.2393517 L33.2729995,9.47565169 C33.1362995,9.04876169 32.9812995,8.50122169 32.8171995,7.85145169 C32.7350995,7.51737169 32.6621995,7.25752169 32.6256995,7.06264169 L32.6165995,7.02552169 C32.4706995,7.80505169 32.2792995,8.63114169 32.0057995,9.54060169 L29.2065995,19.2393517 L27.4650995,19.2393517 L23.6356995,4.59379169 L25.5321995,4.59379169 Z M67.6192995,4.59379169 L71.1112995,10.2738517 L74.6397995,4.59379169 L76.5727995,4.59379169 L72.1142995,11.5267517 L76.8462995,19.1279517 L76.9100995,19.2393517 L74.8677995,19.2393517 L71.0748995,12.9189517 L67.2180995,19.2393517 L65.3033995,19.2393517 L70.0810995,11.5916517 L65.6224995,4.59379169 L67.6192995,4.59379169 Z M82.7454995,4.59379169 C84.5051995,4.59379169 85.8090995,4.93716169 86.6568995,5.63333169 C87.5140995,6.32935169 87.9425995,7.37816169 87.9425995,8.76107169 C87.9425995,10.6729517 86.9759995,11.9908517 85.1068995,12.6869517 L89.0000995,19.2393517 L86.8756995,19.2393517 L83.4291995,13.2065517 L80.5663995,13.2065517 L80.5663995,19.2393517 L78.7701995,19.2393517 L78.7701995,4.59379169 L82.7454995,4.59379169 Z M80.5663995,11.6195517 L82.7636995,11.6195517 C83.9216995,11.6195517 84.7604995,11.3875517 85.2891995,10.9327517 C85.8181995,10.4687517 86.0825995,9.78189169 86.0825995,8.85387169 C86.0825995,7.90713169 85.8181995,7.24824169 85.2800995,6.83975169 C84.7421995,6.43143169 83.8669995,6.21798169 82.6451995,6.21798169 L80.5663995,6.21798169 L80.5663995,11.6195517 Z M50.9613995,9.40140169 C51.7545995,10.3108517 52.1465995,11.5081517 52.1465995,12.9838517 L52.1465995,14.0976517 L44.8068995,14.0976517 C44.8433995,15.3226517 45.1532995,16.2508517 45.7186995,16.8818517 C46.3112995,17.5316517 47.1410995,17.8564517 48.2168995,17.8564517 C49.3566995,17.8564517 50.4779995,17.6151517 51.5995995,17.1231517 L51.6906995,17.0860517 L51.6906995,18.7009517 L51.6542995,18.7195517 C51.0798995,18.9793517 50.5328995,19.1556517 50.0130995,19.2670517 C49.4933995,19.3785517 48.8825995,19.4342517 48.1530995,19.4342517 C46.5665995,19.4342517 45.2991995,18.9329517 44.3692995,17.9399517 C43.4391995,16.9468517 42.9833995,15.5732517 42.9833995,13.8190517 C42.9833995,12.0556517 43.4118995,10.6451517 44.2689995,9.59629169 C45.1259995,8.55675169 46.2930995,8.02778169 47.7336995,8.02778169 C49.0922995,8.02778169 50.1680995,8.48251169 50.9613995,9.40140169 Z M45.7095995,10.3758517 C45.2353995,10.9142517 44.9436995,11.6659517 44.8433995,12.6219517 L50.2774995,12.6219517 C50.2591995,11.6288517 50.0403995,10.8771517 49.6118995,10.3572517 C49.1742995,9.81901169 48.5450995,9.54988169 47.7154995,9.54988169 C46.8765995,9.54988169 46.2110995,9.81901169 45.7095995,10.3758517 Z M57.2341995,10.5150517 C56.7601995,11.1276517 56.5139995,12.2041517 56.5139995,13.7170517 C56.5139995,15.2391517 56.7692995,16.3157517 57.2524995,16.9561517 C57.7357995,17.5965517 58.5107995,17.9121517 59.6048995,17.9121517 C60.5803995,17.9121517 61.2916995,17.5593517 61.7657995,16.8447517 C62.2398995,16.1208517 62.4861995,15.0720517 62.4861995,13.6984517 C62.4861995,12.2969517 62.2398995,11.2575517 61.7657995,10.5799517 C61.2916995,9.90255169 60.5621995,9.56844169 59.5592995,9.56844169 C58.4742995,9.56844169 57.6993995,9.88397169 57.2341995,10.5150517 Z" id="Shape" fill="#3D3D3D" fill-rule="nonzero"></path>
            <path d="M56.5139995,3.66577169 L56.5139995,7.48025169 C56.5139995,8.28762169 56.4866995,9.00235169 56.4410995,9.64269169 C57.2069995,8.58459169 58.3283995,8.04634169 59.7963995,8.04634169 C61.2187995,8.04634169 62.3309995,8.54747169 63.1151995,9.54060169 C63.9083995,10.5335517 64.3005995,11.9257517 64.3005995,13.7170517 C64.3005995,15.5175517 63.8992995,16.9189517 63.1060995,17.9306517 C62.3127995,18.9329517 61.2004995,19.4340517 59.7963995,19.4340517 C59.0943995,19.4340517 58.4468995,19.3041517 57.8634995,19.0443517 L57.8542995,19.0443517 C57.2890995,18.7751517 56.8057995,18.3668517 56.4136995,17.8378517 L56.3863995,17.8378517 L56.0398995,19.2391517 L54.7633995,19.2391517 L54.7633995,3.66577169 L56.5139995,3.66577169 Z M25.5321995,4.59379169 L27.7932995,13.6057517 C28.0667995,14.7101517 28.2675995,15.7125517 28.4133995,16.6312517 C28.5866995,15.5547517 28.8145995,14.4967517 29.1244995,13.4664517 L31.6866995,4.59379169 L33.5466995,4.59379169 L36.2453995,13.5406517 C36.5188995,14.4688517 36.7559995,15.5083517 36.9566995,16.6498517 C37.0933995,15.7775517 37.2939995,14.7751517 37.5948995,13.5870517 L39.8559995,4.59379169 L41.7524995,4.59379169 L37.9139995,19.1836517 L37.9047995,19.2393517 L36.1633995,19.2393517 L33.2729995,9.47565169 C33.1362995,9.04876169 32.9812995,8.50122169 32.8171995,7.85145169 C32.7350995,7.51737169 32.6621995,7.25752169 32.6256995,7.06264169 L32.6165995,7.02552169 C32.4706995,7.80505169 32.2792995,8.63114169 32.0057995,9.54060169 L29.2065995,19.2393517 L27.4650995,19.2393517 L23.6356995,4.59379169 L25.5321995,4.59379169 Z M67.6192995,4.59379169 L71.1112995,10.2738517 L74.6397995,4.59379169 L76.5727995,4.59379169 L72.1142995,11.5267517 L76.8462995,19.1279517 L76.9100995,19.2393517 L74.8677995,19.2393517 L71.0748995,12.9189517 L67.2180995,19.2393517 L65.3033995,19.2393517 L70.0810995,11.5916517 L65.6224995,4.59379169 L67.6192995,4.59379169 Z M82.7454995,4.59379169 C84.5051995,4.59379169 85.8090995,4.93716169 86.6568995,5.63333169 C87.5140995,6.32935169 87.9425995,7.37816169 87.9425995,8.76107169 C87.9425995,10.6729517 86.9759995,11.9908517 85.1068995,12.6869517 L89.0000995,19.2393517 L86.8756995,19.2393517 L83.4291995,13.2065517 L80.5663995,13.2065517 L80.5663995,19.2393517 L78.7701995,19.2393517 L78.7701995,4.59379169 L82.7454995,4.59379169 Z M80.5663995,11.6195517 L82.7636995,11.6195517 C83.9216995,11.6195517 84.7604995,11.3875517 85.2891995,10.9327517 C85.8181995,10.4687517 86.0825995,9.78189169 86.0825995,8.85387169 C86.0825995,7.90713169 85.8181995,7.24824169 85.2800995,6.83975169 C84.7421995,6.43143169 83.8669995,6.21798169 82.6451995,6.21798169 L80.5663995,6.21798169 L80.5663995,11.6195517 Z M50.9613995,9.40140169 C51.7545995,10.3108517 52.1465995,11.5081517 52.1465995,12.9838517 L52.1465995,14.0976517 L44.8068995,14.0976517 C44.8433995,15.3226517 45.1532995,16.2508517 45.7186995,16.8818517 C46.3112995,17.5316517 47.1410995,17.8564517 48.2168995,17.8564517 C49.3566995,17.8564517 50.4779995,17.6151517 51.5995995,17.1231517 L51.6906995,17.0860517 L51.6906995,18.7009517 L51.6542995,18.7195517 C51.0798995,18.9793517 50.5328995,19.1556517 50.0130995,19.2670517 C49.4933995,19.3785517 48.8825995,19.4342517 48.1530995,19.4342517 C46.5665995,19.4342517 45.2991995,18.9329517 44.3692995,17.9399517 C43.4391995,16.9468517 42.9833995,15.5732517 42.9833995,13.8190517 C42.9833995,12.0556517 43.4118995,10.6451517 44.2689995,9.59629169 C45.1259995,8.55675169 46.2930995,8.02778169 47.7336995,8.02778169 C49.0922995,8.02778169 50.1680995,8.48251169 50.9613995,9.40140169 Z M45.7095995,10.3758517 C45.2353995,10.9142517 44.9436995,11.6659517 44.8433995,12.6219517 L50.2774995,12.6219517 C50.2591995,11.6288517 50.0403995,10.8771517 49.6118995,10.3572517 C49.1742995,9.81901169 48.5450995,9.54988169 47.7154995,9.54988169 C46.8765995,9.54988169 46.2110995,9.81901169 45.7095995,10.3758517 Z M57.2341995,10.5150517 C56.7601995,11.1276517 56.5139995,12.2041517 56.5139995,13.7170517 C56.5139995,15.2391517 56.7692995,16.3157517 57.2524995,16.9561517 C57.7357995,17.5965517 58.5107995,17.9121517 59.6048995,17.9121517 C60.5803995,17.9121517 61.2916995,17.5593517 61.7657995,16.8447517 C62.2398995,16.1208517 62.4861995,15.0720517 62.4861995,13.6984517 C62.4861995,12.2969517 62.2398995,11.2575517 61.7657995,10.5799517 C61.2916995,9.90255169 60.5621995,9.56844169 59.5592995,9.56844169 C58.4742995,9.56844169 57.6993995,9.88397169 57.2341995,10.5150517 Z" id="Shape" fill="#FFFFFF" fill-rule="nonzero"></path>
            <path d="M4.52492952,21.9257517 C4.17466952,21.0756517 0.120984518,11.1576517 0.120984518,11.1576517 C0.120984518,11.1576517 -0.825459482,8.86958169 2.57593952,7.24382169 C5.97725952,5.61806169 10.1180995,3.57080169 10.1180995,3.57080169 L10.1180995,19.1131517 C10.1180995,19.1131517 7.66685952,21.5873517 6.69733952,22.5791517 C5.81636952,23.4804517 4.87656952,22.7794517 4.52492952,21.9257517 Z" id="Path" fill="url(#linearGradient-1)"></path>
            <path d="M15.7113995,21.9257517 C16.0616995,21.0756517 20.1152995,11.1576517 20.1152995,11.1576517 C20.1152995,11.1576517 21.0617995,8.86958169 17.6603995,7.24382169 C14.2590995,5.61806169 10.1182995,3.57080169 10.1182995,3.57080169 L10.1182995,19.1131517 C10.1182995,19.1131517 12.5694995,21.5873517 13.5389995,22.5791517 C14.4199995,23.4804517 15.3597995,22.7794517 15.7113995,21.9257517 Z" id="Path" fill="url(#linearGradient-2)"></path>
            <path d="M10.1181995,3.57076169 L3.08848952,0.0994596944 C3.08848952,0.0994596944 1.59086952,-0.572366306 1.96608952,1.57612169 L2.92659952,7.07597169 L10.1181995,3.57076169 Z" id="Path" fill="url(#linearGradient-3)"></path>
            <path d="M10.1181995,3.57076169 L17.1477995,0.0994596944 C17.1477995,0.0994596944 18.6454995,-0.572366306 18.2701995,1.57612169 L17.3096995,7.07597169 L10.1181995,3.57076169 Z" id="Path" fill="url(#linearGradient-4)"></path>
        </g>
    </g>
</svg>