<svg width="50" height="50" viewBox="0 0 50 50" fill="none" xmlns="http://www.w3.org/2000/svg">
<g clip-path="url(#clip0_1813:753)">
<path d="M3.55372 24.9995C3.55372 33.4889 8.48707 40.8247 15.6408 44.3016L5.41051 16.2713C4.18413 19.0176 3.5514 21.9918 3.55372 24.9995ZM39.4784 23.9172C39.4784 21.2667 38.5263 19.4311 37.7097 18.0024C36.6226 16.2358 35.604 14.7398 35.604 12.9732C35.604 11.0017 37.0988 9.16653 39.2049 9.16653C39.3 9.16653 39.3902 9.17837 39.4833 9.18367C35.6672 5.688 30.5837 3.55371 25.0003 3.55371C17.5078 3.55371 10.916 7.39789 7.08121 13.2205C7.58438 13.2356 8.05899 13.2458 8.46136 13.2458C10.7046 13.2458 14.177 12.9736 14.177 12.9736C15.3331 12.9054 15.4694 14.6035 14.315 14.7402C14.315 14.7402 13.1527 14.8769 11.8599 14.9446L19.6699 38.175L24.3637 24.0988L21.0218 14.9442C19.867 14.8765 18.7729 14.7398 18.7729 14.7398C17.6172 14.672 17.7527 12.905 18.9084 12.9732C18.9084 12.9732 22.4501 13.2454 24.5575 13.2454C26.8003 13.2454 30.2732 12.9732 30.2732 12.9732C31.4301 12.905 31.566 14.6031 30.4107 14.7398C30.4107 14.7398 29.2464 14.8765 27.956 14.9442L35.7064 37.9987L37.8452 30.8502C38.7728 27.8838 39.4784 25.7532 39.4784 23.9172Z" fill="#00749A"/>
<path d="M25.3766 26.8754L18.9419 45.5732C20.9092 46.1529 22.9494 46.4473 25.0004 46.4473C27.4978 46.4473 29.8929 46.0151 32.1223 45.2316C32.0625 45.138 32.0114 45.0391 31.9697 44.9361L25.3766 26.8754ZM43.8189 14.71C43.9111 15.3931 43.9633 16.1268 43.9633 16.9153C43.9633 19.0916 43.5569 21.5381 42.3326 24.5971L35.7816 43.5376C42.1576 39.8195 46.4461 32.9119 46.4461 24.9995C46.4519 21.403 45.5481 17.8635 43.8189 14.71Z" fill="#00749A"/>
<path d="M25.0012 0C11.2164 0 0.000976562 11.2146 0.000976562 24.9994C0.000976562 38.7858 11.216 50.0004 25.0012 50.0004C38.7855 50.0004 50.0026 38.7862 50.0026 24.9994C50.0022 11.2146 38.7855 0 25.0012 0ZM25.0012 48.8541C11.8485 48.8541 1.14729 38.1528 1.14729 24.9994C1.14729 11.8472 11.8481 1.14672 25.0012 1.14672C38.1534 1.14672 48.8538 11.8472 48.8538 24.9994C48.8538 38.1528 38.153 48.8541 25.0012 48.8541Z" fill="#00749A"/>
</g>
<defs>
<clipPath id="clip0_1813:753">
<rect width="50" height="50" fill="white"/>
</clipPath>
</defs>
</svg>
