<?xml version="1.0" encoding="UTF-8"?>
<svg width="50px" height="50px" viewBox="0 0 50 50" version="1.1" xmlns="http://www.w3.org/2000/svg" xmlns:xlink="http://www.w3.org/1999/xlink">
    <title>wordpress</title>
    <g id="Page-1" stroke="none" stroke-width="1" fill="none" fill-rule="evenodd">
        <g id="wordpress" transform="translate(0.000977, 0.000000)" fill="#FFFFFF" fill-rule="nonzero">
            <path d="M3.55273708,24.9995 C3.55273708,33.4889 8.48609344,40.8247 15.6398234,44.3016 L5.40953344,16.2713 C4.18315344,19.0176 3.55042344,21.9918 3.55273708,24.9995 Z M39.4774234,23.9172 C39.4774234,21.2667 38.5253234,19.4311 37.7087234,18.0024 C36.6216234,16.2358 35.6030234,14.7398 35.6030234,12.9732 C35.6030234,11.0017 37.0978234,9.16653 39.2039234,9.16653 C39.2990234,9.16653 39.3892234,9.17837 39.4823234,9.18367 C35.6662234,5.688 30.5827234,3.55371 24.9993234,3.55371 C17.5068234,3.55371 10.9150234,7.39789 7.08023344,13.2205 C7.58340344,13.2356 8.05801344,13.2458 8.46038344,13.2458 C10.7036234,13.2458 14.1760234,12.9736 14.1760234,12.9736 C15.3321234,12.9054 15.4684234,14.6035 14.3140234,14.7402 C14.3140234,14.7402 13.1517234,14.8769 11.8589234,14.9446 L19.6689234,38.175 L24.3627234,24.0988 L21.0208234,14.9442 C19.8660234,14.8765 18.7719234,14.7398 18.7719234,14.7398 C17.6162234,14.672 17.7517234,12.905 18.9074234,12.9732 C18.9074234,12.9732 22.4491234,13.2454 24.5565234,13.2454 C26.7993234,13.2454 30.2722234,12.9732 30.2722234,12.9732 C31.4291234,12.905 31.5650234,14.6031 30.4097234,14.7398 C30.4097234,14.7398 29.2454234,14.8765 27.9550234,14.9442 L35.7054234,37.9987 L37.8442234,30.8502 C38.7718234,27.8838 39.4774234,25.7532 39.4774234,23.9172 Z" id="Shape"></path>
            <path d="M25.3756234,26.8754 L18.9409234,45.5732 C20.9082234,46.1529 22.9484234,46.4473 24.9994234,46.4473 C27.4968234,46.4473 29.8919234,46.0151 32.1213234,45.2316 C32.0615234,45.138 32.0104234,45.0391 31.9687234,44.9361 L25.3756234,26.8754 Z M43.8179234,14.71 C43.9101234,15.3931 43.9623234,16.1268 43.9623234,16.9153 C43.9623234,19.0916 43.5559234,21.5381 42.3316234,24.5971 L35.7806234,43.5376 C42.1566234,39.8195 46.4451512,32.9119 46.4451512,24.9995 C46.4509234,21.403 45.5471234,17.8635 43.8179234,14.71 Z" id="Shape"></path>
            <path d="M25.0002234,0 C11.2154234,0 0,11.2146 0,24.9994 C0,38.7858 11.2150234,50.0004 25.0002234,50.0004 C38.7845234,50.0004 50.0016234,38.7862 50.0016234,24.9994 C50.0016234,11.2146 38.7845234,0 25.0002234,0 Z M25.0002234,48.8541 C11.8475234,48.8541 1.14631344,38.1528 1.14631344,24.9994 C1.14631344,11.8472 11.8471234,1.14672 25.0002234,1.14672 C38.1524234,1.14672 48.8528234,11.8472 48.8528234,24.9994 C48.8528234,38.1528 38.1520234,48.8541 25.0002234,48.8541 Z" id="Shape"></path>
        </g>
    </g>
</svg>